<svg xmlns="http://www.w3.org/2000/svg">
<defs>
<font id="UnifrakturCook-Bold" horiz-adv-x="0" >
  <font-face 
    font-family="UnifrakturCook"
    font-weight="700"
    font-stretch="normal"
    units-per-em="2048"
    panose-1="2 1 8 2 7 3 2 2 2 4"
    ascent="1638"
    descent="-410"
    x-height="1080"
    cap-height="1562"
    bbox="-785 -569.999 2484 2110"
    underline-thickness="0"
    underline-position="0"
    unicode-range="U+0020-U+FB05"
  />
<missing-glyph horiz-adv-x="2027" 
d="M899 1902l78.001 4.99609c24.667 0 48.834 -4.33301 72.501 -13s43.667 -13 60 -13s29.666 0.833008 39.999 2.5s19.166 6.83398 26.499 15.501c17.333 20.667 33.333 59.5 48 116.5s36.667 88.5 66 94.5h7c2.66699 0 12 -16.333 28 -49s29.167 -57.834 39.5 -75.501
s18.833 -33.5 25.5 -47.5c19.333 -40.667 29 -72 29 -94l-9 -78c0 -29.333 6.83301 -58.333 20.5 -87s20.5 -58 20.5 -88s-13 -56.333 -39 -79c0 -4.66699 4.5 -7 13.5 -7s13.5 -1.66699 13.5 -5h-37c-8 -3.33301 -15.333 -8.33301 -22 -15l110 -41c0 -2 0.333008 -3 1 -3
s1 -0.666992 1 -2l-2 -3l-3 3c-3.33301 0 -6.16602 0.833008 -8.49902 2.5s-4.5 0.833984 -6.5 -2.49902c-1.33301 0 -2.5 1.66699 -3.5 5s-2.83301 5 -5.5 5s-5 -1 -7 -3l-15 8h-5c-10 0 -21 3.5 -33 10.5s-23.167 10.5 -33.5 10.5s-18.833 -2.66699 -25.5 -8
c-5.33301 -6.66699 -8 -10.5 -8 -11.5s1 -1.5 3 -1.5l36 -20c-24.667 6.66699 -39.334 12.334 -44.001 17.001c-3.33301 -1.33301 -9 -2.5 -17 -3.5s-15.333 -4.16699 -22 -9.5c-16.667 -12 -25 -34.833 -25 -68.5s9.5 -71.667 28.5 -114s31.833 -84.5 38.5 -126.5
c8.66699 -35.333 13 -70.666 13 -105.999l-4 -73c0 -34 4.33301 -67.333 13 -100c2 0 10.167 12.333 24.5 37l48.5 82c44 74 71.667 118 83 132c18 32.667 36.667 64.167 56 94.5s35.666 63.5 48.999 99.5l8 16c4 30 13.5 61.333 28.5 94s22.5 69.167 22.5 109.5
s-3.33301 73.666 -10 99.999s-14.667 52.166 -24 77.499c-23.333 66.667 -35 114.834 -35 144.501s4 53.834 12 72.501s25.333 40.334 52 65.001h5c4 0 11 1.66699 21 5l64 -15c60 -42.667 99 -128.667 117 -258c5.33301 -34.667 8 -66.667 8 -96

<glyph glyph-name=".notdef" horiz-adv-x="2027" 
d="M899 1902l78.001 4.99609c24.667 0 48.834 -4.33301 72.501 -13s43.667 -13 60 -13s29.666 0.833008 39.999 2.5s19.166 6.83398 26.499 15.501c17.333 20.667 33.333 59.5 48 116.5s36.667 88.5 66 94.5h7c2.66699 0 12 -16.333 28 -49s29.167 -57.834 39.5 -75.501
s18.833 -33.5 25.5 -47.5c19.333 -40.667 29 -72 29 -94l-9 -78c0 -29.333 6.83301 -58.333 20.5 -87s20.5 -58 20.5 -88s-13 -56.333 -39 -79c0 -4.66699 4.5 -7 13.5 -7s13.5 -1.66699 13.5 -5h-37c-8 -3.33301 -15.333 -8.33301 -22 -15l110 -41c0 -2 0.333008 -3 1 -3
s1 -0.666992 1 -2l-2 -3l-3 3c-3.33301 0 -6.16602 0.833008 -8.49902 2.5s-4.5 0.833984 -6.5 -2.49902c-1.33301 0 -2.5 1.66699 -3.5 5s-2.83301 5 -5.5 5s-5 -1 -7 -3l-15 8h-5c-10 0 -21 3.5 -33 10.5s-23.167 10.5 -33.5 10.5s-18.833 -2.66699 -25.5 -8
c-5.33301 -6.66699 -8 -10.5 -8 -11.5s1 -1.5 3 -1.5l36 -20c-24.667 6.66699 -39.334 12.334 -44.001 17.001c-3.33301 -1.33301 -9 -2.5 -17 -3.5s-15.333 -4.16699 -22 -9.5c-16.667 -12 -25 -34.833 -25 -68.5s9.5 -71.667 28.5 -114s31.833 -84.5 38.5 -126.5
c8.66699 -35.333 13 -70.666 13 -105.999l-4 -73c0 -34 4.33301 -67.333 13 -100c2 0 10.167 12.333 24.5 37l48.5 82c44 74 71.667 118 83 132c18 32.667 36.667 64.167 56 94.5s35.666 63.5 48.999 99.5l8 16c4 30 13.5 61.333 28.5 94s22.5 69.167 22.5 109.5
s-3.33301 73.666 -10 99.999s-14.667 52.166 -24 77.499c-23.333 66.667 -35 114.834 -35 144.501s4 53.834 12 72.501s25.333 40.334 52 65.001h5c4 0 11 1.66699 21 5l64 -15c60 -42.667 99 -128.667 117 -258c5.33301 -34.667 8 -66.667 8 -96
c0 -160.667 -65.333 -336.667 -196 -528c0 -1.33301 -2.66699 -3 -8 -5l-43 -57l-53 -70c-40 -56.667 -60 -92.667 -60 -108c-48 -68 -72 -124 -72 -168c1.33301 -2 3.83301 -3 7.5 -3s7.16699 1.33301 10.5 4s9.33301 4 18 4c44 16.667 84.333 25 121 25
s64.667 -9.33301 84 -28l41 -51c36 -70 54 -127.667 54 -173s-16.333 -82 -49 -110s-70 -51 -112 -69s-82.5 -31.833 -121.5 -41.5s-64.5 -16.167 -76.5 -19.5c-29.333 -1.33301 -60.166 -5.83301 -92.499 -13.5s-57.833 -13.5 -76.5 -17.5
c-4.66699 -10 -6.66699 -21.5 -6 -34.5s-8.33301 -21.167 -27 -24.5l-13 3c-14 -13.333 -37 -20 -69 -20l-31 7l-7 -2h-3l-36 20l-13 26h-43l-18 -46c-7.33301 -3.33301 -14 -5 -20 -5s-15.667 1.66699 -29 5l-5 -18c-3.33301 -3.33301 -6.66602 -5 -9.99902 -5
s-7.66602 -1.66699 -12.999 -5l-35 25l-3 -5h-4v5c-3.33301 -1.33301 -5.33301 -2.83301 -6 -4.5s-1.83398 -3.33398 -3.50098 -5.00098s-2.5 -3.5 -2.5 -5.5h-5c-20 12 -30 35 -30 69c-10.667 5.33301 -23 7.5 -37 6.5s-26.667 0.166992 -38 3.5l-56 8
c-30.667 0 -64.834 5.5 -102.501 16.5s-58.167 18.167 -61.5 21.5c-76.667 19.333 -133.834 36.5 -171.501 51.5s-68.5 22.5 -92.5 22.5h-59l-17 6l-75 -13c22.667 -23.333 34.834 -44.5 36.501 -63.5s-0.833008 -34.5 -7.5 -46.5l-52 -23c-6 -10 -10 -15 -12 -15
c0 -2.66699 -6.33301 -9.66699 -19 -21l-30 -5l-7 7l-49 22c-6 0 -9 -5.66699 -9 -17v-5c0 -1.33301 1.33301 -2 4 -2l59 -28c3.33301 -7.33301 5 -13.833 5 -19.5s-6.33301 -14.5 -19 -26.5c-2 0 -8 -1.66699 -18 -5h-12l-24 10l-25 28l-15 -13
c0 -8 4.16699 -13.667 12.5 -17s17.666 -7.33301 27.999 -12s19.666 -9.5 27.999 -14.5s12.5 -11.667 12.5 -20s-1.66699 -15.833 -5 -22.5v-6c10 -6.66699 21.167 -10.834 33.5 -12.501s18.5 -11.5 18.5 -29.5s-4.16699 -29.5 -12.5 -34.5s-18.833 -7.5 -31.5 -7.5l-54 5
l-5 -3c-1.33301 0 -2 -0.666992 -2 -2l51 -98l-5 -10c-14 0 -30.667 27 -50 81c-4 11.333 -6 19.5 -6 24.5s0.333008 8.66699 1 11s0.333984 4.5 -0.999023 6.5h-13c-1.33301 -2 -2 -6 -2 -12v-18c0 -6 0.666992 -13 2 -21l35 -57l-5 -10h-7
c-6.66699 16.667 -15.667 33.167 -27 49.5s-17 35.833 -17 58.5c4.66699 4.66699 7 8.66699 7 12s-6.16699 12.833 -18.5 28.5s-18.5 29.834 -18.5 42.501s6.66699 29 20 49c-3.33301 11.333 -5 24.166 -5 38.499s6.83301 26.166 20.5 35.499s21.334 18.333 23.001 27
s6.5 19.334 14.5 32.001l54 82l8 22l19 12h7l28 41l56 18h41l51 21l105 23c2 1.33301 3 3 3 5c-19.333 56.667 -29 105.334 -29 146.001s6.5 70.334 19.5 89.001s30.833 39.334 53.5 62.001l41 28l10 2l20 8h-3h3c1.33301 0 3.66602 0.666992 6.99902 2
c59.333 -8.66699 112.333 -29 159 -61c2.66699 0 9.66699 15 21 45c22.667 58 39.834 97.5 51.501 118.5s20.5 48.167 26.5 81.5s11.167 67.833 15.5 103.5l13 107.5c4.33301 36 13.833 71 28.5 105c3.33301 32.667 12.333 64.667 27 96s22 62.333 22 93l-2 24l-39 22
l-43 -12l-13 2c-18.667 -4.66699 -34.5 -12.667 -47.5 -24s-25 -17 -36 -17s-17.333 0.333008 -19 1s-3.5 1 -5.5 1l134 59l-39 31c-1.33301 0 -9.33301 -3.33301 -24 -10s-23 -10 -25 -10c5.33301 5.33301 20 13.666 44 24.999c-14.667 16 -28.5 32 -41.5 48
s-19.5 36 -19.5 60s5 46.167 15 66.5s15 42.833 15 67.5s-6 64.667 -18 120c0 27.333 11.333 63 34 107c41.333 78.667 65 118 71 118h13c4.66699 0 10.167 -8.16699 16.5 -24.5l21.5 -53.5c20 -52 34.667 -81.667 44 -89c14.667 -10 33.667 -15 57 -15zM872.001 1477
c0 -8.66699 16.6689 -12.998 50.002 -12.998c74.667 0 112 13.667 112 41c0 8 -8.66699 19 -26 33s-26.833 23.667 -28.5 29s-0.833984 11.333 2.49902 18v5c18 4.66699 44.667 7 80 7c28 -6.66699 43.667 -15.334 47 -26.001v-5l-57 -56v-15c2 -6.66699 5.33301 -10 10 -10
l28 -8l25 -9c7.33301 -2.66699 21.666 -4 42.999 -4s40.666 6 57.999 18l-124 20l-15 15c2 11.333 6.33301 17.666 13 18.999c1.33301 -1.33301 5.33301 -2 12 -2h16c5.33301 0 19.833 0.333008 43.5 1s55 -1 94 -5s77.833 -7 116.5 -9
c8.66699 13.333 18.667 25.666 30 36.999s17 24 17 38s-3.66699 28 -11 42s-15.333 28 -24 42c-23.333 34.667 -35 59.834 -35 75.501s5.16699 30.334 15.5 44.001s15.5 33 15.5 58s-8.16699 51.833 -24.5 80.5s-26.5 50.667 -30.5 66l-8.5 33
c-1.66699 6.66699 -3.83398 14.334 -6.50098 23.001c-8 22.667 -13 34 -15 34c-12.667 0 -22.167 -9.83301 -28.5 -29.5s-10.833 -33.334 -13.5 -41.001s-3.66699 -12.667 -3 -15s1 -8.5 1 -18.5v-73c0 -30.667 3.66699 -57.334 11 -80.001
c-1.33301 -3.33301 -3.66602 -6.66602 -6.99902 -9.99902c-14.667 17.333 -22 38.333 -22 63l1 35c0 18 -1 35 -3 51c-8 -27.333 -18.167 -54.5 -30.5 -81.5s-32.333 -40.5 -60 -40.5s-53.667 4.16699 -78 12.5s-48.166 12.5 -71.499 12.5l-80 -8
c-52.667 0 -90 21.333 -112 64c-3.33301 -2 -2.5 -10.167 2.5 -24.5s7.5 -40.5 7.5 -78.5c-8 -20.667 -15.667 -27.334 -23 -20.001v49c0 25.333 -2.66699 48 -8 68c-10.667 40 -16 67.667 -16 83c3.33301 0 6 1 8 3l-5 44c0 1.33301 -2.66699 4.66602 -8 9.99902l-7 -5l2 2
c-6.66699 0 -31.667 -61 -75 -183l-12 -34c0 -22.667 7.33301 -42.167 22 -58.5s22 -33 22 -50s-1.66699 -31 -5 -42s-7.33301 -20.833 -12 -29.5c-12 -20 -18 -35.667 -18 -47s2.5 -27.166 7.5 -47.499s11.5 -30.5 19.5 -30.5l18 2v-5l-15 -2l10 -27l13 -5l164 34l-134 -2
c0 1.33301 0.5 2.5 1.5 3.5s-0.166992 3.16699 -3.5 6.5l2 2l42 3c1.33301 1.33301 4.66602 2 9.99902 2h75c47.333 0 71 -5 71 -15c0 -1.33301 -1.66699 -2 -5 -2h7c6.66699 0 13.334 -1 20.001 -3c0 -8 -1.66699 -14.333 -5 -19h-10c-4.66699 -10 -7 -15.667 -7 -17h2
c-10 -10 -23.5 -15 -40.5 -15s-31.833 -2.66699 -44.5 -8zM-68.9971 -15.002h-5.00098c2 0 3 -8 3 -24l10 -7c4.66699 1.33301 10.334 5.33301 17.001 12zM-89.998 1.99805l-13.001 0.000976562c-3.33301 -3.33301 -5 -13.833 -5 -31.5s12.833 -33.834 38.5 -48.501
s52.834 -22 81.501 -22h13l14 12c0 16 -2.66699 25.667 -8 29l-24 8c-13.333 0 -23.333 0.666992 -30 2l-26 -7c0 -2 -0.333008 -3 -1 -3s-1 -0.833008 -1 -2.5s2.33301 -2.5 7 -2.5l31 5l20 -2l5 -10c0 -2 1 -3 3 -3c-6.66699 -7.33301 -15 -12 -25 -14
c-55.333 8 -83 29.667 -83 65c0 10 1.66699 17.667 5 23zM-68.999 94.999l-2 1.99902c-2 0 -6.16699 -4.33301 -12.5 -13s-9.5 -17 -9.5 -25c0 -28 10.333 -47.333 31 -58s34.5 -16 41.5 -16s10.5 2 10.5 6s-3.5 11.333 -10.5 22s-13.5 16 -19.5 16s-9 -2.33301 -9 -7l13 -7
l7 -15c0 -2 -3.33301 -2.16699 -10 -0.5s-16 7.83398 -28 18.501s-18 21.834 -18 33.501s3.16699 20.167 9.5 25.5s9.5 9.16602 9.5 11.499s-0.5 3.5 -1.5 3.5s-1.5 1 -1.5 3zM-2.99902 53.998l15.002 2l5 -2l5 15l-17 18l-28 8l30 -26l-2 -3l2 -2
c-1.33301 0 -2 -0.5 -2 -1.5s-0.833008 -1.5 -2.5 -1.5s-2.5 1.33301 -2.5 4s-1.66699 4 -5 4h-8c-10.667 1.33301 -21 19 -31 53l10 34l-10 -5l-10 -41c3.33301 -6.66699 5 -11 5 -13v-2l13 -16c1.33301 -5.33301 3.66602 -11.333 6.99902 -18l19 -2
c3.33301 -3.33301 5.66602 -5 6.99902 -5zM-9.99707 178.998h-3c0 -2 -0.333008 -3 -1 -3s-1 -2.5 -1 -7.5s7.66699 -13.5 23 -25.5s31.333 -18 48 -18c0 -2 -0.666992 -3 -2 -3v10l-42 22zM2.00293 209.998c-1.33301 -2 -2 -4.66797 -2 -8.00098
c6.66699 -15.333 16 -27.666 28 -36.999s21.333 -14 28 -14s11 1 13 3l-52 30zM95.0029 229.997v-8c1.33301 2 3 3 5 3c-5.33301 1.33301 -8 3 -8 5h3zM36.0029 253.997l-2 2.00098l-12 -5c-1.33301 -4.66699 -2 -12.334 -2 -23.001s3.16699 -19.334 9.5 -26.001
s23.833 -17 52.5 -31c6.66699 2 12.667 3 18 3l-36 18c-16.667 16.667 -25 37.334 -25 62.001h-3zM112.003 194.998c-4 0 -14.001 7.33105 -30.001 21.998h-6c-1.33301 0 -2 1 -2 3l-3 -3h3c-5.33301 6.66699 -8 17.334 -8 32.001s4.33301 26.334 13 35.001
s19.334 14.667 32.001 18s25.5 5.5 38.5 6.5s24.5 3.16699 34.5 6.5h8c5.33301 0 8 1.66699 8 5v2h-8c-14 -6.66699 -29.167 -10 -45.5 -10s-30.5 -0.666992 -42.5 -2c-30 -4.66699 -45 -26 -45 -64c0 -24 10.333 -42 31 -54l30 -11c14 3.33301 22 8 24 14
c0 23.333 -5.33301 41 -16 53s-19.667 18.833 -27 20.5s-11 0.5 -11 -3.5s4.16699 -9 12.5 -15s16.5 -16 24.5 -30c0 -3.33301 -3.33301 -11 -10 -23zM999.002 319.996l-8 -83c0 -20 5 -35 15 -45l41 5c10 41.333 15 70.333 15 87v34c0 4.66699 -2.33301 7 -7 7z
M310.002 344.996l-78 -8c-8 -3.33301 -12 -7.5 -12 -12.5s0.666992 -8.16699 2 -9.5l115 -3l-17 33h-10zM789.002 373.996h-5c-2 -2 -3 -3.66699 -3 -5c2 0 3 -0.5 3 -1.5s0.666992 -1.5 2 -1.5v3c2 1.33301 3 3 3 5zM752.002 375.996c-2 5.33301 -6 9.66797 -12 13.001
c-3.33301 -6.66699 -5 -10.334 -5 -11.001c0 -2.66699 2.5 -4 7.5 -4s8.16699 0.666992 9.5 2zM1287 404.998c-11.333 -2 -17.001 -7.33301 -17.001 -16h5c4.66699 0 11.334 4.33301 20.001 13c-5.33301 0 -8 1 -8 3zM669.001 583.998c-8 -8.66699 -13.667 -13 -17 -13h-10
c-3.33301 0 -5 -0.666992 -5 -2l64 -19zM1727 585.998l-1.99902 -35.998c-72.667 -24 -134.834 -41 -186.501 -51l-87.5 -17c-14.667 -4 -29.334 -6 -44.001 -6s-24.667 1 -30 3c-1.33301 -2 -2 -3.66699 -2 -5l35 -75c-2 -3.33301 -4.66699 -5 -8 -5
c-2.66699 0 -6.16699 3.5 -10.5 10.5s-7.5 10.5 -9.5 10.5c-47.333 -34.667 -89.666 -53.334 -126.999 -56.001c-10.667 -21.333 -16.5 -43 -17.5 -65s-2.16699 -43.333 -3.5 -64c1.33301 -8.66699 7 -14.667 17 -18c191.333 37.333 305 65.5 341 84.5s61.333 38.667 76 59
l57 79.5c10.667 27.333 16 53.666 16 78.999s-4.66699 49.333 -14 72zM652.002 596c-1.33301 0 -4.66699 2.66699 -10 8c-4.66699 -10 -7 -16 -7 -18h5c6.66699 2 10.667 5.33301 12 10zM351.001 606l-6.00098 -0.000976562c-10 -34 -15 -60.333 -15 -79
s1.16699 -40 3.5 -64s5.83301 -48.333 10.5 -73c11.333 -60 21.333 -90 30 -90c192.667 -66.667 338.334 -100 437.001 -100c16 0 28 0.666992 36 2c0 73.333 -9.33301 119.333 -28 138c-6.66699 -3.33301 -15 -5 -25 -5h-52c-28.667 0 -46.334 -5 -53.001 -15
s-14.667 -19.667 -24 -29c-12 4 -18 5.66699 -18 5v4l72 147c-33.333 12.667 -64.166 22.834 -92.499 30.501s-56.5 16.167 -84.5 25.5c-63.333 20.667 -127 55 -191 103zM599 583.999c9.33301 -6.66699 15.666 -10 18.999 -10c4.66699 0 7 5 7 15l-10 15l7 16h3
c-2 1.33301 -3.33301 2 -4 2s-2 1 -4 3c-4 -2 -8.33301 -8.33301 -13 -19l2 -12v-5c-3.33301 -8.66699 -5.66602 -13 -6.99902 -13v8zM1526 636.999l-14 -7c-3.33301 0 -5 1.16699 -5 3.5s-0.666992 3.5 -2 3.5c-5.33301 -4.66699 -8 -8.66699 -8 -12s1.66699 -5 5 -5l32 12
l-5 3c-2 0 -3 0.666992 -3 2zM1464 651.999l-24.999 -12l-64 -46c3.33301 -3.33301 8.66602 -5 15.999 -5s22.333 2.83301 45 8.5s39.667 13.167 51 22.5l-7 7l-10 -5l-11 13l11 17h-6zM550.001 614.999c0 4 3.66699 9 11 15v10c0 11.333 0.833008 17 2.5 17
s2.5 -0.666992 2.5 -2l-11 5c-2.66699 -7.33301 -8.66699 -13.333 -18 -18l3 -12l-13 -13l62 -31l-5 10c0 8.66699 0.833008 12.5 2.5 11.5s4.16699 0.166992 7.5 3.5v29h-8c0 -8.66699 -4 -13 -12 -13v-18l-10 -5c-9.33301 3.33301 -14 7 -14 11zM1661 664.999
l-20.001 -12.9951c-11.333 -2 -23.333 -6 -36 -12c-30.667 -16.667 -62.334 -30.334 -95.001 -41.001c-20 -3.33301 -41.333 -8.33301 -64 -15s-43 -11.667 -61 -15c-3.33301 1.33301 -7.16602 1.16602 -11.499 -0.500977s-6.5 -3.16699 -6.5 -4.5v-37
c0 -15.333 3.33301 -24.333 10 -27s20.667 -4 42 -4s51.666 5.66699 90.999 17s69.833 22.666 91.5 33.999s41.334 20.666 59.001 27.999s33.167 17.666 46.5 30.999v9c-11.333 20 -26.666 36.667 -45.999 50zM525 676.004l-5 3l-3 -14l-13 -8
c-2 -10 -4.66699 -16.667 -8 -20l11 -10c0 -4.66699 1 -7 3 -7c0 1.33301 0.666992 3 2 5l18 49c0 1.33301 -1.66699 2 -5 2zM410 679.004l-39 -29.002l-7 -13c-3.33301 -3.33301 -5 -5.66602 -5 -6.99902l51 -44c13.333 -3.33301 29.833 -10.166 49.5 -20.499l68.5 -34.5
c66 -32.667 130.667 -51.667 194 -57l5 22c0 2 1 3.66699 3 5c0 7.33301 -3.66699 15.333 -11 24l-50 7l-17 10c-34 5.33301 -61.667 15.333 -83 30s-40.333 23.667 -57 27c-17.333 10.667 -34.5 20.167 -51.5 28.5s-31.5 19.833 -43.5 34.5l-2 14c-2 2 -3.66699 3 -5 3z
M469 681.002h10c1.33301 0 2.33301 -1.66699 3 -5c2.66699 -7.33301 -1 -11 -11 -11c-4.66699 0 -7 3 -7 9zM1544 640.002l11.999 -3.00195c14 6.66699 29.667 13.667 47 21s31 16 41 26h-57l-43 -3c-3.33301 -10.667 -6.66602 -16 -9.99902 -16
c1.33301 -4.66699 2 -7.5 2 -8.5s-0.666992 -1.5 -2 -1.5l10 14c0 1.33301 0.666992 2 2 2h8c1.33301 -4 2 -8.16699 2 -12.5s-2 -8.16602 -6 -11.499s-6 -6.66602 -6 -9.99902v3zM479.999 645c-0.666992 0 -1 3.33203 -1 9.99902s5 17 15 31c1.33301 0 3 -0.666992 5 -2
l-52 10c-8 -3.33301 -12.5 -5.5 -13.5 -6.5s-1.5 -3.16699 -1.5 -6.5s1.66699 -6.66602 5 -9.99902l29 -21l13 -8h2c0 2 -0.333008 3 -1 3zM1339 803.999l-72 -382.003h42l12 8l35 5c0 10 -3.66699 19 -11 27s-11 24.167 -11 48.5s2 44.333 6 60s9.16699 27.834 15.5 36.501
s14 15.834 23 21.501s18.5 12.834 28.5 21.501l-15 41zM718.999 836.996l-4.99902 0.000976562c-16.667 -18 -32 -42.667 -46 -74c-22 -49.333 -33 -82.666 -33 -99.999s6.5 -31.5 19.5 -42.5s26.833 -23.833 41.5 -38.5c40.667 -38 61 -71.667 61 -101
s-3.33301 -53 -10 -71c2 -7.33301 6.33301 -11 13 -11l56 -3c-10.667 30.667 -18.334 64 -23.001 100c-8 63.333 -19.667 112.166 -35 146.499s-28.333 99.166 -39 194.499zM1106 583.997l3.00098 -210.008c0 -41.333 -3.16699 -72.166 -9.5 -92.499
s-11.166 -43.5 -14.499 -69.5c7.33301 -16.667 9.5 -31.334 6.5 -44.001s2.83301 -26.334 17.5 -41.001h5l2 32l10 5l10 -18h5c4 3.33301 6 8.83301 6 16.5s-4.33301 21.834 -13 42.501c0 1.33301 1.66699 3.66602 5 6.99902c8.66699 0 15.5 -6.83301 20.5 -20.5
s7.5 -24.167 7.5 -31.5s-2.5 -14.666 -7.5 -21.999s-7.5 -13.333 -7.5 -18l20 2c3.33301 3.33301 5 6.66602 5 9.99902v7l-2 -3l10 5c1.33301 -1.33301 4.66602 -2 9.99902 -2c9.33301 8 14 18 14 30s-4.5 19.667 -13.5 23s-13.5 6.66602 -13.5 9.99902v10
c0 3.33301 2.66699 4 8 2c11.333 -3.33301 18.333 -6.33301 21 -9l18 -46l10 -3c3.33301 6.66699 5 13 5 19s-4.33301 16 -13 30l-34 12c-4.66699 16 -7 33.667 -7 53c0 28.667 11.333 74.334 34 137.001c50.667 181.333 76 348.166 76 500.499s-13.333 289.5 -40 411.5
c-7.33301 14.667 -11 47 -11 97c-15.333 -16 -80 -37.667 -194 -65c-14 3.33301 -26.833 5 -38.5 5s-24.834 3 -39.501 9c-24.667 1.33301 -49.167 7 -73.5 17s-45.5 18.333 -63.5 25v-17c0 -24 -10.333 -61.667 -31 -113c-31.333 -91.333 -47 -178.666 -47 -261.999
c0 -106.667 14.667 -244.667 44 -414c20.667 -71.333 34 -140.166 40 -206.499s14 -133.833 24 -202.5c-2 -5.33301 -5.5 -9.66602 -10.5 -12.999s-8.16699 -6.66602 -9.5 -9.99902l-3 -20c0 -2 1.66699 -3 5 -3v3h3c1.33301 1.33301 3 2 5 2
c3.33301 -3.33301 5.66602 -6.66602 6.99902 -9.99902l-5 -19h8l19 68l10 5c3.33301 -3.33301 5.83301 -4.66602 7.5 -3.99902s2.5 -1.66602 2.5 -6.99902l-10 -52c0 -11.333 1.66699 -18.666 5 -21.999c0 10 1.66699 15 5 15c6.66699 -3.33301 10.334 -7.5 11.001 -12.5
s2.66699 -7.5 6 -7.5s7 1.66699 11 5c-1.33301 8 -4.66602 16.5 -9.99902 25.5s-8 18 -8 27s2.33301 13.5 7 13.5c3.33301 0 8.5 -9 15.5 -27s14.833 -28.667 23.5 -32l7 3v-3l-7 34c1.33301 2 3.66602 3 6.99902 3c0 -2 4.33301 -7 13 -15c2.66699 0 4 -1.16699 4 -3.5
s0.666992 -3.5 2 -3.5v7h-2l7 30c0 6.66699 -4.66699 14.334 -14 23.001h-2c-2 0 -3.66699 1 -5 3l-15 12c-3.33301 8.66699 -5 17.667 -5 27v27c0 44 5.66699 91.667 17 143s17 103 17 155s-2.33301 102 -7 150s-8.66699 94 -12 138c0 8.66699 3.5 13 10.5 13
s13.833 -11.5 20.5 -34.5s12.334 -49.833 17.001 -80.5c8.66699 -64 13 -123 13 -177s-10 -126.333 -30 -217c10 -4 20.167 -6 30.5 -6s22.166 4.66699 35.499 14l3 37c3.33301 43.333 5 75 5 95l-3 146c0 51.333 7 101.666 21 150.999s23.333 74 28 74
c3.33301 -3.33301 5 -9.16602 5 -17.499s-2.33301 -20.166 -7 -35.499c-8.66699 -62 -13 -137 -13 -225zM1039 1466.99c-13.333 -5.33301 -21.667 -9.66699 -25 -13l38 5l-10 8h-3zM980 1440.99c-8.66699 -3.33301 -25.3311 -5.00098 -49.998 -5.00098
s-57.334 11.333 -98.001 34l-36 -3c-1.33301 -5.33301 -2 -9.33301 -2 -12s11 -8.16699 33 -16.5s47.667 -16.5 77 -24.5c70 -19.333 114.167 -29.166 132.5 -29.499s36 -0.5 53 -0.5s42.333 7.5 76 22.5s58.834 27.5 75.501 37.5l34 20c-3.33301 2 -6.33301 2.5 -9 1.5
s-5.66699 0.5 -9 4.5c-22 -4 -42.833 -10.667 -62.5 -20s-39.834 -14 -60.501 -14l-44 10c-8.66699 0 -18.334 -3.33301 -29.001 -10s-23.667 -10 -39 -10s-29.333 5 -42 15zM1472 1496.99l82 -12l-87 7l-6 10zM899.003 1516.99c-12 -3.33301 -27 -5.83301 -45 -7.5
s-35 -3.5 -51 -5.5c-42 -4 -64 -8.66699 -66 -14l18 -15l10 -3l156 43zM732.003 1548.99l15 -3v-5l-20 5zM1036 1579.99l-34.999 -5l-2 -4c0 -1.33301 0.666992 -2 2 -2l33 -10c1.33301 0 2 0.333008 2 1s1 1 3 1s3 -0.333008 3 -1s1 -1 3 -1l10 -23
c3.33301 13.333 6.16602 21.333 8.49902 24s6.83301 4 13.5 4h5c0 1.33301 0.5 2 1.5 2s1.5 1 1.5 3v2zM960.004 1601.99c-20.667 -8 -34.332 -12 -40.999 -12c-28 0 -52.667 10.667 -74 32l-24 39l-2 5l-20 8c-2 0 -3 1.66699 -3 5v3c0 2 1 3.66699 3 5l76 5h21
c11.333 0 29 -7.66699 53 -23s36 -32.333 36 -51s-2.16699 -28 -6.5 -28s-7.33301 2 -9 6s-4.83398 6 -9.50098 6zM904.006 1748.99l10 63l5 -51l2 -2l3 2l33 76h3l-34 -112h-15c-1.33301 0 -2 0.666992 -2 2l-3 3l-12 -3c-2 0 -3.66699 1 -5 3l-17 100
c10 -15.333 16.333 -29.333 19 -42c6.66699 -26 11 -39 13 -39zM1204.01 1701.99l32 -2c10 0 22 2.33301 36 7l10 -2v-10c0 -3.33301 -3.33301 -6 -10 -8c-27.333 -61.333 -58 -92 -92 -92c-4 0 -20.333 3.33301 -49 10c-3.33301 0 -5 -3 -5 -9s-1.66699 -9 -5 -9
c-10 0 -15 8.16699 -15 24.5s9.33301 33.5 28 51.5s42 31 70 39zM1236.01 1794.99l-17 -54c-3.33301 -1.33301 -6 -2 -8 -2c-1.33301 0 -2 -1 -2 -3l25 59h2zM1190.01 1804.99v-64c-3.33301 -1.33301 -6.33301 -2 -9 -2s-4 -1 -4 -3v-4l5 4c0 -2.66699 -1.66699 0 -5 8
l10 61h3zM1155.01 1809.99l15 -78c0 -3.33301 -2.66699 -5 -8 -5c-6.66699 14.667 -10 29 -10 43v40h3zM899.006 1614.99l-3 16c0 13.333 3.33301 23.333 10 30l-54 5h-2v-2c0 -10 7.33301 -23 22 -39zM1707.01 1963.99c-24 -8.66699 -40.1699 -19.499 -48.5029 -32.499
s-12.5 -27.5 -12.5 -43.5s2.66699 -31.667 8 -47c44 -86 66 -165.667 66 -239s-8.5 -137.166 -25.5 -191.499s-38.5 -106.833 -64.5 -157.5c-34 -64.667 -92.667 -155 -176 -271c-13.333 -26.667 -28.666 -52.5 -45.999 -77.5s-29.333 -54.5 -36 -88.5
c2 -4.66699 5.5 -14.334 10.5 -29.001s10.833 -29.667 17.5 -45c16.667 -38.667 28 -58 34 -58l2 2c5.33301 36 16.5 67.5 33.5 94.5s32.167 56.833 45.5 89.5l66.5 117c23.667 42 55.334 92.333 95.001 151s76.334 129.5 110.001 212.5s50.5 180.833 50.5 293.5
c0 143.333 -27.667 242.666 -83 297.999c-2 2 -3 4.33301 -3 7c0 -2.66699 1 -5 3 -7c-14.667 14.667 -28.667 22 -42 22h-5zM914.003 1606.99l12.001 -2.00098c7.33301 0 17.666 3.33301 30.999 10c-3.33301 4.66699 -14.333 18.334 -33 41.001h-3
c2 -3.33301 3 -7.33301 3 -12zM1165 1609.99l10 2.00195h5c-6.66699 12.667 -10 23.667 -10 33s0.666992 15.666 2 18.999c-20.667 -10.667 -31 -25.334 -31 -44.001v-3zM1209 1681.99c-3.33301 -4 -6.83398 -6.00098 -10.501 -6.00098s-8.16699 -1.66699 -13.5 -5
c0 -3.33301 2.33301 -5.66602 7 -6.99902l5 -49c24.667 16.667 40.334 39 47.001 67h-35zM1239 1494.99l56 -19.999c10.667 1.33301 16 4.66602 16 9.99902zM1287 1509.99l49 -14.999l3 2c1.33301 0 2 0.5 2 1.5s1 1.5 3 1.5c0 3.33301 -1 5.66602 -3 6.99902z" />
    <glyph glyph-name="space" unicode=" " horiz-adv-x="500" 
 />
    <glyph glyph-name="exclam" unicode="!" horiz-adv-x="454" 
d="M230 442l206 -205l-206 -206l-206 206zM12 1347l342 290.001l-32 -1000l-180 -161c0 186.667 -6.16699 360.667 -18.5 522s-49.5 277.666 -111.5 348.999z" />
    <glyph glyph-name="quotedbl" unicode="&#x22;" horiz-adv-x="582" 
d="M250 889c61.333 104 92.001 202.333 92.001 295c0 46.667 -7.66699 95.667 -23 147l245 159c-20.667 -214.667 -107.334 -418 -260.001 -610zM17.001 934c61.333 107.333 91.999 205.333 91.999 294c0 47.333 -8.33301 96.666 -25 147.999l246 158
c-12 -123.333 -42.167 -234.666 -90.5 -333.999s-105.166 -191.333 -170.499 -276z" />
    <glyph glyph-name="numbersign" unicode="#" horiz-adv-x="1106" 
d="M725 444l-45 -366h-115l45 366h-180l-43 -366h-115l45 366h-194l16 129h193l22 201h-190l16 131h191l41 334h112l-41 -334h183l39 334h114l-41 -334h203l-12 -131h-207l-23 -201h205l-16 -129h-203zM649 774h-180l-23 -201h179z" />
    <glyph glyph-name="dollar" unicode="$" horiz-adv-x="928" 
d="M668 1010c-50.667 87.333 -112.332 131 -184.999 131c-11.333 0 -27.5 -2.5 -48.5 -7.5s-42.667 -17 -65 -36s-33.5 -45.5 -33.5 -79.5s10.167 -61.667 30.5 -83s38.333 -36.833 54 -46.5l37 -22.5l23.5 -14l187 -119c60 -36.667 109 -82.334 147 -137.001
s57 -118.667 57 -192c0 -144 -45 -256 -135 -336c-34.667 -33.333 -83 -58 -145 -74l-12.5 -4l-12.5 -4v-164h-143v162c-86 13.333 -157.667 42.833 -215 88.5s-109.333 111.5 -156 197.5l183 129c31.333 -57.333 65.666 -101 102.999 -131s86 -45 146 -45
c46.667 0 86.334 13.333 119.001 40s49 58.834 49 96.501s-9.16699 66.334 -27.5 86.001s-34 33.667 -47 42l-22.5 14.5c-2 1.33301 -4.33301 2.66602 -7 3.99902l-176 102c-71.333 42.667 -131.833 93.667 -181.5 153s-74.5 140.333 -74.5 243c0 68 16.333 131.333 49 190
s74.334 103.667 125.001 135c30.667 20.667 75 37.667 133 51v158h143v-158c61.333 -21.333 115.666 -50.5 162.999 -87.5s86.666 -89.5 117.999 -157.5z" />
    <glyph glyph-name="percent" unicode="%" horiz-adv-x="1581" 
d="M309 1333c18.667 17.333 39.333 25.998 62 25.998s47.667 -11.667 75 -35c167.333 -147.333 251 -291.666 251 -432.999c0 -152 -85.333 -305.667 -256 -461c-28.667 -25.333 -56 -38 -82 -38s-51.333 12.667 -76 38c-146.667 150.667 -220 301.334 -220 452.001
s82 301 246 451zM222.999 1129c-29.333 -19.333 -44 -52.832 -44 -100.499s25 -116.834 75 -207.501c66.667 -121.333 127.667 -182 183 -182c16 0 31.667 5 47 15c30.667 20 46 54 46 102s-24.333 116.667 -73 206c-67.333 122 -129.333 183 -186 183
c-16 0 -32 -5.33301 -48 -16zM361.999 -70.001c-13.333 0 -20.001 7.00098 -20.001 21.001c0 3.33301 0.666992 6.66602 2 9.99902l749 1454c2.66699 6.66699 8.33398 10 17.001 10h71c8.66699 0 15 -3.16699 19 -9.5s4 -12.5 0 -18.5l-746 -1456
c-2.66699 -7.33301 -8 -11 -16 -11h-76zM1118 942c18.667 17.333 39.333 25.998 62 25.998s47.667 -11.667 75 -35c167.333 -147.333 251 -291.666 251 -432.999c0 -152 -85.333 -305.667 -256 -461c-28 -24.667 -55.333 -37 -82 -37s-52 12.333 -76 37
c-146.667 150.667 -220 301.334 -220 452.001s82 301 246 451zM1032 737.998c-29.333 -19.333 -44 -52.832 -44 -100.499s25 -116.834 75 -207.501c66.667 -121.333 127.667 -182 183 -182c16 0 31.667 5 47 15c30.667 20 46 54 46 102s-24.333 116.667 -73 206
c-67.333 122 -129.333 183 -186 183c-16 0 -32 -5.33301 -48 -16z" />
    <glyph glyph-name="ampersand" unicode="&#x26;" horiz-adv-x="1065" 
d="M725 434c32 64 57.333 136.999 76 218.999l186 -49c-20 -104 -55.333 -207 -106 -309c54.667 -34 112 -53.667 172 -59l-13 -242c-84.667 5.33301 -158.334 25 -221.001 59c-23.333 12.667 -50 28.334 -80 47.001c-90.667 -78.667 -187.667 -118 -291 -118
s-194.333 33.333 -273 100s-118 161.667 -118 285c0 104.667 43.667 201.667 131 291c24 25.333 48.667 49 74 71c-48 106 -74 195.333 -78 268v7c1.33301 94 27.333 177.333 78 250c54.667 78.667 122.334 118 203.001 118s149 -29.333 205 -88
c57.333 -60 86 -136.333 86 -229c0 -142 -70.333 -271.667 -211 -389c66 -100.667 126 -178 180 -232zM584 241.999c-72 82.667 -148.667 181 -230 295c-46 -41.333 -69 -90 -69 -146c0 -53.333 19 -100 57 -140c36 -38.667 77 -58 123 -58c37.333 0 77 16.333 119 49z
M446 851.999c42 27.333 70.3311 51.668 84.998 73.001c25.333 39.333 38 84.666 38 135.999c0 52 -17.667 89.667 -53 113c-11.333 6.66699 -24.166 10 -38.499 10s-27.5 -3.83301 -39.5 -11.5s-22.333 -17.5 -31 -29.5c-17.333 -24 -26.666 -52.667 -27.999 -86v-6
c0 -60.667 22.333 -127 67 -199z" />
    <glyph glyph-name="quotesingle" unicode="'" horiz-adv-x="346" 
d="M7 1512l248 164.999c14.667 -65.333 22 -129.666 22 -192.999c0 -170 -53.333 -333.333 -160 -490c7.33301 63.333 11 120.5 11 171.5s-2.33301 97.167 -7 138.5c-10.667 92 -48.667 161.333 -114 208z" />
    <glyph glyph-name="parenleft" unicode="(" horiz-adv-x="562" 
d="M20 1296l490 323l40 -57c-85.333 -64 -149.333 -188.667 -192 -374c-47.333 -205.333 -71 -406 -71 -602s16.5 -367.333 49.5 -514s85.833 -221 158.5 -223c-37.333 -112.667 -83.333 -169 -138 -169c-22.667 0 -46.667 10 -72 30
c-86.667 66.667 -153.334 223 -200.001 469c-25.333 128.667 -40.666 287.167 -45.999 475.5z" />
    <glyph glyph-name="parenright" unicode=")" horiz-adv-x="610" 
d="M16 1367l233.999 269.999c152.667 -37.333 247.5 -134.666 284.5 -291.999s55.5 -313.333 55.5 -468c0 -176 -26.333 -375 -79 -597s-172.667 -444 -360 -666l-74 66c144.667 188 227.334 369.333 248.001 544c13.333 112.667 20 209.167 20 289.5
s-3.5 164.333 -10.5 252s-19.667 202.667 -38 345s-111.833 227.833 -280.5 256.5z" />
    <glyph glyph-name="asterisk" unicode="*" horiz-adv-x="1099" 
d="M9 614l259.999 283.001l235 -217l-257 -256c-65.333 55.333 -144.666 118.666 -237.999 189.999zM308.999 940.001l305 332c8.66699 -51.333 30.167 -102 64.5 -152s73.833 -99.667 118.5 -149l-251 -250zM838.999 929.001l129.5 -137.001
c44.333 -45.333 83.833 -90.666 118.5 -135.999l-210 -240l-288 265zM538.999 37c0 85.333 -82.667 201.333 -248 348l256 255l292 -268l-300 -341v6z" />
    <glyph glyph-name="plus" unicode="+" horiz-adv-x="1275" 
d="M311 861c2 -60 19 -90 51 -90h7h117v116c0.666992 2.66699 1 5.66699 1 9c0 29.333 -30.333 46 -91 50l396 348l-5 -523h480l-310 -424c0.666992 8.66699 1 16.667 1 24c0 65.333 -25.333 98 -76 98h-3h-94v-94v-8c0 -48.667 32 -73 96 -73
c7.33301 0 15.333 0.333008 24 1l-426 -309l5 483h-477z" />
    <glyph glyph-name="comma" unicode="," horiz-adv-x="502" 
d="M234 545l266 -405l-485 -650z" />
    <glyph glyph-name="hyphen" unicode="-" horiz-adv-x="850" 
d="M840 831l-215.001 -371c-44 0.666992 -98.667 1 -164 1s-138.666 -1.66699 -219.999 -5c-119.333 -6 -191.333 -32.333 -216 -79l90 225l90 224c6 -53.333 33 -80 81 -80h4l379 10c56.667 2 113.667 27 171 75z" />
    <glyph glyph-name="period" unicode="." horiz-adv-x="505" 
d="M252 511l240 -240l-240 -240l-240 240z" />
    <glyph glyph-name="slash" unicode="/" horiz-adv-x="1400" 
d="M2 22l114 502.001c300.667 51.333 711.667 390.666 1233 1018l48 -22c-358.667 -578 -823.667 -1077.33 -1395 -1498z" />
    <glyph glyph-name="zero" unicode="0" horiz-adv-x="1035" 
d="M409 1454c28.667 26.667 60.167 40.001 94.5 40.001s71.833 -17.667 112.5 -53c254 -223.333 381 -442 381 -656c0 -230.667 -129.333 -463.334 -388 -698.001c-43.333 -38 -85 -57 -125 -57s-78.333 19 -115 57c-222 228 -333 456 -333 684s124.333 455.667 373 683z
M279 1146c-44.667 -29.333 -67.001 -80 -67.001 -152s38 -177 114 -315c100.667 -184 193 -276 277 -276c24.667 0 48.334 7.66699 71.001 23c46.667 30 70 81.333 70 154s-36.667 176.667 -110 312c-102 184.667 -196 277 -282 277c-24.667 0 -49 -7.66699 -73 -23z" />
    <glyph glyph-name="one" unicode="1" horiz-adv-x="736" 
d="M700 1500l-13 -1381c-144.667 -4.66699 -306.667 -50.334 -486 -137.001l-59 82c105.333 10 178 108.333 218 295c24.667 114 37 236.667 37 368s-5 257 -15 377l-366 3l-15 83c258.667 50.667 491.667 154 699 310z" />
    <glyph glyph-name="two" unicode="2" horiz-adv-x="1096" 
d="M1012 472l-77.001 -441.001c-141.333 20.667 -279.666 31 -414.999 31c-157.333 0 -324 -10.333 -500 -31l243 234c79.333 79.333 156.666 168 231.999 266c106.667 140 160 257.667 160 353c0 101.333 -74.333 193 -223 275c-21.333 11.333 -39.5 17 -54.5 17
s-28.5 -4.16699 -40.5 -12.5s-18 -20.166 -18 -35.499s3.66699 -31.333 11 -48c18 -42.667 46.5 -77.334 85.5 -104.001s77.167 -50.667 114.5 -72l-102.5 -142.5l-101.5 -140.5c-154.667 135.333 -232 244.833 -232 328.5s56.667 184.834 170 303.501s207 178 281 178
c76 0 167.167 -49.333 273.5 -148s159.5 -196 159.5 -292c0 -54.667 -18.333 -108 -55 -160c-101.333 -142.667 -233.666 -299 -396.999 -469l181 -1c30 0 60 0.333008 90 1c83.333 1.33301 142.333 47.333 177 138z" />
    <glyph glyph-name="three" unicode="3" horiz-adv-x="1027" 
d="M715 982c178 -158 266.999 -312.333 266.999 -463c0 -126.667 -61.667 -239.334 -185 -338.001c-139.333 -109.333 -265.666 -164 -378.999 -164c-28.667 0 -56.667 3.66699 -84 11c-133.333 34.667 -238 132.667 -314 294l132.5 145.5l133.5 146.5
c30 -192.667 82 -324 156 -394c32.667 -31.333 69 -47 109 -47s83.333 24.5 130 73.5s70 95.833 70 140.5s-18 88.334 -54 131.001c-76.667 88.667 -196.667 165 -360 229l289 353c-81.333 10.667 -148 16 -200 16s-94.333 -2.66699 -127 -8
c-82 -11.333 -122.667 -52 -122 -122l-34 16l-33 15l64.5 239l65.5 240c104.667 -82.667 224.5 -126.167 359.5 -130.5s271.5 -7.83301 409.5 -10.5z" />
    <glyph glyph-name="four" unicode="4" horiz-adv-x="984" 
d="M521 650v74.001c0 38.667 -4.66699 109 -14 211l310 342c-17.333 -236.667 -27.666 -440 -30.999 -610c55.333 5.33301 114 13.666 176 24.999l-7 -302l-166 2c4.66699 -121.333 14 -220.333 28 -297c-117.333 -11.333 -266.333 -41.333 -447 -90
c61.333 116.667 104.333 247.334 129 392.001l-490 8l451 1060l389 12c-248 -254.667 -440.667 -528.334 -578 -821.001c69.333 -4.66699 123.666 -7 162.999 -7s68.333 0.333008 87 1z" />
    <glyph glyph-name="five" unicode="5" horiz-adv-x="986" 
d="M134 762c96.667 263.333 147.332 502.997 151.999 718.997c143.333 -34 336 -51 578 -51l-82 -138.5l-80 -136.5c-20.667 -1.33301 -55.167 -2 -103.5 -2s-131.166 11 -248.499 33c-2.66699 -69.333 -4 -104.666 -4 -105.999c292 -44 469.333 -144.667 532 -302
c16 -39.333 24 -80.666 24 -123.999c0 -128 -70.333 -272.333 -211 -433c-116 -131.333 -226 -197 -330 -197c-15.333 0 -30.333 1.33301 -45 4c-117.333 22.667 -216 83 -296 181c29.333 152.667 53 270.334 71 353.001c96 -116.667 197 -207.667 303 -273
c40 -24.667 75.667 -37 107 -37c51.333 0 90.666 31.833 117.999 95.5s41 119.167 41 166.5c0 78.667 -36.333 138 -109 178c-91.333 50.667 -196 76 -314 76c-33.333 0 -67.666 -2 -102.999 -6z" />
    <glyph glyph-name="six" unicode="6" horiz-adv-x="954" 
d="M467 1527l227.999 -116.999c-147.333 -42.667 -250.666 -115.167 -309.999 -217.5s-90.333 -211.166 -93 -326.499l280 218c142.667 -94.667 239.667 -199 291 -313c22 -49.333 33 -105.333 33 -168s-17.5 -131.334 -52.5 -206.001s-82 -136.834 -141 -186.501
s-115.833 -90.167 -170.5 -121.5c-55.333 -32 -86.833 -48 -94.5 -48s-28.5 12.667 -62.5 38c-217.333 150.667 -326 334.667 -326 552c0 256 139.333 554.667 418 896zM377.499 469.001c41.667 -68 83.832 -114.999 126.499 -140.999s83 -39 121 -39s57 11 57 33
c-1.33301 153.333 -26 275.333 -74 366c-41.333 77.333 -102 116 -182 116c-13.333 0 -29.5 -1.33301 -48.5 -4s-46.167 -16.334 -81.5 -41.001c12.667 -125.333 39.834 -222 81.501 -290z" />
    <glyph glyph-name="seven" unicode="7" horiz-adv-x="985" 
d="M371 1137l-113.997 4c-96.667 0 -145 -41.333 -145 -124c0 -12 1 -24.667 3 -38c-18.667 2.66699 -46.334 7.66699 -83.001 15c-2 210 -3 351.667 -3 425c213.333 -7.33301 528.666 -15.333 945.999 -24c-134 -186.667 -233.667 -391.334 -299 -614.001
c-85.333 -285.333 -131 -535.333 -137 -750c-75.333 6 -137.5 11.333 -186.5 16l-186.5 17c49.333 184.667 124.166 365.834 224.499 543.501l293.5 536.5z" />
    <glyph glyph-name="eight" unicode="8" horiz-adv-x="957" 
d="M457 1485l0.00292969 -1c18 14.667 36.167 22 54.5 22s36.5 -5.33301 54.5 -16c52.667 -33.333 107.5 -74.166 164.5 -122.499s98.167 -87.5 123.5 -117.5c24 -30 36 -48.833 36 -56.5s-7.33301 -26.5 -22 -56.5c-24.667 -52 -105.334 -132.667 -242.001 -242
c105.333 -97.333 193.333 -175.666 264 -234.999c15.333 -24.667 23 -50.334 23 -77.001s-18.167 -66.5 -54.5 -119.5l-133 -198.5c-52.333 -79.333 -119.5 -142.666 -201.5 -189.999c-27.333 -16 -50.333 -24 -69 -24s-34 5.33301 -46 16
c-68 55.333 -129.667 107.833 -185 157.5s-110 108.167 -164 175.5c-20 31.333 -30 57.166 -30 77.499s1.66699 36.166 5 47.499c66 98 151.667 188.667 257 272c-86.667 64.667 -154.334 121 -203.001 169c-11.333 14 -17 33.833 -17 59.5s8 59.5 24 101.5
c109.333 156 229.666 275.333 360.999 358zM390.003 725l-32.5 -22.001l-40.5 -27c-16 -10.667 -24 -22.334 -24 -35.001s2 -23 6 -31c55.333 -141.333 144.333 -244.333 267 -309c12 -6 23.167 -9 33.5 -9s19.5 4 27.5 12l48 50c8 8.66699 12 21.834 12 39.501
s-12.333 43.834 -37 78.501c-67.333 88.667 -154 173 -260 253zM541.003 971.999c11.333 6.66699 27.333 17.166 48 31.499s31 28 31 41s-3 24.833 -9 35.5c-50 82.667 -115 142.667 -195 180c-6.66699 2.66699 -13 4 -19 4c-20.667 0 -39.667 -15.667 -57 -47
c-8.66699 -13.333 -13 -26.166 -13 -38.499s6.66699 -23.833 20 -34.5z" />
    <glyph glyph-name="nine" unicode="9" horiz-adv-x="940" 
d="M484 31l-228.998 118c147.333 41.333 250.666 113.5 309.999 216.5s90 211.833 92 326.5l-280 -216c-143.333 92.667 -240 196.334 -290 311.001c-22 50 -33 106.333 -33 169s17.833 132.167 53.5 208.5s84.334 139.666 146.001 189.999s115.667 88.333 162 114
s78.666 38.5 96.999 38.5s37.166 -7 56.499 -21c217.333 -164 326 -355 326 -573c0 -250 -137 -544 -411 -882zM572.002 1089c-42 68 -84.498 115.167 -127.498 141.5s-83.333 39.5 -121 39.5s-56.5 -11 -56.5 -33c0 -152 24.333 -274.333 73 -367
c41.333 -77.333 102.666 -116 183.999 -116c13.333 0 29.666 1.33301 48.999 4s46.333 16.667 81 42c-12.667 124.667 -40 221 -82 289z" />
    <glyph glyph-name="colon" unicode=":" horiz-adv-x="507" 
d="M254 511l240 -240l-240 -240l-240 240zM254 1164l240 -240l-240 -240l-240 240z" />
    <glyph glyph-name="semicolon" unicode=";" horiz-adv-x="509" 
d="M80 267l270 239.998c36.667 -86.667 55 -183.667 55 -291c0 -178.667 -51 -386 -153 -622c-7.33301 128.667 -23 250.834 -47 366.501s-65.667 217.834 -125 306.501zM247 1080l240 -240l-240 -240l-240 240z" />
    <glyph glyph-name="less" unicode="&#x3c;" horiz-adv-x="813" 
d="M45 575l586 549l145 -145l-436 -391l444 -408l-153 -153z" />
    <glyph glyph-name="equal" unicode="=" horiz-adv-x="781" 
d="M774 947l-172.001 -297.001h-121c-53.333 0 -121.666 -1.66699 -204.999 -5s-135 -23.666 -155 -60.999l72 180l73 180c4 -43.333 25 -65 63 -65h5l303 8c45.333 1.33301 91 21.333 137 60zM163.999 608.999c4 -42.667 26.335 -64 67.002 -64h193
c43.333 0 88.666 20 135.999 60l-171 -298c-60 1.33301 -110.333 2 -151 2s-74.334 -0.333008 -101.001 -1c-58 -2 -97 -21.667 -117 -59l71.5 180z" />
    <glyph glyph-name="greater" unicode="&#x3e;" horiz-adv-x="813" 
d="M768 575l-586 -548l-145 145l436 391l-444 408l153 153z" />
    <glyph glyph-name="question" unicode="?" horiz-adv-x="546" 
d="M276 442l206 -205l-206 -206l-206 206zM467 707l-216 -235.003c-80.667 34.667 -149.667 99 -207 193c169.333 239.333 254 414.333 254 525c0 18.667 -2.33301 35.334 -7 50.001c-33.333 104.667 -126.333 161.334 -279 170.001l283 282
c110.667 -61.333 177.334 -146 200.001 -254c4 -18 6 -37.333 6 -58c0 -102 -48 -234.667 -144 -398c-44.667 -76.667 -67 -130.667 -67 -162s6.66699 -52.666 20 -63.999c37.333 -32.667 89.666 -49 156.999 -49z" />
    <glyph glyph-name="at" unicode="@" horiz-adv-x="1305" 
d="M840 237c-16 0 -51.999 2.66602 -107.999 7.99902c1.33301 14.667 2.33301 27.334 3 38.001s1.66699 21.334 3 32.001c2 24.667 4.66699 54.334 8 89.001c-70.667 -77.333 -121.667 -125 -153 -143s-64.5 -27 -99.5 -27s-64.667 20.167 -89 60.5
s-36.5 93.833 -36.5 160.5s9.16699 125.5 27.5 176.5s44.5 94.167 78.5 129.5c70 74 166 111 288 111c51.333 0 106.666 -8.66699 165.999 -26c-13.333 -42 -23 -92 -29 -150l-26 -206c-6.66699 -53.333 -10 -90 -10 -110s3.83301 -35 11.5 -45s23.5 -15 47.5 -15
s48.167 8.16699 72.5 24.5s45.5 38.833 63.5 67.5c39.333 60.667 59 127 59 199s-9.83301 132 -29.5 180s-46.834 89.667 -81.501 125c-72.667 74 -166 111 -280 111c-146.667 0 -266.667 -51.667 -360 -155c-93.333 -104 -140 -230.333 -140 -379s33.667 -260.5 101 -335.5
s162.333 -112.5 285 -112.5c60.667 0 109.667 6.66699 147 20s63.5 23.333 78.5 30s29.833 15 44.5 25c26.667 16.667 61.334 43 104.001 79l61 -61l-40 -35l-31 -26c-98.667 -78.667 -226 -118 -382 -118c-202.667 0 -346 72.333 -430 217
c-48 81.333 -72 171.166 -72 269.499s17.5 188.166 52.5 269.499s82.333 152.333 142 213s129.667 108.5 210 143.5s165.5 52.5 255.5 52.5c154 0 272.667 -48 356 -144c80 -94 120 -205 120 -333s-33.833 -228.333 -101.5 -301s-163.167 -109 -286.5 -109zM565.001 346.999
c33.333 0 75.332 30.665 125.999 91.998c28.667 34.667 46.334 61.667 53.001 81c7.33301 22 14.333 56.333 21 103l9 73c1.33301 6.66699 2 13.334 2 20.001v18c0 36.667 -29.667 55 -89 55c-54.667 0 -99 -28.333 -133 -85c-34.667 -57.333 -52 -131.166 -52 -221.499
s21 -135.5 63 -135.5z" />
    <glyph glyph-name="A" unicode="A" horiz-adv-x="1405" 
d="M697 1226c-68 17.333 -133.999 25.999 -197.999 25.999c-157.333 0 -300.666 -53.333 -429.999 -160c0.666992 6.66699 -1.5 24.167 -6.5 52.5s-6.83301 45.833 -5.5 52.5c175.333 144 366 256.667 572 338c269.333 -80 517 -190 743 -330c-14.667 -24 -33 -45 -55 -63
s-40.333 -38.667 -55 -62c-4.66699 -12.667 -7 -30.667 -7 -54v-54l7 -536c2 -43.333 10 -70.333 24 -81l101 -83l-176 -241l-229 194c14.667 104.667 22 241.667 22 411h-374c-25.333 -236 -97.5 -436 -216.5 -600s-226.167 -292.333 -321.5 -385
c-28 20 -53.333 36.667 -76 50c77.333 80.667 135.166 173 173.499 277s71.166 213.833 98.499 329.5s41 229 41 340s-24.333 215.167 -73 312.5c162 80.667 309 169.334 441 266.001zM1000 870.999c-1.33301 79.333 -1.99902 128.168 -1.99902 146.501
s0.333008 39.166 1 62.499c-66 46.667 -135.333 85 -208 115c-47.333 -35.333 -83.333 -75.833 -108 -121.5s-39.334 -113.167 -44.001 -202.5h361z" />
    <glyph glyph-name="B" unicode="B" horiz-adv-x="1451" 
d="M184 1170l623 364.999c156 -59.333 322 -152.333 498 -279l-234 -161c209.333 -162 314 -311.333 314 -448c0 -51.333 -14.333 -100.666 -43 -147.999c-107.333 -175.333 -327.666 -337.666 -660.999 -486.999c-192 170 -411.667 262.333 -659 277l254 185l6 491
c1.33301 81.333 -31.334 149.666 -98.001 204.999zM911 1137c-93.333 69.333 -196.333 120.333 -309 153l-2 -364zM909 231.999c106.667 93.333 159.999 194.667 159.999 304c0 70.667 -20 135.667 -60 195s-99 101.333 -177 126c-28.667 8.66699 -62.5 13 -101.5 13
s-82.833 -13.667 -131.5 -41l-2 -268l-101 -62c194.667 -97.333 332.334 -186.333 413.001 -267z" />
    <glyph glyph-name="C" unicode="C" horiz-adv-x="1080" 
d="M1009 1087c-76 64.667 -153.331 109.666 -231.998 134.999c-4.66699 -62.667 -7 -141.667 -7 -237s10.333 -205.333 31 -330l-316 -141c53.333 -55.333 124.333 -97 213 -125c48.667 -15.333 101.167 -23 157.5 -23s114.166 5 173.499 15l-174 -366
c-194 63.333 -347.333 124.833 -460 184.5s-196.834 129.834 -252.501 210.501s-89.167 178 -100.5 292c-7.33301 71.333 -11 144.5 -11 219.5s1.33301 144.5 4 208.5l822 405l240 -174zM497.002 1212c-110 -52.667 -165 -149.333 -165 -290c0 -127.333 31.333 -239 94 -335
c42.667 28 69 83.667 79 167c4 32.667 6 83.5 6 152.5s-4.66699 170.833 -14 305.5z" />
    <glyph glyph-name="D" unicode="D" horiz-adv-x="1295" 
d="M224 502c5.33301 62 8 121.001 8 177.001s-2.33301 109 -7 159c-9.33301 104 -44.333 186 -105 246c156 7.33301 305.667 39.333 449 96c-145.333 72.667 -319.333 109 -522 109h-32l329 246c307.333 -47.333 535.5 -156.333 684.5 -327s229.167 -395.334 240.5 -674.001
l-589 -503c-190 96 -415.333 175.667 -676 239zM616 1154c-20.667 -38 -37.002 -74.499 -49.002 -109.499s-18 -68.5 -18 -100.5s0.5 -72.5 1.5 -121.5s3.16699 -95.167 6.5 -138.5s15 -94.333 35 -153c-14 1.33301 -27.667 2 -41 2c-67.333 0 -131.333 -13.667 -192 -41
c160 -116.667 284.333 -175 373 -175c36.667 0 67.334 10.333 92.001 31c75.333 63.333 113 154.666 113 273.999c0 106 -27.667 205.5 -83 298.5s-134.666 170.833 -237.999 233.5z" />
    <glyph glyph-name="E" unicode="E" horiz-adv-x="1215" 
d="M1211 1345l-170.001 -198.001c-104 72 -205.667 115 -305 129c-6 -57.333 -10 -122.666 -12 -195.999h413v-236h-408c2 -76 9.66699 -164.333 23 -265l-230 -84c126 -113.333 301.333 -170 526 -170c25.333 0 51.333 0.666992 78 2l-219 -296
c-283.333 30.667 -501.166 130.667 -653.499 300s-228.5 419 -228.5 749l776 455c94 -64.667 230.667 -128 410 -190zM444.999 576.999l74 25c-20 146 -30 272.333 -30 379s1.66699 192 5 256c-40 -20 -72.5 -43.333 -97.5 -70s-43 -52.5 -54 -77.5
s-16.5 -60.333 -16.5 -106s0.666992 -80.167 2 -103.5c4.66699 -105.333 43.667 -206.333 117 -303z" />
    <glyph glyph-name="F" unicode="F" horiz-adv-x="1022" 
d="M568 -90c20 0 30 17.0029 30 51.0029s-14.333 88.167 -43 162.5s-72.667 169.166 -132 284.499s-124.5 235.666 -195.5 360.999l-190.5 342c202 127.333 359.333 268.666 472 423.999c150 -54 314.333 -108.333 493 -163l-210 -266
c-21.333 32.667 -74.166 66.334 -158.499 101.001s-141.833 52 -172.5 52s-50 -4.66699 -58 -14s-12 -21.333 -12 -36c0 -45.333 27 -133 81 -263c34 -2 88.667 -3 164 -3s183.666 8.66699 324.999 26c-14.667 -80 -28 -159.333 -40 -238l-361 19
c97.333 -206.667 201 -389.334 311 -548.001l-412 -573c-162.667 80 -307 214 -433 402l121 305c68 -104 147.667 -201 239 -291s152 -135 182 -135z" />
    <glyph glyph-name="G" unicode="G" horiz-adv-x="1472" 
d="M1114 1081c142.667 -114 252.999 -236.333 330.999 -367c-152 -310 -385.333 -537.667 -700 -683c-446.667 180 -670 452.333 -670 817c0 26.667 1.33301 53.667 4 81c208 301.333 438.667 503.333 692 606c138.667 -96.667 328.334 -176 569.001 -238zM750.999 1249
c-6 -67.333 -9 -127.001 -9 -179.001s0.666992 -95.667 2 -131l113 102l113 104c-57.333 44.667 -130.333 79.334 -219 104.001zM745.999 889.999c3.33301 -80.667 9.66895 -161 19.002 -241c-69.333 -12.667 -151 -58.334 -245 -137.001
c54.667 -50 117.167 -95.667 187.5 -137s136.166 -62 197.499 -62c17.333 0 34.666 1.33301 51.999 4c110 18 171.667 67 185 147c3.33301 21.333 5 42 5 62c0 56 -13 105.833 -39 149.5s-68.667 86.334 -128 128.001s-137.333 70.5 -234 86.5zM446.002 584.999
c17.333 38 27.334 81.666 30.001 130.999l9 348c0.666992 30 -9.33301 68.667 -30 116c-10.667 -9.33301 -20.334 -20.333 -29.001 -33c-60.667 -81.333 -91 -172.666 -91 -273.999c0 -110 37 -206 111 -288z" />
    <glyph glyph-name="H" unicode="H" horiz-adv-x="1231" 
d="M39 1220l565.999 315.001c152.667 -68.667 298.334 -119 437.001 -151l-278 -193c-42.667 9.33301 -82.5 23.5 -119.5 42.5s-69.333 31.833 -97 38.5s-52.334 10 -74.001 10s-41 -10.667 -58 -32s-25.5 -41 -25.5 -59s0.333008 -30.333 1 -37l-1 -273l365 229
c163.333 -146.667 315 -317 455 -511c-56 -162.667 -121 -319.5 -195 -470.5s-168.667 -290.167 -284 -417.5c-50.667 -55.333 -99 -83 -145 -83c-27.333 0 -52 8.5 -74 25.5s-41.333 33.333 -58 49s-34 31.167 -52 46.5c186 45.333 315.667 138.666 389 279.999
c50.667 98 76 195.667 76 293c0 43.333 -6.33301 92.833 -19 148.5s-55.334 140.5 -128.001 254.5c-45.333 72 -98.666 108 -159.999 108c-36.667 0 -76 -12.667 -118 -38c-11.333 -6.66699 -28.666 -17.667 -51.999 -33l-1 -301c-1.33301 -26.667 5.5 -44.167 20.5 -52.5
s34 -16.5 57 -24.5l92 -30.5c38.333 -12.333 84.5 -18.833 138.5 -19.5l-220 -303c-174.667 39.333 -324.667 91 -450 155c46.667 180 70 356.167 70 528.5s-19.333 340.833 -58 505.5z" />
    <glyph glyph-name="I" unicode="I" horiz-adv-x="1062" 
d="M1030 1516l-125.004 -224.002c14.667 -167.333 28.334 -305.666 41.001 -414.999s19 -183.333 19 -222c0 -112.667 -21.667 -200.667 -65 -264c-62 -43.333 -124.833 -96.666 -188.5 -159.999l-192.5 -200l-407 193c-56 22.667 -84 63 -84 121
c0 15.333 2.83301 39.166 8.5 71.499l21 119l24.5 141.5c72.667 -95.333 150.334 -171.166 233.001 -227.499s168 -101.5 256 -135.5c12 -4.66699 26.833 -7 44.5 -7s36.334 11.667 56.001 35s29.5 54.5 29.5 93.5s-3.16699 87.833 -9.5 146.5
s-17.166 133.334 -32.499 224.001s-29.666 182 -42.999 274c52.667 42 108 94.333 166 157c-45.333 -4.66699 -100.5 -7 -165.5 -7s-129.667 6.5 -194 19.5s-115.833 19.5 -154.5 19.5c-76.667 0 -144 -17.667 -202 -53c32 123.333 80 238.666 144 345.999
c195.333 -32 416.666 -48 663.999 -48c50.667 0 102.667 0.666992 156 2z" />
    <glyph glyph-name="J" unicode="J" horiz-adv-x="1122" 
d="M12 1035l276.998 526.998c156.667 -44 302.334 -66 437.001 -66s259.334 13 374.001 39c-48 -96.667 -72 -182.667 -72 -258c0 -12 2.16699 -40.167 6.5 -84.5s6.5 -102.833 6.5 -175.5c0 -290.667 -61 -542.334 -183 -755.001c-152 -265.333 -383 -484.333 -693 -657
l-80 59.5l-79 59.5c85.333 16.667 166.5 38.667 243.5 66s146.5 76 208.5 146c135.333 152.667 222.333 432 261 838c-30 1.33301 -66.667 2 -110 2c-103.333 0 -223.333 -16.667 -360 -50l94 176l96 178c90 -37.333 191.667 -56.666 305 -57.999
c12 96.667 28.667 169.334 50 218.001c-32.667 1.33301 -64.334 2 -95.001 2c-120 0 -235.667 -12.667 -347 -38s-224.666 -81.666 -339.999 -168.999z" />
    <glyph glyph-name="K" unicode="K" horiz-adv-x="1446" 
d="M52 1200l89 334.998l288.5 -23l289.5 -23c-49.333 -86 -78.166 -164.5 -86.499 -235.5s-12.5 -126.667 -12.5 -167s0.666992 -72.166 2 -95.499c68.667 70.667 136.334 153.334 203.001 248.001l200 296c132 -208 260.667 -378.333 386 -511l-355 -168l353 -632
l-320 -193c-103.333 262.667 -206.666 494 -309.999 694l-153 -73c-6 -44.667 -16 -85.834 -30 -123.501s-39.333 -70 -76 -97s-69.667 -55.833 -99 -86.5c45.333 -15.333 81.666 -23 108.999 -23c72.667 0 145 6.66699 217 20l-170 -311
c-146.667 42.667 -324.334 69.334 -533.001 80.001c135.333 118.667 216.166 278.5 242.499 479.5s39.5 407.167 39.5 618.5v16c-12.667 0.666992 -29.667 1 -51 1c-32.667 0 -107 -8.66699 -223 -26zM632 779.998c144.667 63.333 274.667 133.667 390 211
c-44.667 35.333 -84 85.333 -118 150l-273 -334c0 -11.333 0.333008 -20.333 1 -27z" />
    <glyph glyph-name="L" unicode="L" horiz-adv-x="1166" 
d="M1122 1375c-94.667 -2 -187.001 -13.002 -277.001 -33.002c-6.66699 -48 -10 -107.667 -10 -179s6 -139.333 18 -204s18 -113 18 -145c0 -54.667 -40.667 -114 -122 -178l-151 -125l-151 -122c204.667 -55.333 421 -83 649 -83h39
c-30.667 -49.333 -55.5 -87.333 -74.5 -114s-43.5 -64 -73.5 -112c-22 -32.667 -55.333 -49 -100 -49c-19.333 0 -68.5 8.33301 -147.5 25l-319 65.5l-399.5 82.5c112 135.333 181.333 249.333 208 342c10.667 38 16 80 16 126s-15.833 105.333 -47.5 178
s-54 135.334 -67 188.001s-19.5 88.334 -19.5 107.001c0 46.667 18 78 54 94c110.667 48.667 225.667 93.5 345 134.5s219 78.333 299 112s134.333 50.5 163 50.5s51.334 -6 68.001 -18c36.667 -27.333 64 -75 82 -143zM607.999 897.998l-14.999 232.999
c0 41.333 3 83.333 9 126c-14.667 -7.33301 -36.334 -19.333 -65.001 -36c-56.667 -34 -85 -76.333 -85 -127c0 -17.333 16.333 -94.666 49 -231.999c12.667 -56 19 -104.667 19 -146s-2 -76 -6 -104c34 24.667 58.167 69.5 72.5 134.5s21.5 115.5 21.5 151.5z" />
    <glyph glyph-name="M" unicode="M" horiz-adv-x="1886" 
d="M671 331l-167.002 -300l-462 236c148 138 230.333 235 247 291c2.66699 10 4 21.667 4 35c0 63.333 -27.667 156 -83 278s-92.166 205.833 -110.499 251.5s-27.5 80.834 -27.5 105.501s4 46 12 64c18.667 41.333 62.667 79.166 132 113.499s174.666 77.5 315.999 129.5
l44 -105c-89.333 -29.333 -138.333 -66 -147 -110c-2 -9.33301 -3 -19.333 -3 -30c0 -38 12.667 -83 38 -135l386 380c59.333 -39.333 109.833 -76.833 151.5 -112.5s91.834 -68.167 150.501 -97.5l200 210l241 -129.5c80.667 -43 164.667 -79.833 252 -110.5
c-107.333 -73.333 -164 -197.666 -170 -372.999l-11 -372v-22c0 -108 38.333 -173.667 115 -197l-159 -300c-96.667 35.333 -163.5 90.166 -200.5 164.499s-55.5 177.166 -55.5 308.499v28l2 252c0 60.667 11 113.667 33 159s50.667 91 86 137
c-134 98 -234.333 151 -301 159c-25.333 -38 -38.166 -83 -38.499 -135s-1.83301 -112.667 -4.5 -182l-11 -372v-22c0 -120.667 31.667 -191.334 95 -212.001l-234 -285c-36 45.333 -76.667 88.333 -122 129l-128 112c20 23.333 39.667 60 59 110s29.333 100 30 150l35 619
c-58 43.333 -103 65 -135 65c-8 0 -15.333 -1.33301 -22 -4c-31.333 -14 -95 -67.333 -191 -160l13 -23c50 -93.333 75 -170.666 75 -231.999c0 -16.667 -2 -32.334 -6 -47.001c-18 -67.333 -81.333 -171.666 -190 -312.999c62.667 -45.333 150 -80.666 262 -105.999z" />
    <glyph glyph-name="N" unicode="N" horiz-adv-x="1374" 
d="M666 331l-167.001 -300.002l-462 236c148 138 230.333 235 247 291c2.66699 10 4 21.667 4 35c0 63.333 -27.667 156 -83 278s-92.166 205.833 -110.499 251.5s-27.5 80.834 -27.5 105.501s4.33301 46 13 64c18 41.333 61.667 79.166 131 113.499
s174.666 77.5 315.999 129.5l44 -105c-93.333 -30.667 -142.666 -69.334 -147.999 -116.001c-0.666992 -6 -1 -12.333 -1 -19c0 -43.333 15 -96.333 45 -159l193.5 208.5l179.5 190.5l243 -129.5c82 -43 167.333 -79.833 256 -110.5
c-108.667 -73.333 -165.334 -197.666 -170.001 -372.999l-13 -372v-21c0 -108 38.667 -174 116 -198l-158 -300c-96.667 35.333 -163.667 90.5 -201 165.5s-56 179.833 -56 314.5v21l3 252c0 60.667 10.833 113.667 32.5 159s49.834 91 84.501 137
c-69.333 51.333 -137.333 77 -204 77c-75.333 0 -158.333 -41.667 -249 -125l1 -3c50 -93.333 75 -170.666 75 -231.999c0 -16.667 -2 -32.334 -6 -47.001c-18 -67.333 -81.333 -171.666 -190 -312.999c62.667 -45.333 150 -80.666 262 -105.999z" />
    <glyph glyph-name="O" unicode="O" horiz-adv-x="1626" 
d="M936 1535c-6 -86 -9.33105 -159.335 -9.99805 -220.002l96 96.5c32 33 63.667 63.167 95 90.5c96 -195.333 255 -359.666 477 -492.999c-1.33301 -160 -29.833 -301.167 -85.5 -423.5s-122.834 -224.666 -201.501 -306.999s-161 -144.333 -247 -186
s-159.333 -62.5 -220 -62.5c-282.667 0 -479.834 90.167 -591.501 270.5s-183.167 390.833 -214.5 631.5c107.333 155.333 233 287 377 395s319 177.333 525 208zM925.002 1187c2.66699 -304.667 39.333 -535.333 110 -692c-167.333 -40 -276.666 -108.333 -327.999 -205
c65.333 -39.333 134.666 -59 207.999 -59c7.33301 0 14.333 0.333008 21 1c105.333 3.33301 192 33.666 260 90.999c80 66.667 120 153 120 259c0 79.333 -27.667 171.333 -83 276s-158 214.334 -308 329.001zM617.001 358.999c25.333 70.667 38 162.335 38 275.002
c0 10.667 -0.833008 45.167 -2.5 103.5s-3.16699 141.166 -4.5 248.499s-9.33301 213.666 -24 318.999c-146.667 -85.333 -220 -220.333 -220 -405c0 -15.333 0.666992 -31 2 -47c12.667 -209.333 83 -374 211 -494z" />
    <glyph glyph-name="P" unicode="P" horiz-adv-x="1297" 
d="M152 -350c52 150.667 86 352.329 102 604.996l-205 74l215 205v200c0 102.667 -4.33301 263.667 -13 483l-105.5 48.5l-105.5 50.5l172 219c182.667 -53.333 314.334 -92.666 395.001 -117.999c-2 -21.333 -3.66699 -42.666 -5 -63.999s-3 -42 -5 -62l304 244
c226.667 -171.333 340 -375 340 -611c0 -25.333 -1.33301 -50.666 -4 -75.999c-26.667 -269.333 -145.334 -541.666 -356.001 -816.999l-321 115c6 -107.333 19 -179 39 -215zM891 330.995c82.667 0 123.999 63.001 123.999 189.001c0 107.333 -20.667 217.666 -62 330.999
s-97.333 202.333 -168 267c-28 26 -55.333 39 -82 39c-41.333 0 -81.666 -30.333 -120.999 -91c-14 -219.333 -22.667 -413.333 -26 -582l329 -153h6z" />
    <glyph glyph-name="Q" unicode="Q" horiz-adv-x="1616" 
d="M926 1535c-6 -86 -9.33203 -159.335 -9.99902 -220.002l96 96.5c32 33 63.667 63.167 95 90.5c96 -195.333 255 -359.666 477 -492.999c-1.33301 -150 -26.333 -283 -75 -399s-108.667 -214.667 -180 -296c174.667 -344 496.667 -516 966 -516c60.667 0 123.667 3 189 9
l-3 -98c-138 -26 -275.5 -39 -412.5 -39s-269.833 19.333 -398.5 58c-234 70.667 -437.667 193.334 -611 368.001c-86 -44 -162.333 -66 -229 -66c-282.667 0 -479.834 90.167 -591.501 270.5s-183.167 390.833 -214.5 631.5c107.333 155.333 233 287 377 395
s319 177.333 525 208zM915.001 1187c2.66699 -304.667 39.333 -535.333 110 -692c-167.333 -40 -276.666 -108.333 -327.999 -205c65.333 -39.333 134.666 -59 207.999 -59c7.33301 0 14.333 0.333008 21 1c105.333 3.33301 192 33.666 260 90.999
c80 66.667 120 153 120 259c0 79.333 -27.667 171.333 -83 276s-158 214.334 -308 329.001zM607 358.999c25.333 70.667 38 162.335 38 275.002c0 10.667 -0.833008 45.167 -2.5 103.5s-3.16699 141.166 -4.5 248.499s-9.33301 213.666 -24 318.999
c-146.667 -85.333 -220 -220.333 -220 -405c0 -15.333 0.666992 -31 2 -47c12.667 -209.333 83 -374 211 -494z" />
    <glyph glyph-name="R" unicode="R" horiz-adv-x="1439" 
d="M36 220c183.333 170 275.004 368.667 275.004 596c0 130 -31.333 272.667 -94 428c-40.667 17.333 -96.334 26 -167.001 26h-8l333 265c104.667 -66.667 174.334 -152.667 209.001 -258l188 258l617 -319l-365 -194l142.5 -330.5
c46.333 -110.333 97.166 -218.5 152.499 -324.5c27.333 -53.333 74.666 -86.666 141.999 -99.999l-172.5 -118.5l-172.5 -117.5c-122.667 308.667 -259.334 609 -410.001 901l140 91.5l141 92.5l-287 169l-95 -130c0.666992 -10.667 1 -21.334 1 -32.001
c0 -194.667 -92.333 -438.667 -277 -732l266 -90c15.333 -5.33301 35.666 -8 60.999 -8s59 5.66699 101 17l-241 -279z" />
    <glyph glyph-name="S" unicode="S" horiz-adv-x="1475" 
d="M994 1475c62 -30.667 125.166 -46 189.499 -46s141.833 24.333 232.5 73l39 -47c-98.667 -214 -218.667 -321 -360 -321c-39.333 0 -91.333 11.333 -156 34c-179.333 62 -309.333 93 -390 93c-38 0 -76 -3.66699 -114 -11c-104 -22 -156 -83.333 -156 -184
c0 -36 9.33301 -69.667 28 -101c33.333 -57.333 86 -86 158 -86s136.667 64 194 192c62 10 120.667 15 176 15c109.333 0 205.333 -19.333 288 -58c124.667 -58 207 -139.333 247 -244c16.667 -43.333 25 -93.833 25 -151.5s-16.667 -124.5 -50 -200.5
c-56.667 -130.667 -173 -254 -349 -370c-32.667 -21.333 -69.667 -32 -111 -32c-42.667 0 -89 5.66699 -139 17c-133.333 28 -256.666 79 -369.999 153s-207.333 176 -282 306c-35.333 59.333 -53 125 -53 197c0 8.66699 0.333008 17.334 1 26.001
c23.333 324 151.333 584 384 780c44 37.333 104.667 55.666 182 54.999c129.333 -2 258 -31.667 386 -89zM321.999 769c25.333 -116.667 121.332 -220.667 287.999 -312c126 -68.667 243.333 -103 352 -103c36 0 71 3.66699 105 11c68 14 119.667 40.667 155 80
c38.667 42.667 58 87.5 58 134.5s-19.167 92.833 -57.5 137.5s-98.833 74 -181.5 88c-8 1.33301 -23 2 -45 2s-58.333 -9.66699 -109 -29c-63.333 -24 -113.666 -76.667 -150.999 -158h-18c-119.333 0 -251.333 49.667 -396 149z" />
    <glyph glyph-name="T" unicode="T" horiz-adv-x="1261" 
d="M26 732c123.333 169.333 284.335 344.999 483.002 526.999c-32.667 26.667 -67.334 40 -104.001 40c-52 0 -162 -34.667 -330 -104l241 367c194 -20 374.5 -30 541.5 -30s326.5 10 478.5 30l-154 -358c-74 30.667 -151 54.667 -231 72l8 -821
c-118 -13.333 -229.667 -56.333 -335 -129c85.333 -70 187.666 -105 306.999 -105s249.333 36.667 390 110c-2.66699 -45.333 -4.66699 -90.666 -6 -135.999c-366.667 -168.667 -650 -195.667 -850 -81s-346.333 320.667 -439 618zM611.002 1155
c-103.333 -97.333 -164.333 -198.002 -183 -302.002c-6.66699 -35.333 -10 -77.666 -10 -126.999s12.667 -105.166 38 -167.499s58 -116.833 98 -163.5c48 47.333 73.333 120.333 76 219c4.66699 184 7 308.667 7 374s-8.66699 121 -26 167z" />
    <glyph glyph-name="U" unicode="U" horiz-adv-x="1406" 
d="M1152 31l-280.002 178.001c18.667 63.333 33.667 129.333 45 198l-340 -376c-57.333 50.667 -130 95.667 -218 135s-182 76.333 -282 111c132.667 88.667 215.667 190.334 249 305.001c9.33301 31.333 14 63.333 14 96c0 87.333 -34.833 182.666 -104.5 285.999
s-104.5 200.666 -104.5 291.999c0 144 90 267.333 270 370l108 -60c-105.333 -72 -158 -137.667 -158 -197c0 -14.667 3.66699 -29 11 -43c33.333 -70 131.333 -131.333 294 -184v-20c0 -208.667 -62 -417.667 -186 -627c106.667 -68 185.334 -102 236.001 -102
c48 0 125 64.333 231 193c4 60 6 134.333 6 223s-5.66699 198 -17 328c0.666992 6 1 11.667 1 17c0 30 -13.667 54.5 -41 73.5s-55.666 39.833 -84.999 62.5l239 264l289 -175c-43.333 -58 -67.833 -115 -73.5 -171s-8.5 -113.667 -8.5 -173l-6 -390v-34
c0 -82 9.16699 -145.333 27.5 -190s50.833 -76 97.5 -94z" />
    <glyph glyph-name="V" unicode="V" horiz-adv-x="1232" 
d="M361 1584c-22 -30 -33.001 -59.665 -33.001 -88.998s14.333 -57.333 43 -84c69.333 -64 117 -132.667 143 -206l316 357c108 -116.667 193.333 -231.667 256 -345s94 -227.333 94 -342c0 -30.667 -2 -61.667 -6 -93c-14.667 -105.333 -66.334 -214.5 -155.001 -327.5
s-184.334 -246.5 -287.001 -400.5c-100 58 -315 112 -645 162c32.667 43.333 63.334 92.666 92.001 147.999s44.334 117.666 47.001 186.999l11 339v12c0 87.333 -34 157.333 -102 210c-59.333 47.333 -89 101.666 -89 162.999c0 40.667 16.667 85.334 50 134.001l88 127
c26.667 40 61.334 60 104.001 60c24.667 0 49 -4 73 -12zM720.999 1146c-13.333 25.333 -32.499 38.001 -57.499 38.001s-67.167 -30.667 -126.5 -92c2 -22.667 3 -40.667 3 -54v-28l-21 -551l301 -98c58 60 87 134.333 87 223c0 35.333 -4.33301 72.666 -13 111.999
c-32.667 140 -90.334 290 -173.001 450z" />
    <glyph glyph-name="W" unicode="W" horiz-adv-x="1797" 
d="M1222 31c-127.333 58 -279.334 119.998 -456.001 185.998l-144 -186c-243.333 60.667 -429.333 108.334 -558 143.001c94.667 96.667 160.167 169.167 196.5 217.5s54.5 89.833 54.5 124.5s-7.66699 68.334 -23 101.001l-216 523c-20 48.667 -30 80.5 -30 95.5
s0.666992 24.5 2 28.5c4 25.333 25 56.333 63 93l266 248c25.333 -7.33301 50.833 -14.333 76.5 -21s51.5 -14 77.5 -22c-89.333 -102 -134 -181 -134 -237c0 -42 14 -91.333 42 -148c111.333 86.667 230.666 215 357.999 385l284 -288c86.667 50 203.334 146 350.001 288
c122.667 -208 208.334 -399.667 257.001 -575c18.667 -65.333 28 -126.666 28 -183.999c0 -94.667 -29.167 -182.334 -87.5 -263.001s-123.333 -164 -195 -250zM1114 1121l-24 -709c54.667 -25.333 127 -55.333 217 -90c82 80 123 174.333 123 283
c0 30.667 -3.33301 62.667 -10 96c-30 150 -98.667 314.667 -206 494zM513.999 1035c67.333 -127.333 101.001 -221.5 101.001 -282.5s-67 -180.167 -201 -357.5c106.667 -49.333 186 -74 238 -74c53.333 0 97.666 24.333 132.999 73c16.667 174.667 25 313 25 415
s-3.33301 192.333 -10 271l-130 157l-159 -197z" />
    <glyph glyph-name="X" unicode="X" horiz-adv-x="1387" 
d="M420 460c-1.33301 -28.667 -1.99805 -61.1631 -1.99805 -97.4961s5.33301 -103.833 16 -202.5c-113.333 -27.333 -245 -78.333 -395 -153c58 243.333 205.667 540.666 443 891.999l7 11l-108 170l-109 156c-20.667 27.333 -48.334 44 -83.001 50s-69.334 9 -104.001 9
c42.667 51.333 91.667 101.166 147 149.499s129.666 97.166 222.999 146.499l99 -181l112 -195l19 -31l21 30l73.5 96l75 95.5l75 93.5l77.5 95l92 -38l88 -37l164 -70l-190 -315c-84 77.333 -167.333 129.666 -250 156.999c-28 -30.667 -53.167 -59.834 -75.5 -87.501
l-51.5 -63c-12 -14.333 -26 -32.166 -42 -53.499l8 -12c112.667 -192 241.334 -388 386.001 -588c36 -50 77.333 -85.667 124 -107c24 -14 52 -23.667 84 -29c-126 -133.333 -252.333 -250 -379 -350l-48.5 96.5l-72.5 144.5c-114 230 -205 406 -273 528l-21 37l-21 -37
c-68 -126 -104.333 -229.333 -109 -310z" />
    <glyph glyph-name="Y" unicode="Y" horiz-adv-x="1346" 
d="M689 -565c-108.667 0 -224.003 32.3359 -346.003 97.0029c-48 26 -101.167 39 -159.5 39s-127.5 -24.667 -207.5 -74l-35 47c45.333 113.333 94.833 195.166 148.5 245.499s111.5 75.5 173.5 75.5c35.333 0 82.333 -11.333 141 -34c160 -62 276.333 -93 349 -93
c136 0 214.667 43.333 236 130c6 23.333 9 49.333 9 78s-6.83301 55.167 -20.5 79.5s-36.667 81.833 -69 172.5s-48.5 154.667 -48.5 192c0 6 0.333008 11.667 1 17l-340 -376c-57.333 50.667 -130.166 95.667 -218.499 135s-182.166 76.333 -281.499 111
c132.667 88.667 215.667 190.334 249 305.001c9.33301 31.333 14 63.333 14 96c0 87.333 -35 182.666 -105 285.999s-105 200.666 -105 291.999c0 143.333 90.333 266.666 271 369.999l53 -30l53 -30c-104 -72 -156 -137.333 -156 -196c0 -15.333 3.33301 -30 10 -44
c34 -70 132.333 -131.333 295 -184v-7c0 -217.333 -62 -430.666 -186 -639.999c106.667 -68 185.334 -102 236.001 -102c48 0 125 64.333 231 193c4 61.333 6 137 6 227s-6 198 -18 324c0.666992 6 1 11.667 1 17c0 30 -13.5 54.5 -40.5 73.5l-85.5 62.5l240 264l288 -175
c-43.333 -58 -67.666 -115 -72.999 -171s-8.33301 -113.667 -9 -173l-5 -390v-34c0 -82 9.16699 -145.333 27.5 -190s50.833 -76 97.5 -94c-56.667 -77.333 -115.834 -216.333 -177.501 -417s-150.167 -340.334 -265.5 -419.001c-56.667 -37.333 -116 -56 -178 -56z" />
    <glyph glyph-name="Z" unicode="Z" horiz-adv-x="1214" 
d="M618 1517l248.998 2.99902c98 0 195.667 -1.66699 293 -5l-400 -428c167.333 -116.667 280 -229.667 338 -339s86.333 -219.666 85 -330.999s-32.166 -225.5 -92.499 -342.5s-138.166 -219.333 -233.499 -307s-203 -151.834 -323 -192.501
c-62.667 -21.333 -124.167 -32 -184.5 -32s-119.5 9 -177.5 27c-78.667 25.333 -118 101.333 -118 228c0 10.667 0.333008 22 1 34c7.33301 146.667 32.333 267.334 75 362.001c77.333 171.333 238 325.333 482 462c-63.333 48.667 -159.333 98.667 -288 150l392 369
c-79.333 26.667 -170 40 -272 40c-148 0 -279.333 -33 -394 -99l154 446c131.333 -30 269.333 -45 414 -45zM378.998 -193.001c47.333 -26.667 95.502 -40.001 144.502 -40.001s98.5 13 148.5 39c101.333 52.667 162 102 182 148c28.667 50 43 113.667 43 191
c0 114.667 -32.667 215.334 -98 302.001c-30.667 6.66699 -68.334 10 -113.001 10s-103.667 -15.167 -177 -45.5s-130.833 -70 -172.5 -119s-73.834 -125.833 -96.501 -230.5c-4 -17.333 -6 -34 -6 -50c0 -82 48.333 -150.333 145 -205z" />
    <glyph glyph-name="bracketleft" unicode="[" horiz-adv-x="477" 
d="M128 -78c-13.333 0 -20 6.33301 -20 19v1564c0 12.667 6.66699 19 20 19h367c13.333 0 20 -6.33301 20 -19v-45c0 -13.333 -6.66699 -20 -20 -20l-144 -4v-1426h140c13.333 0 20 -6.66699 20 -20v-49c0 -12.667 -6.66699 -19 -20 -19h-363z" />
    <glyph glyph-name="backslash" unicode="\" horiz-adv-x="792" 
d="M752 1h-138l-585 1538h138z" />
    <glyph glyph-name="bracketright" unicode="]" horiz-adv-x="500" 
d="M12 -77c-13.333 0 -20 6.33301 -20 19v49c0 13.333 6.66699 20 20 20h151v1424h-151c-13.333 0 -20 6.66699 -20 20v51c0 12.667 6.66699 19 20 19h365c12 0 18 -6.33301 18 -19v-1564c0 -12.667 -6 -19 -18 -19h-365z" />
    <glyph glyph-name="asciicircum" unicode="^" horiz-adv-x="598" 
d="M60 1165c-14.667 0 -21.998 5.66699 -21.998 17c0 3.33301 1.33301 7 4 11l184 326c3.33301 5.33301 8.66602 8 15.999 8h101c8.66699 0 14.667 -2.66699 18 -8l180 -326c2 -4 3 -7.66699 3 -11c0 -11.333 -6.33301 -17 -19 -17h-45
c-6.66699 0 -11.334 1.33301 -14.001 4l-175 178c-114 -119.333 -173.333 -179.5 -178 -180.5s-8 -1.5 -10 -1.5h-43z" />
    <glyph glyph-name="underscore" unicode="_" horiz-adv-x="1210" 
d="M-12 -289c0 12.667 6.66699 19 20 19h1198c14 0 21 -6.33301 21 -19l-4 -90c0 -13.333 -7 -20 -21 -20h-1194c-13.333 0 -20 6.66699 -20 20v90z" />
    <glyph glyph-name="grave" unicode="`" horiz-adv-x="520" 
d="M405 1680c33.333 -109.333 50 -227.667 50 -355v-33l-280 351z" />
    <glyph glyph-name="a" unicode="a" horiz-adv-x="922" 
d="M37 759l390 317.001l442 -207c-52 -45.333 -78.333 -96.333 -79 -153l-4 -331c0 -22.667 11.833 -48.334 35.5 -77.001s46.167 -51.667 67.5 -69l-202 -208l-155 159c-37.333 -30 -75 -57.5 -113 -82.5s-72 -51.167 -102 -78.5c-100 37.333 -193.333 95 -280 173
c24.667 31.333 39 77 43 137l-3 302v8c0 39.333 -13.333 76 -40 110zM380 836.001c-38.667 -58 -58 -109.667 -58 -155v-245c0 -50 9 -85.667 27 -107l42.5 -59c13 -17.333 33.833 -30 62.5 -38l82 59v460z" />
    <glyph glyph-name="b" unicode="b" horiz-adv-x="877" 
d="M31 1294l10.999 47.001c132.667 46.667 275.667 111.334 429 194.001l63 -39c-94.667 -56.667 -142.334 -163.667 -143.001 -321l-1 -206l166 132c50.667 -21.333 97.334 -62.666 140.001 -123.999c87.333 -125.333 138.333 -258.333 153 -399
c2 -16.667 3 -38.334 3 -65.001s-7.33301 -49.334 -22 -68.001l-331 -431l-429 213c16.667 36 32.334 74.5 47.001 115.5s22 85.5 22 133.5l-8 694c0 49.333 -33.333 90.666 -100 123.999zM389.999 850.001l-3.00098 -433.001c6 -33.333 28.833 -59.166 68.5 -77.499
s66.334 -27.5 80.001 -27.5s23.167 0.666992 28.5 2c57.333 14.667 86 52 86 112c0 14.667 -1.66699 30.667 -5 48c-22.667 112 -55.5 196.667 -98.5 254s-95.167 98 -156.5 122z" />
    <glyph glyph-name="c" unicode="c" horiz-adv-x="785" 
d="M692 362l-338 -333.001c-213.333 141.333 -320 306 -320 494c0 92.667 30 184 90 274s156.667 188.333 290 295c57.333 -37.333 116.333 -73.833 177 -109.5l179 -106.5l-200 -176c-40 24.667 -71.833 45.834 -95.5 63.501s-48.667 32.5 -75 44.5s-45.333 18 -57 18
s-24.167 -6.66699 -37.5 -20c-41.333 -42 -62 -89.333 -62 -142c0 -92.667 54 -191.667 162 -297c27.333 -25.333 53.666 -38 78.999 -38c44.667 0 85.334 30.667 122.001 92l42.5 -29.5z" />
    <glyph glyph-name="d" unicode="d" horiz-adv-x="842" 
d="M357 1025c-51.333 87.333 -119 179.332 -203 275.999l265 139c240 -292.667 373.333 -638 400 -1036c-83.333 -62.667 -153.833 -120.667 -211.5 -174s-105.167 -119.666 -142.5 -198.999l-219.5 99.5c-73 33.667 -140.167 78.5 -201.5 134.5
c-2.66699 100.667 -4.66699 201.667 -6 303l-4 304c160 73.333 267.667 124.333 323 153zM562 285.999v21.002c0 224 -52.667 437 -158 639c-72.667 -34.667 -116 -97.334 -130 -188.001c-4.66699 -35.333 -7 -80.333 -7 -135s6.66699 -125.334 20 -212.001
c93.333 -74 185 -115.667 275 -125z" />
    <glyph glyph-name="e" unicode="e" horiz-adv-x="794" 
d="M520 31l-479 191.001c18 100 27 204.167 27 312.5s-10.333 221.5 -31 339.5l345 203v3l2 -1h1l389 -279l-405 -426c27.333 -32.667 57.666 -50.667 90.999 -54s60.833 -5 82.5 -5s47.334 1.16699 77.001 3.5s66.167 4.16602 109.5 5.49902l-105 -147zM354 810.001
c-38.667 0 -58 -52.667 -58 -158c0 -60 10 -120 30 -180c0 -6 1 -11 3 -15l161 170c11.333 12 17 24 17 36s-5.83301 27.333 -17.5 46s-23.5 34 -35.5 46c-42 36.667 -75.333 55 -100 55z" />
    <glyph glyph-name="f" unicode="f" horiz-adv-x="555" 
d="M586 1202c-50 30 -108.669 49.001 -176.002 57.001l-53 -77c12.667 -27.333 22.334 -61 29.001 -101h163v-252h-148c0 -62.667 -1.16699 -126.167 -3.5 -190.5s-4.16602 -124.5 -5.49902 -180.5c-3.33301 -126.667 -95 -411 -275 -853c-24.667 24.667 -52 41 -82 49
c46 164 73.5 340.5 82.5 529.5s13.5 346.167 13.5 471.5s-1.33301 237.333 -4 336c-1.33301 54 -28.333 102.333 -81 145c57.333 60.667 109.833 120.667 157.5 180s100.167 119.666 157.5 180.999c62 -7.33301 128.167 -18 198.5 -32l206.5 -41l-90 -112z" />
    <glyph glyph-name="g" unicode="g" horiz-adv-x="970" 
d="M67 759l390 317.001l419 -207c-51.333 -45.333 -77 -96.333 -77 -153l-4 -331c-0.666992 -22.667 19 -67.667 59 -135s70 -110 90 -128l-395 -453c-156 34.667 -328.333 58.667 -517 72l258 325c-86 35.333 -159.667 80.666 -221 135.999c22 29.333 36 75 42 137l-2 302
c0.666992 44 -13.333 83.333 -42 118zM701 -14.999c-77.333 88 -119.333 195.333 -126 322l-274 -350c105.333 0 218.333 -16.667 339 -50zM569 421.001l-2.99902 329.999l-177 85c-38.667 -58 -58 -109.667 -58 -155v-245c0 -49.333 7.5 -83.666 22.5 -102.999
s28.167 -35.5 39.5 -48.5s25.666 -23.833 42.999 -32.5z" />
    <glyph glyph-name="h" unicode="h" horiz-adv-x="892" 
d="M537 259l-222 -243.998l-147.5 112.5l-146.5 112.5c45.333 39.333 75 75.666 89 108.999s21.333 65 22 95l5 605c0 43.333 -1.83301 95 -5.5 155s-18.5 110.667 -44.5 152l330 179c-18 -80 -28.5 -163 -31.5 -249s-4.5 -173.333 -4.5 -262v-93l195 149
c186 -176.667 279 -377.334 279 -602.001c0 -249.333 -97 -523 -291 -821l-149 47c150 164.667 225 353 225 565c0 224 -86.667 411.333 -260 562l-3 -394c0 -50 4.66699 -78.333 14 -85s58 -37.667 146 -93z" />
    <glyph glyph-name="i" unicode="i" horiz-adv-x="470" 
d="M29 890l151 190.001l224 -105c-8 -27.333 -16.667 -54 -26 -80s-14 -52.667 -14 -80l-14 -406v-9c0 -31.333 10 -57.333 30 -78s43 -36.334 69 -47.001l-200 -244l-212 171c38.667 46 58 92 58 138l7 454c0 32 -24.333 64 -73 96zM59 1089l80 395l297 -119z" />
    <glyph glyph-name="j" unicode="j" horiz-adv-x="480" 
d="M60 890l150.997 189.999l224 -105c-7.33301 -27.333 -15.166 -54 -23.499 -80s-14.833 -60.833 -19.5 -104.5s-7 -95.334 -7 -155.001s-0.666992 -118.167 -2 -175.5s-17.333 -151.666 -48 -282.999s-97 -322 -199 -572c-21.333 20.667 -56.666 37 -105.999 49
c43.333 156.667 70.333 316.334 81 479.001s17.334 325 20.001 487l3 174c0 32 -24.667 64 -74 96zM89.9971 1089l80 395l299 -119z" />
    <glyph glyph-name="k" unicode="k" horiz-adv-x="711" 
d="M546 259l-222 -244l-294 225c72.667 64 109.667 132 111 204l3 275h-94l95 180l1 150c0 43.333 -1.83301 95 -5.5 155s-18.5 110.667 -44.5 152l330 179c-16.667 -68.667 -26.667 -146.667 -30 -234l160 160l195 -246l-237 -280h198l-113 -216h-210l-3 -282
c0 -50 4.33301 -81 13 -93s57.667 -40.333 147 -85zM391 1180c-0.666992 -26 -1 -52 -1 -78v-167h49l112 131c-13.333 87.333 -48 141 -104 161z" />
    <glyph glyph-name="l" unicode="l" horiz-adv-x="556" 
d="M537 259l-222 -243.999l-147.5 112.5l-146.5 112.5c45.333 39.333 75 75.666 89 108.999s21.333 65 22 95l5 605c0 43.333 -1.83301 95 -5.5 155s-18.5 110.667 -44.5 152l330 179c-18 -80 -28.5 -163 -31.5 -249s-4.5 -173.333 -4.5 -262l-4 -587
c0 -50 4.66699 -78.333 14 -85s58 -37.667 146 -93z" />
    <glyph glyph-name="m" unicode="m" horiz-adv-x="1350" 
d="M410 931l119 149.002l256 -189l151 189l319 -231l-30 -118l-13 -322v-9c0 -31.333 10 -57.333 30 -78s42.667 -36.334 68 -47.001l-200 -244c-49.333 38.667 -87.166 73 -113.499 103s-39.5 91.667 -39.5 185v21l7 370c0 26.667 -35.667 70.334 -107 131.001l-41 -71
l-15 -361v-6c0 -32.667 10 -59.5 30 -80.5s43 -36.833 69 -47.5l-200 -244l-213 171c38 44.667 57.667 90.667 59 138l6 370c0 29.333 -39 75.666 -117 138.999l-59 -70l-9 -370c-0.666992 -35.333 9.16602 -63.833 29.499 -85.5s43.5 -37.834 69.5 -48.501l-200 -244
l-211 171c38 46 57 92 57 138l8 454c0 32 -24.667 64 -74 96l151 190l213 -148v-1z" />
    <glyph glyph-name="n" unicode="n" horiz-adv-x="929" 
d="M404 934l116.999 146l319 -231l-30 -118l-13 -322v-6c0 -32.667 10 -59.5 30 -80.5s42.667 -36.833 68 -47.5l-200 -244c-49.333 38.667 -87.166 73 -113.499 103s-39.5 91.667 -39.5 185v21l7 370c0 28 -42.667 74.667 -128 140l-40 -63l-19 -378v-6
c0 -32.667 10 -59.5 30 -80.5s43 -36.833 69 -47.5l-200 -244l-211 171c38 46 57 92 57 138l8 454c0 32 -24.667 64 -74 96l151 190z" />
    <glyph glyph-name="o" unicode="o" horiz-adv-x="864" 
d="M80 801c155.333 104 284.332 198.333 386.999 283c51.333 -22 103 -61.333 155 -118c112.667 -120.667 179.334 -246.667 200.001 -378c2.66699 -15.333 4 -30 4 -44c0 -44 -12.333 -79.667 -37 -107l-332 -423l-428 211c45.333 94 68 175.333 68 244l-2 233
c-2 48 -7 81 -15 99zM348.999 836l-3 -424.999c6 -32.667 29 -58.167 69 -76.5s66.5 -27.5 79.5 -27.5s21.833 0.666992 26.5 2c58.667 13.333 88 50.333 88 111c0 14 -1.66699 29.667 -5 47c-22.667 110 -55.5 193.167 -98.5 249.5s-95.167 96.166 -156.5 119.499z" />
    <glyph glyph-name="p" unicode="p" horiz-adv-x="943" 
d="M419 -251c-114 -18 -231.001 -66.999 -351.001 -146.999l-50 54c20 12 47.5 52.5 82.5 121.5s52.5 131.167 52.5 186.5l3 205l-142 56c22.667 44.667 47.5 84 74.5 118s50.167 72 69.5 114l1 205c0 53.333 -21.833 95.666 -65.5 126.999l-91.5 65l224 230l192 -175
l141 175c51.333 -22 103 -61.333 155 -118c112.667 -120.667 179.334 -246.667 200.001 -378c2.66699 -15.333 4 -30 4 -44c0 -44 -12.333 -79.667 -37 -107l-332 -423l-141 56l-1 -39v-21.5c0 -9 4 -95.833 12 -260.5zM413.999 371.001
c92 -42.667 153.999 -63.999 185.999 -63.999c5.33301 0 10 0.666992 14 2c58 13.333 87 50 87 110c0 14.667 -1.66699 30.667 -5 48c-16.667 84.667 -46.667 154.667 -90 210s-89.666 98.666 -138.999 129.999c-10.667 -18 -21 -36.333 -31 -55s-15 -42 -15 -70z" />
    <glyph glyph-name="q" unicode="q" horiz-adv-x="881" 
d="M16 759l390 316.998l419 -207c-40.667 -35.333 -61.667 -86.333 -63 -153l-2 -744c0 -21.333 9 -46.166 27 -74.499s37.333 -52.166 58 -71.499l-178 -207c-35.333 27.333 -70 57.5 -104 90.5s-51 80.167 -51 141.5l-1 339c-37.333 -30 -75 -57.5 -113 -82.5
s-72 -51.167 -102 -78.5c-100 37.333 -193.333 95 -280 173c24 31.333 38.333 77 43 137l-3 302v8c0 39.333 -13.333 76 -40 110zM354 835.998c-39.333 -57.333 -59 -109 -59 -155v-245c0 -49.333 8.5 -85 25.5 -107l47.5 -59c14.667 -17.333 36 -30 64 -38l83 59v460z" />
    <glyph glyph-name="r" unicode="r" horiz-adv-x="811" 
d="M395 934l130.001 132c134 -92.667 224.667 -186.667 272 -282l-160 -214c-18 52.667 -42.5 99 -73.5 139s-82.5 81 -154.5 123l-33 -45l-19 -341c-2 -34.667 20 -70.667 66 -108s81.667 -61.333 107 -72l-166 -235l-310 241c37.333 44.667 56.666 90.667 57.999 138
l-2 384c-2 32 -26.667 64 -74 96l151 190z" />
    <glyph glyph-name="s" unicode="s" horiz-adv-x="897" 
d="M26 217l174.001 182c-62.667 84 -107 179 -133 285c80 132 198.333 264 355 396c123.333 -34 264.666 -66 423.999 -96l24 6l-188 -193l164 -411c-124 -92.667 -238 -211 -342 -355c-130 76.667 -289.333 138.667 -478 186zM555.001 286c67.333 0 101.001 24 101.001 72
c0 42 -48 130 -144 264l-240 -247c103.333 -59.333 197.666 -89 282.999 -89zM397.002 604l193.999 200.001c-116 31.333 -193.667 47 -233 47s-61.166 -3.83301 -65.499 -11.5s-6.5 -14.834 -6.5 -21.501c0 -38 37 -109.333 111 -214z" />
    <glyph glyph-name="t" unicode="t" horiz-adv-x="580" 
d="M535 275l-222.999 -244l-147 112.5l-146 112.5c72.667 64 109.667 132 111 204l4 415h-87v79l344 505l51 -8c-15.333 -72.667 -28.833 -132.5 -40.5 -179.5s-18.834 -105.5 -21.501 -175.5h176v-216h-179l-2 -426c0 -50 4.5 -78.333 13.5 -85s57.833 -38 146.5 -94z" />
    <glyph glyph-name="u" unicode="u" horiz-adv-x="979" 
d="M520 890l151 190l224 -105c-7.33301 -27.333 -15.833 -54 -25.5 -80s-14.5 -52.667 -14.5 -80l-14 -406v-6c0 -32.667 10 -59.5 30 -80.5s43 -36.833 69 -47.5l-200 -244l-218 190l-260 -190l-211 171c38.667 46 58 92 58 138l7 454c0 32 -24.667 64 -74 96l152 190
l223 -105c-7.33301 -27.333 -15.833 -54 -25.5 -80s-14.5 -52.667 -14.5 -80l-13 -406c-1.33301 -32 10.667 -65.667 36 -101c8 -10 18.667 -15 32 -15c33.333 0 85 30.333 155 91l7 410c0 32 -24.667 64 -74 96z" />
    <glyph glyph-name="v" unicode="v" horiz-adv-x="938" 
d="M529 14c-229.333 88.667 -384.335 150.333 -465.002 185c22.667 44.667 40.167 80.167 52.5 106.5s19.5 76.833 21.5 151.5l1 205c0 53.333 -21.833 95.666 -65.5 126.999l-91.5 65l223 230l193 -175l141 175c50.667 -22 102.334 -61.333 155.001 -118
c112.667 -120.667 179.334 -246.667 200.001 -378c2.66699 -15.333 4 -29.666 4 -42.999c0 -44.667 -12.667 -80.667 -38 -108zM393.998 370.999c92 -42.667 154 -63.998 186 -63.998c5.33301 0 10 0.666992 14 2c57.333 13.333 86 49.666 86 108.999
c0 14.667 -1.66699 31 -5 49c-16.667 84.667 -46.667 154.667 -90 210s-89.333 98.666 -138 129.999c-30 -28 -45.667 -62.333 -47 -103z" />
    <glyph glyph-name="w" unicode="w" horiz-adv-x="1290" 
d="M401 914c93.333 102.667 143.333 157.997 150 165.997l234 -171l130 175c46.667 -22 94 -61.333 142 -118c102.667 -120.667 163.667 -246.667 183 -378c2 -15.333 3 -30 3 -44c0 -44 -11.333 -79.667 -34 -107l-304 -423c-14 4.66699 -73.5 37.834 -178.5 99.501
s-156.833 93.834 -155.5 96.501l-169 -179l-348 229c41.333 55.333 63 105.333 65 150l5 380c0 20.667 -9.83301 37.834 -29.5 51.501l-53.5 38.5l146 200zM522 296.997c10 22.667 16.333 42.1689 19 58.502s4 50.166 4 101.499l1 205c0 26 -5.66699 50.333 -17 73l-35 37.5
c-8 9 -25.333 22.167 -52 39.5c-42 -28 -63.667 -57.333 -65 -88l-11 -278c-1.33301 -32.667 18.167 -62.334 58.5 -89.001s72.833 -46.667 97.5 -60zM781 370.999c85.333 -42.667 142.333 -63.999 171 -63.999c4.66699 0 9 0.666992 13 2c52.667 13.333 79 51 79 113
c0 13.333 -1.33301 28.333 -4 45c-16 84.667 -44 154.667 -84 210s-82.333 98.666 -127 129.999c-28 -28.667 -42.333 -63 -43 -103z" />
    <glyph glyph-name="x" unicode="x" horiz-adv-x="836" 
d="M262 323l12.001 -179.002c-77.333 -20 -165.666 -57.667 -264.999 -113c31.333 162.667 120.333 362.334 267 599.001c-46 80 -86.667 145.667 -122 197c-12.667 18 -31.334 27.833 -56.001 29.5s-48.334 2.5 -71.001 2.5c26 36.667 57.333 73.334 94 110.001
s88.667 73.667 156 111c35.333 -72 78.666 -155.667 129.999 -251l184 251l226 -103l-128 -230c-48.667 52 -97 88 -145 108l-88 -115c75.333 -134 151.333 -257.667 228 -371c34 -52 79.667 -80 137 -84c-90 -101.333 -175 -186 -255 -254l-116.5 251
c-38.333 84.667 -79.166 168.667 -122.499 252c-43.333 -86.667 -65 -157 -65 -211z" />
    <glyph glyph-name="y" unicode="y" horiz-adv-x="976" 
d="M464 34l-112 50.999l-241 74c40 50 60 110.333 60 181l8 454c0 33.333 -24.667 65.333 -74 96l151 190l240 -159c-7.33301 -27.333 -17.5 -46.833 -30.5 -58.5s-20.833 -31.167 -23.5 -58.5l-45 -469c-2 -20.667 11.5 -52.667 40.5 -96s65.5 -66 109.5 -68
c69.333 159.333 106 367 110 623c1.33301 31.333 -22.667 63.333 -72 96l151 190l226 -159c-7.33301 -27.333 -15 -45.166 -23 -53.499s-20.333 -49.666 -37 -123.999s-52.5 -176.833 -107.5 -307.5s-115.333 -252.834 -181 -366.501s-132.667 -212.667 -201 -297
s-129.5 -140.5 -183.5 -168.5l-194 158c194.667 71.333 337.667 162 429 272z" />
    <glyph glyph-name="z" unicode="z" horiz-adv-x="776" 
d="M391 461c-38.667 34 -98.998 69.333 -180.998 106l246 262c-27.333 4.66699 -57 7 -89 7c-82.667 0 -179.667 -17 -291 -51l59 319c79.333 -30.667 164.333 -46 255 -46c11.333 0 45.666 1.16699 102.999 3.5s138 5.16602 242 8.49902l-251 -303
c104.667 -83.333 175.167 -163.833 211.5 -241.5s54.5 -154.167 54.5 -229.5c-2.66699 -164.667 -71.334 -320 -206.001 -466c-98.667 -107.333 -201.334 -161 -308.001 -161c-40 0 -82.5 8.33301 -127.5 25s-67.5 69.334 -67.5 158.001c0 107.333 16 200.666 48 279.999
c48.667 122.667 149.334 232.334 302.001 329.001zM245.002 -141c28.667 -20.667 56.832 -30.999 84.499 -30.999s54.834 9.33301 81.501 28c99.333 71.333 149 158.666 149 261.999c0 60.667 -17.667 125.334 -53 194.001c-16.667 4 -39 6 -67 6
s-65.167 -13.167 -111.5 -39.5s-82.5 -57 -108.5 -92s-46 -85.833 -60 -152.5c-2 -10.667 -3 -21.334 -3 -32.001c0 -53.333 29.333 -101 88 -143z" />
    <glyph glyph-name="braceleft" unicode="{" horiz-adv-x="555" 
d="M563 -49c0 -13.333 -9.5 -21.0049 -28.5 -23.0049s-30.167 -3 -33.5 -3l-28 -2h-21c-53.333 0 -108 10.667 -164 32c-32.667 18 -58.334 37.333 -77.001 58c-18 16 -31 39.667 -39 71l-2 432c0 20.667 -3.66699 44.334 -11 71.001c-9.33301 34 -20.333 57.333 -33 70
c-19.333 20.667 -41.5 34.834 -66.5 42.501s-38.333 13.334 -40 17.001s-2.5 7.5 -2.5 11.5c0 10.667 7 17.334 21 20.001c39.333 8.66699 68.333 22.334 87 41.001c21.333 28.667 32 64 32 106v488c2.66699 16.667 13.667 36 33 58c32 38 64 61 96 69c72 12 150 18 234 18
h31c13.333 0 20 -6.66699 20 -20v-23c0 -5.33301 -2 -10 -6 -14s-10.333 -6.16699 -19 -6.5s-19.834 -1.83301 -33.501 -4.5s-27.167 -6 -40.5 -10c-22.667 -6.66699 -47 -16 -73 -28c-14.667 -17.333 -25 -33.666 -31 -48.999v-471c-11.333 -65.333 -46 -125 -104 -179
c30 -26 56 -53.333 78 -82c18.667 -30 28 -67.333 28 -112v-434c8.66699 -28 17.334 -47 26.001 -57c10.667 -11.333 25.334 -23.333 44.001 -36c8 -2.66699 15.5 -4.33398 22.5 -5.00098s13.833 -1 20.5 -1h29c13.333 2.66699 21.333 4 24 4h6c14 -0 21 -6.66699 21 -20
v-29z" />
    <glyph glyph-name="bar" unicode="|" horiz-adv-x="236" 
d="M171 0h-122v1534h122v-1534z" />
    <glyph glyph-name="braceright" unicode="}" horiz-adv-x="596" 
d="M220 -68c-13.333 -2.66699 -29.6641 -3.99121 -48.9971 -3.99121h-77c-13.333 0 -28.833 0.666992 -46.5 2s-26.5 8.66602 -26.5 21.999v29c0 6 2.5 11.167 7.5 15.5s10.833 5.83301 17.5 4.5c12 -2.66699 22 -4 30 -4h19l16 2c1.33301 0 2.33301 0.333008 3 1
s1.66699 1 3 1h-4c4 1.33301 9.33301 2.5 16 3.5s13.667 2.83301 21 5.5c20 6 38.333 28.333 55 67v481c2 22 9.66699 45.333 23 70c32.667 43.333 77.667 76.666 135 99.999c-20 9.33301 -35.667 17.666 -47 24.999v-2c-25.333 14 -52 40 -80 78
c-1.33301 2 -2.33301 4.33301 -3 7s-1.66699 5 -3 7l-12 29c-2.66699 5.33301 -4 12 -4 20l-2 11v423c0 30 -8.33301 58.667 -25 86c-8 9.33301 -23.667 21.666 -47 36.999h4c-10.667 3.33301 -26.334 6.33301 -47.001 9l-49 2h-17c-13.333 0 -20 6.66699 -20 20v31
c0 13.333 6.66699 20 20 20h37l41 2c59.333 0 106 -3.83301 140 -11.5s66 -18.834 96 -33.501c26.667 -18 44 -36.667 52 -56c12.667 -33.333 19 -71.333 19 -114v-389c1.33301 -9.33301 2.83301 -18.833 4.5 -28.5s3.16699 -17.834 4.5 -24.501
s2.66602 -14.334 3.99902 -23.001s4 -18.667 8 -30l-2 2c4 -12.667 10 -23 18 -31c30.667 -18 56.667 -30.333 78 -37s33 -11.834 35 -15.501s3 -7.83398 3 -12.501c0 -11.333 -5.66699 -17.666 -17 -18.999c-51.333 -4 -89 -27.333 -113 -70l2 2c-14 -26 -23 -58 -27 -96
c1.33301 -32 2 -63.333 2 -94v-239c0 -36 -0.666992 -73 -2 -111v-13c-2.66699 -22.667 -7.33398 -39.334 -14.001 -50.001c-8 -13.333 -12 -21 -12 -23l2 2c-14 -26 -34 -45.333 -60 -58h2c-32.667 -18.667 -70 -28 -112 -28z" />
    <glyph glyph-name="asciitilde" unicode="~" horiz-adv-x="635" 
d="M177 835l-6.00098 -2c-8.66699 -10.667 -18 -21.334 -28 -32.001s-17 -19 -21 -25c-6.66699 -10 -13.667 -15 -21 -15h-8c-21.333 0 -36.333 7 -45 21c-2.66699 2.66699 -4 6 -4 10s3 12 9 24c15.333 34 49.666 82.667 102.999 146c6.66699 6 11 9.66699 13 11
c24 16 39.5 23.833 46.5 23.5s10.833 -0.666016 11.5 -0.999023s1.66699 -0.5 3 -0.5l-18 -21l24 19l2 2l246 -103h6c7.33301 0 17 2 29 6c5.33301 5.33301 10.833 12.833 16.5 22.5l14.5 25.5c7.33301 13.333 16.666 18 27.999 14l39 -13c10 -3.33301 15 -9.33301 15 -18
c0 -18 -41 -73.333 -123 -166c-15.333 -23.333 -34 -35 -56 -35h-16c-7.33301 0 -16.166 2.66699 -26.499 8s-20.166 9.5 -29.499 12.5s-17.833 6.16699 -25.5 9.5s-12.667 5.33301 -15 6s-11.166 4 -26.499 10c-39.333 16 -82.333 36.333 -129 61h-8zM232.999 994
c-0.666992 0 -1 0.333008 -1 1c0 -0.666992 0.333008 -1 1 -1zM184.999 835h-2h2z" />
    <glyph glyph-name="uni00A0" unicode="&#xa0;" horiz-adv-x="333" 
 />
    <glyph glyph-name="exclamdown" unicode="&#xa1;" horiz-adv-x="454" 
d="M218 681l-206 205l206 206l206 -206zM436 -224l-342 -290.001l32 1000l180 161c0 -186.667 6.16699 -360.667 18.5 -522s49.5 -277.666 111.5 -348.999z" />
    <glyph glyph-name="cent" unicode="&#xa2;" horiz-adv-x="875" 
d="M533 345c78 24 133.334 63.334 166.001 118.001l42.5 -29.5l43.5 -29.5c-56.667 -55.333 -109.834 -103 -159.501 -143l-92.5 -75v-186h-122v82l-57 -53c-213.333 141.333 -320 306 -320 494c0 92.667 29.833 183.834 89.5 273.501s155.834 187.5 288.501 293.5v34h122
v-108c63.333 -38.667 162.666 -95.334 297.999 -170.001l-200 -176c-40 21.333 -73 39.666 -99 54.999v-380zM412.001 801.001l-35 17c-11.333 5.33301 -22.833 8 -34.5 8s-24.167 -6.66699 -37.5 -20c-41.333 -42 -62 -89.333 -62 -142c0 -92.667 54 -191.667 162 -297
l6 -6z" />
    <glyph glyph-name="sterling" unicode="&#xa3;" horiz-adv-x="1166" 
d="M99 533l52.999 155.999l92 -1c-3.33301 44.667 -19.833 101 -49.5 169s-51 128.333 -64 181s-19.5 88.334 -19.5 107.001c0 46.667 18 78 54 94c110.667 48.667 225.667 93.5 345 134.5s219 78.333 299 112s134.333 50.5 163 50.5s51.334 -6 68.001 -18
c36.667 -27.333 64 -75 82 -143c-94.667 -2 -188.667 -13 -282 -33s-172.666 -48.333 -237.999 -85c-14.667 -7.33301 -36.334 -19.333 -65.001 -36c-56.667 -34 -85 -76.333 -85 -127c0 -17.333 16.333 -94.666 49 -231.999c10.667 -47.333 16 -85.833 16 -115.5
s-0.333008 -49.834 -1 -60.501l226 -1l-53 -156l-196 1c-17.333 -60.667 -43 -103.667 -77 -129c225.333 -63.333 453.333 -95 684 -95h35c-30.667 -49.333 -55.5 -87.333 -74.5 -114s-43.5 -64 -73.5 -112c-22 -32.667 -55.333 -49 -100 -49
c-19.333 0 -68.5 8.33301 -147.5 25l-319 65.5l-399.5 82.5c106 128 173.667 237.333 203 328z" />
    <glyph glyph-name="currency" unicode="&#xa4;" horiz-adv-x="1024" 
d="M905 702c0 -95.333 -26.6641 -171.671 -79.9971 -229.004l172 -166c2.66699 -2.66699 4 -5.66699 4 -9s-2 -7.66602 -6 -12.999l-67 -72c-3.33301 -4.66699 -6.33301 -7 -9 -7c-7.33301 0 -14 2.33301 -20 7l-176 166c-50.667 -38 -121.834 -57 -213.501 -57
s-164.5 21 -218.5 63l-168 -174c-6.66699 -8.66699 -15 -8 -25 2l-67 76c-4 4 -6 8 -6 12s2.66699 8 8 12l168 162c-50.667 54 -77.334 123 -80.001 207c3.33301 98.667 32 176.334 86 233.001l-170 152c-7.33301 7.33301 -11 13.5 -11 18.5s2.33301 10.5 7 16.5l69 74
c3.33301 4 7 6 11 6s8.66699 -2.66699 14 -8l180 -170c56.667 36.667 127 55 211 55s153 -18.333 207 -55l172 167c3.33301 4 7 6 11 6s8 -2 12 -6l67 -67c10 -9.33301 11.333 -17.666 4 -24.999l-164 -153c35.333 -39.333 59.666 -94.666 72.999 -165.999
c3.33301 -20 5 -39.333 5 -58zM516.003 464.995c32.667 0 61.666 5.50098 86.999 16.501s46.333 26.5 63 46.5c34 38.667 51 92.667 51 162c0 103.333 -37.667 172.666 -113 207.999c-25.333 11.333 -54.666 17 -87.999 17s-63 -6 -89 -18s-47.667 -28.333 -65 -49
c-34 -42 -51 -94.667 -51 -158c0 -62 18.333 -114.333 55 -157c38.667 -45.333 88.667 -68 150 -68z" />
    <glyph glyph-name="yen" unicode="&#xa5;" horiz-adv-x="1085" 
d="M127 827h232l-198 470h-93v68h426v-68h-87l229 -551l152 368c26 62.667 39 101 39 115c0 36 -11.667 57.333 -35 64c-10.667 2.66699 -35.667 4 -75 4v68h328v-68c-40 -2 -63.667 -4 -71 -6c-18 -4.66699 -39.167 -29 -63.5 -73s-38.5 -72.333 -42.5 -85l-126 -306h244
v-86h-280l-39 -95v-129h319v-86h-319v-363h121v-68h-456v68h122v363h-327v86h327v85l-59 139h-268v86z" />
    <glyph glyph-name="brokenbar" unicode="&#xa6;" horiz-adv-x="1024" 
d="M457 1365h109v-672h-109v672zM457 314h109v-655h-109v655z" />
    <glyph glyph-name="section" unicode="&#xa7;" horiz-adv-x="973" 
d="M618 1119l11.001 87.002c0 23.333 -10.667 43.166 -32 59.499s-55.5 24.5 -102.5 24.5s-88 -13.833 -123 -41.5s-52.5 -55.167 -52.5 -82.5c0 -45.333 14 -83.333 42 -114c25.333 -30.667 90.666 -75 195.999 -133c246.667 -133.333 370 -267 370 -401
c0 -52.667 -16.667 -101.667 -50 -147s-90.666 -92.333 -171.999 -141c52.667 -43.333 94 -87 124 -131c22 -37.333 33 -79.333 33 -126s-14.833 -90.667 -44.5 -132s-73.834 -73.833 -132.501 -97.5s-134 -35.5 -226 -35.5s-167.5 21.833 -226.5 65.5
s-88.5 93.834 -88.5 150.501c0 32 11.5 58.5 34.5 79.5s51.167 31.5 84.5 31.5s61.666 -9.83301 84.999 -29.5s35 -38.834 35 -57.501s-4.33301 -38.834 -13 -60.501s-13 -39.5 -13 -53.5s10.667 -28 32 -42s57 -21 107 -21s92.167 12.667 126.5 38s51.5 56.833 51.5 94.5
s-11 70.167 -33 97.5c-31.333 34 -103 81 -215 141s-200.833 124.167 -266.5 192.5s-98.5 129.833 -98.5 184.5s16.667 105.667 50 153s90.333 100.333 171 159c-104.667 75.333 -157 152.833 -157 232.5s35.5 147.667 106.5 204s159.667 84.5 266 84.5
s191.833 -23 256.5 -69s97 -95.667 97 -149c0 -32 -11.5 -58.333 -34.5 -79s-51.167 -31 -84.5 -31s-60.666 9.33301 -81.999 28s-32 41 -32 67zM338.001 791.002c-66 -48.667 -99 -100.667 -99 -156c0 -28.667 10 -58.667 30 -90c20.667 -29.333 54.667 -61 102 -95
l283 -183c38 32 62 57 72 75c18.667 33.333 28 62.333 28 87c0 58 -46 118.667 -138 182z" />
    <glyph glyph-name="dieresis" unicode="&#xa8;" horiz-adv-x="882" 
d="M544 1106l70 320c88.667 -18 169 -47.667 241 -89c-96 -90.667 -199.667 -167.667 -311 -231zM259 1076l46 369.001c84.667 -20.667 160 -49.334 226 -86.001c-80 -102 -170.667 -196.333 -272 -283z" />
    <glyph glyph-name="copyright" unicode="&#xa9;" horiz-adv-x="1311" 
d="M620 974c-89.333 0 -134.002 -73 -134.002 -219c0 -48.667 5.16699 -95.667 15.5 -141s21.333 -79.166 33 -101.499s24.834 -42.5 39.501 -60.5c30.667 -35.333 65.667 -53 105 -53c78 0 133.333 43.667 166 131l2 9h42l22 1l-9 -21
c-25.333 -63.333 -61.833 -113 -109.5 -149s-96 -54 -145 -54s-91.5 9.33301 -127.5 28s-67.333 44.667 -94 78c-57.333 72 -86 156.667 -86 254c0 69.333 22.667 142.666 68 219.999c55.333 92 129 138 221 138c49.333 0 98.333 -16.667 147 -50
c9.33301 -6.66699 19.333 -10 30 -10c21.333 0 39.333 15 54 45l4 6h60l-90 -175l-5 -9h-42c-21.333 70 -56.666 112 -105.999 126c-16.667 4.66699 -37 7 -61 7zM654.998 1181c69.333 0 134.167 -13.332 194.5 -39.999s113.166 -62.667 158.499 -108
c96 -97.333 144 -216.333 144 -357s-48 -260 -144 -358c-97.333 -98 -214.666 -147 -351.999 -147c-138.667 0 -256.667 49 -354 147c-95.333 97.333 -143 216.666 -143 357.999c0 138.667 47.667 257 143 355c98 100 215.667 150 353 150zM974.999 1000
c-89.333 90.667 -195.667 136 -319 136c-126.667 0 -234 -44.667 -322 -134c-88 -88.667 -132 -197.334 -132 -326.001c0 -123.333 42.667 -230.666 128 -321.999c87.333 -92.667 196 -139 326 -139c125.333 0 231.333 44.333 318 133
c88.667 91.333 133 200.666 133 327.999c0 62.667 -12 122.334 -36 179.001s-56 105 -96 145z" />
    <glyph glyph-name="ordfeminine" unicode="&#xaa;" horiz-adv-x="609" 
d="M24 1316l258 209l292 -136c-34.667 -30 -52.334 -63.667 -53.001 -101l-2 -219c0 -14.667 7.83301 -31.5 23.5 -50.5s30.5 -34.167 44.5 -45.5l-134 -138l-102 105c-24.667 -19.333 -49.5 -37.333 -74.5 -54s-47.5 -34 -67.5 -52c-66 24.667 -127.667 62.667 -185 114
c16.667 20.667 26.334 51 29.001 91l-2 199v5c0 26 -9 50.333 -27 73zM251 1367c-25.333 -38.667 -37.999 -73.002 -37.999 -103.002v-161c0 -33.333 5.5 -57.166 16.5 -71.499l29 -38.5c8.33301 -11.333 22.166 -19.666 41.499 -24.999l54 39v304z" />
    <glyph glyph-name="guillemotleft" unicode="&#xab;" horiz-adv-x="1235" 
d="M39 575l463 488l166 -105l-301 -378l301 -387l-166 -105zM530 575l463 488l166 -105l-301 -378l301 -387l-166 -105z" />
    <glyph glyph-name="logicalnot" unicode="&#xac;" horiz-adv-x="690" 
d="M96 701h498v-227h-85v127h-413v100z" />
    <glyph glyph-name="uni00AD" unicode="&#xad;" horiz-adv-x="690" 
d="M96 701h495v-100h-495v100z" />
    <glyph glyph-name="registered" unicode="&#xae;" horiz-adv-x="1311" 
d="M632 1186c72.667 0 141.334 -13.167 206.001 -39.5s120.667 -61.833 168 -106.5c102 -96 153 -212.333 153 -349s-51 -253.667 -153 -351c-100.667 -96.667 -225.334 -145 -374.001 -145c-146 0 -270.333 48.333 -373 145c-102 95.333 -153 212.333 -153 351
c0 135.333 50.667 251 152 347c103.333 98.667 228 148 374 148zM555 676l121 -0.00195312c64 7.33301 96 47 96 119c0 6 -0.333008 12 -1 18s-2 19.333 -4 40s-6.16699 40.334 -12.5 59.001s-15.833 32.334 -28.5 41.001c-17.333 12 -56 18 -116 18h-55v-295zM904 461.998
c8 12.667 11.999 29.334 11.999 50.001v15l44 -3l14 -2v-13c0 -55.333 -9.66699 -98.833 -29 -130.5s-51.833 -47.5 -97.5 -47.5s-83 13 -112 39s-46.167 54.333 -51.5 85l-13 73c-3.33301 18 -7.66602 33.667 -12.999 47c-12 29.333 -30.667 44 -56 44h-50l-1 -203
c0 -4.66699 6.33301 -9.33398 19 -14.001s21.334 -7 26.001 -7h16v-56h-272v56h16c6.66699 0 15.834 2.33301 27.501 7s17.5 9.33398 17.5 14.001v544c0 1.33301 -5.16699 3.5 -15.5 6.5s-20.166 4.5 -29.499 4.5h-16v56h371c91.333 -5.33301 153.333 -38.333 186 -99
c13.333 -24.667 20 -55.334 20 -92.001c0 -122.667 -54.333 -194 -163 -214c18.667 -13.333 32.167 -30 40.5 -50s15.666 -38.833 21.999 -56.5s13.666 -33 21.999 -46s19.666 -19.5 33.999 -19.5s24.833 4 31.5 12zM970.999 1009c-94 88 -207.001 132 -339.001 132
c-134 0 -247.333 -44 -340 -132c-94 -88.667 -141 -194.667 -141 -318c0 -120.667 45.833 -226.167 137.5 -316.5s206.167 -135.5 343.5 -135.5c132.667 0 245.334 43 338.001 129c96 90 144 196.167 144 318.5s-47.667 229.833 -143 322.5z" />
    <glyph glyph-name="macron" unicode="&#xaf;" horiz-adv-x="690" 
d="M88 1413h495v-100h-495v100z" />
    <glyph glyph-name="degree" unicode="&#xb0;" horiz-adv-x="683" 
d="M274 1512c18.667 17.333 39.333 25.998 62 25.998s47.667 -11.667 75 -35c167.333 -147.333 251 -291.666 251 -432.999c0 -152 -85.333 -305.667 -256 -461c-28 -24.667 -55.333 -37 -82 -37s-52 12.333 -76 37c-146.667 150.667 -220 301.334 -220 452.001
s82 301 246 451zM187.999 1308c-29.333 -19.333 -44 -52.832 -44 -100.499s25 -116.834 75 -207.501c66.667 -121.333 127.667 -182 183 -182c16 0 31.667 5 47 15c30.667 20 46 54 46 102s-24.333 116.667 -73 206c-67.333 122 -129.333 183 -186 183
c-16 0 -32 -5.33301 -48 -16z" />
    <glyph glyph-name="plusminus" unicode="&#xb1;" horiz-adv-x="1024" 
d="M430 311v285h-324v156h324v266h168v-266h322v-156h-322v-285h-168zM920 166v-156h-814v156h814z" />
    <glyph glyph-name="uni00B2" unicode="&#xb2;" horiz-adv-x="723" 
d="M668 922c-6.66699 -42 -23.6719 -139.332 -51.0049 -291.999c-93.333 14 -165.333 21 -216 21c-143.333 0 -272.666 -7 -387.999 -21c138.667 128 243.334 238.167 314.001 330.5s106 169.833 106 232.5c0 67.333 -49.333 128 -148 182c-14 7.33301 -26 11 -36 11
s-18.333 -2.66699 -25 -8c-15.333 -10.667 -17.166 -29.5 -5.49902 -56.5s30.334 -49.333 56.001 -67s50.834 -33.5 75.501 -47.5l-68 -94.5l-67 -92.5c-102 89.333 -153 161.666 -153 216.999s37.333 122 112 200s136.667 117 186 117
c50.667 0 110.834 -32.5 180.501 -97.5s104.5 -129.167 104.5 -192.5c0 -36 -12 -71.333 -36 -106c-66.667 -94 -154 -197 -262 -309l119 -1c20 0 40 0.333008 60 1c55.333 0.666992 94.333 31 117 91c5.33301 -4.66699 13.666 -10.667 24.999 -18z" />
    <glyph glyph-name="uni00B3" unicode="&#xb3;" horiz-adv-x="678" 
d="M472 1277c117.333 -104.667 176.002 -206.667 176.002 -306c0 -83.333 -43.333 -159.333 -130 -228s-167.334 -103 -242.001 -103c-18.667 0 -37.334 2.33301 -56.001 7c-88 23.333 -157 88.333 -207 195l88 95.5l88 96.5c19.333 -127.333 53.666 -214 102.999 -260
c21.333 -20.667 45.166 -31 71.499 -31s55.5 16.667 87.5 50c30 31.333 45 61.833 45 91.5s-12 58.167 -36 85.5c-50.667 59.333 -130 110 -238 152l191 233c-53.333 6.66699 -97.166 10 -131.499 10s-62.166 -1.66699 -83.499 -5c-54.667 -7.33301 -81.667 -34 -81 -80
l-44 20l42.5 158l42.5 158c69.333 -54 148.5 -82.5 237.5 -85.5s179.167 -5.5 270.5 -7.5z" />
    <glyph glyph-name="acute" unicode="&#xb4;" horiz-adv-x="1420" 
d="M1149 1351v65c0 106 16.667 213.667 50 323l230 -37z" />
    <glyph glyph-name="uni00B5" unicode="&#xb5;" horiz-adv-x="983" 
d="M45 890l150.999 190l1 -1l1 1l223 -105l-40 -150v-10l-13 -406c-1.33301 -32 10.667 -65.667 36 -101c8 -10 18.667 -15 32 -15c33.333 0 85 30.333 155 91l7 410c0 32 -24.667 64 -74 96l151 190l224 -105c-7.33301 -27.333 -15.833 -54 -25.5 -80
s-14.5 -52.667 -14.5 -80l-14 -406v-6c0 -32.667 10 -59.5 30 -80.5s43 -36.833 69 -47.5l-200 -244l-218 190l-243 -178c-36.667 -116 -90.667 -262 -162 -438c-21.333 20.667 -56.666 37 -105.999 49c43.333 156.667 70.5 329.167 81.5 517.5s17.5 337.833 19.5 448.5
l3 174c0 32 -24.667 64 -74 96z" />
    <glyph glyph-name="paragraph" unicode="&#xb6;" horiz-adv-x="1575" 
d="M1297 254c0 -16.667 8.66699 -25.001 26 -25.001c73.333 4 126.666 10.333 159.999 19c15.333 2.66699 29.333 -0.333008 42 -9c12 -10 18 -22.667 18 -38v-15c0 -26.667 -13 -42.667 -39 -48c-38 -7.33301 -101.667 -13.333 -191 -18c-14.667 0 -22.5 -11 -23.5 -33
s-2.16699 -45.167 -3.5 -69.5s-2.33301 -46.166 -3 -65.499c-2.66699 -30 -19.334 -45 -50.001 -45s-46.334 15.333 -47.001 46c-2.66699 28.667 -5 75 -7 139c-1.33301 16 -12 23.667 -32 23s-42.333 -1 -67 -1h-71c-16 0 -24.5 -10.833 -25.5 -32.5l-3 -67.5
c-1 -23.333 -2.16699 -44 -3.5 -62c-1.33301 -30 -17.666 -45 -48.999 -45s-47.333 15.333 -48 46c-2 34 -4 80 -6 138c-1.33301 15.333 -9.66602 23 -24.999 23h-78c-202 0 -374.167 61.833 -516.5 185.5s-213.5 272.667 -213.5 447s71.167 323.333 213.5 447
s314.5 185.5 516.5 185.5h24c16.667 0 25 8.66699 25 26l-7 67.5c-1.33301 12.333 3.66699 23.5 15 33.5s23.333 15 36 15l70 -8l63 7c11.333 0 22.5 -4.66699 33.5 -14s15.667 -23.833 14 -43.5l-4 -47.5c-1 -12 1.16699 -20.833 6.5 -26.5s12.666 -8.5 21.999 -8.5h32
c6.66699 0 12.334 2.5 17.001 7.5s6.66699 12.167 6 21.5s-1.33398 19.166 -2.00098 29.499s-1.5 21.833 -2.5 34.5s3.83301 23.834 14.5 33.501s22.334 14.5 35.001 14.5l71 -8l63 7c10.667 0 21.334 -3.66699 32.001 -11c11.333 -11.333 16.333 -26 15 -44l-4.5 -60
c-1.66699 -22 5.5 -33.333 21.5 -34c36.667 -3.33301 68.167 -7.33301 94.5 -12s39.5 -20.667 39.5 -48v-3c0 -15.333 -6.5 -28 -19.5 -38s-28.5 -12.667 -46.5 -8c-50.667 12 -80.667 13.667 -90 5c-5.33301 -4.66699 -8 -10.334 -8 -17.001
c-8 -140 -15.167 -303.167 -21.5 -489.5s-12.5 -355.166 -18.5 -506.499zM1032 1261c-2.66699 -52 -16.335 -389.665 -41.002 -1013c0 -7.33301 2.5 -13.5 7.5 -18.5s14.167 -7.5 27.5 -7.5h53c52.667 0 81.5 2.66699 86.5 8s7.5 11.333 7.5 18
c-6 153.333 -12.167 325.166 -18.5 515.499s-13.166 356.166 -20.499 497.499c-1.33301 14 -8.16602 21.333 -20.499 22s-22.833 1 -31.5 1h-26c-16 -1.33301 -24 -9 -24 -23zM796.999 1267c-58 -20 -105.501 -67.5 -142.501 -142.5s-55.5 -204.333 -55.5 -388
s22.833 -311.5 68.5 -383.5s102.834 -113.667 171.501 -125c2 -0.666992 3.66699 -1 5 -1l15 6c5.33301 4 8 9.66699 8 17l-19 506c-6 186 -12.333 349 -19 489c0 6.66699 -3.33301 13 -10 19c-4.66699 2.66699 -9.66699 4 -15 4z" />
    <glyph glyph-name="periodcentered" unicode="&#xb7;" horiz-adv-x="507" 
d="M254 1164l240 -240l-240 -240l-240 240z" />
    <glyph glyph-name="cedilla" unicode="&#xb8;" horiz-adv-x="1024" 
d="M555 0l67.999 0.00195312l-99 -154c36 10 73 15 111 15s74.5 -12.833 109.5 -38.5s52.5 -59.834 52.5 -102.501c0 -60.667 -29.667 -104.334 -89 -131.001c-40.667 -18.667 -88 -28 -142 -28c-106.667 0 -188 12 -244 36l20 45c37.333 -12.667 76 -19 116 -19
c90 0 135 30.667 135 92c0 24 -8.16699 42.167 -24.5 54.5s-35.166 18.5 -56.499 18.5s-40.333 -4.33301 -57 -13l-30 29z" />
    <glyph glyph-name="uni00B9" unicode="&#xb9;" horiz-adv-x="486" 
d="M94 647c112 10.667 167.999 166.333 167.999 467c0 67.333 -3.33301 140.666 -10 219.999l-241 2l-10 54c170.667 34 324.334 102.333 461.001 205l-9 -911c-96 -3.33301 -202.667 -33.666 -320 -90.999z" />
    <glyph glyph-name="ordmasculine" unicode="&#xba;" horiz-adv-x="570" 
d="M53 1338c102.667 68.667 187.665 130.668 254.998 186.001c34 -14 68.333 -39.667 103 -77c74.667 -80.667 118.334 -164.334 131.001 -251.001c2 -9.33301 3 -23.5 3 -42.5s-8 -37.833 -24 -56.5l-219 -279l-283 139c30 62 45 116 45 162l-1 153
c-1.33301 32 -4.66602 54 -9.99902 66zM229.998 1361l-2.00293 -280.999c4 -21.333 19.333 -38 46 -50s44.334 -18 53.001 -18s14.334 0.333008 17.001 1c38.667 8.66699 58 33 58 73c0 9.33301 -1 19.666 -3 30.999c-27.333 130.667 -83.666 212 -168.999 244z" />
    <glyph glyph-name="guillemotright" unicode="&#xbb;" horiz-adv-x="1235" 
d="M733 88l-166 105l301 387l-301 378l166 105l463 -488zM242 88l-166 105l301 387l-301 378l166 105l463 -488z" />
    <glyph glyph-name="onequarter" unicode="&#xbc;" horiz-adv-x="1412" 
d="M138 647c112 10.667 167.999 166.333 167.999 467c0 67.333 -3.33301 140.666 -10 219.999l-241 2l-10 54c170.667 34 324.334 102.333 461.001 205l-9 -911c-96 -3.33301 -202.667 -33.666 -320 -90.999zM1055 428.999l-0.00195312 48c0 22.667 -3 69.334 -9 140.001
l204 226c-11.333 -156 -18 -290.333 -20 -403c36.667 3.33301 75.334 9 116.001 17l-5 -200l-109 2c2.66699 -80 8.66699 -145.333 18 -196c-75.333 -8 -173.666 -28 -294.999 -60c40.667 77.333 69 163.666 85 258.999l-323 5l298 700l256 8
c-163.333 -168 -290.333 -348.667 -381 -542c46 -3.33301 82 -5 108 -5s45 0.333008 57 1zM256.997 -70.001c-13.333 0 -20.001 7.00098 -20.001 21.001c0 3.33301 0.666992 6.66602 2 9.99902l749 1454c2.66699 6.66699 8.33398 10 17.001 10h71
c14.667 0 22 -6.33301 22 -19c0 -2.66699 -1 -5.66699 -3 -9l-746 -1456c-2.66699 -7.33301 -8 -11 -16 -11h-76z" />
    <glyph glyph-name="onehalf" unicode="&#xbd;" horiz-adv-x="1535" 
d="M144 647c112 10.667 167.999 166.333 167.999 467c0 67.333 -3.33301 140.666 -10 219.999l-241 2l-10 54c170.667 34 324.334 102.333 461.001 205l-9 -911c-96 -3.33301 -202.667 -33.666 -320 -90.999zM256.999 -70.001c-13.333 0 -20.001 7.00098 -20.001 21.001
c0 3.33301 0.666992 6.66602 2 9.99902l749 1454c2.66699 6.66699 8.33398 10 17.001 10h71c8.66699 0 15 -3.16699 19 -9.5s4 -12.5 0 -18.5l-746 -1456c-2.66699 -7.33301 -8 -11 -16 -11h-76zM1401 291c-6.66699 -42 -23.6719 -139.332 -51.0049 -291.999
c-93.333 14 -165.333 21 -216 21c-143.333 0 -272.666 -7 -387.999 -21c138.667 128 243.334 238.167 314.001 330.5s106 169.833 106 232.5c0 67.333 -49.333 128 -148 182c-14 7.33301 -26 11 -36 11s-18.333 -2.33301 -25 -7
c-15.333 -11.333 -17.166 -30.5 -5.49902 -57.5s30.334 -49.333 56.001 -67s50.834 -33.5 75.501 -47.5l-68 -94.5l-67 -92.5c-102 89.333 -153 161.666 -153 216.999s37.333 122 112 200s136.667 117 186 117c50.667 0 110.834 -32.5 180.501 -97.5
s104.5 -129.167 104.5 -192.5c0 -36 -12 -71 -36 -105c-66.667 -94.667 -154 -198 -262 -310l119 -1c20 0 40 0.333008 60 1c55.333 0.666992 94.333 31 117 91c5.33301 -4.66699 13.666 -10.667 24.999 -18z" />
    <glyph glyph-name="threequarters" unicode="&#xbe;" horiz-adv-x="1446" 
d="M1081 429l-0.00195312 48c0 22.667 -3 69.334 -9 140.001l204 226c-11.333 -156 -18 -290.333 -20 -403c36.667 3.33301 75.334 9 116.001 17l-5 -200l-109 2c2.66699 -80 8.66699 -145.333 18 -196c-75.333 -8 -173.666 -28 -294.999 -60
c40.667 77.333 69 163.666 85 258.999l-323 5l298 700l256 8c-163.333 -168 -290.333 -348.667 -381 -542c46 -3.33301 82 -5 108 -5s45 0.333008 57 1zM1136 1425c14.667 0 22 -6.33301 22 -19c0 -2.66699 -1 -5.66699 -3 -9l-746 -1456c-2.66699 -7.33301 -8 -11 -16 -11
h-76c-8 0 -13.833 3.33301 -17.5 10s-3.83398 13.667 -0.500977 21l749 1454c2.66699 6.66699 8.33398 10 17.001 10h71zM531.998 1277c117.333 -104.667 176.002 -206.667 176.002 -306c0 -83.333 -43.333 -159.333 -130 -228s-167.334 -103 -242.001 -103
c-18.667 0 -37.334 2.33301 -56.001 7c-88 23.333 -157 88.333 -207 195l88 95.5l88 96.5c19.333 -127.333 53.666 -214 102.999 -260c21.333 -20.667 45.166 -31 71.499 -31s55.5 16.667 87.5 50c30 31.333 45 61.833 45 91.5s-12 58.167 -36 85.5
c-50.667 59.333 -130 110 -238 152l191 233c-53.333 6.66699 -97.166 10 -131.499 10s-62.166 -1.66699 -83.499 -5c-54.667 -7.33301 -81.667 -34 -81 -80l-44 20l42.5 158l42.5 158c69.333 -54 148.5 -82.5 237.5 -85.5s179.167 -5.5 270.5 -7.5z" />
    <glyph glyph-name="questiondown" unicode="&#xbf;" horiz-adv-x="546" 
d="M265 680l-206 205l206 206l206 -206zM74 415l216 235.003c80.667 -34.667 149.667 -99 207 -193c-169.333 -239.333 -254 -414.333 -254 -525c0 -18.667 2.33301 -35.334 7 -50.001c33.333 -104.667 126.333 -161.334 279 -170.001l-283 -282
c-110.667 61.333 -177.334 146 -200.001 254c-4 18 -6 37.333 -6 58c0 102 48 234.667 144 398c44.667 76.667 67 130.667 67 162s-6.66699 52.666 -20 63.999c-37.333 32.667 -89.666 49 -156.999 49z" />
    <glyph glyph-name="Agrave" unicode="&#xc0;" horiz-adv-x="1420" 
d="M226 1052c122.667 61.333 235.667 138.001 339 230.001l301 280c120.667 -118 214.167 -198.833 280.5 -242.5s145.5 -81.834 237.5 -114.501c-15.333 -24 -34 -45 -56 -63s-40 -38.667 -54 -62c-5.33301 -12.667 -8 -30.667 -8 -54v-54l8 -536
c1.33301 -43.333 9 -70.333 23 -81l102 -83l-177 -241l-228 194c14 108 21 245 21 411h-374c-24.667 -236 -96.667 -436 -216 -600s-226.333 -292.333 -321 -385c-34 23.333 -59.667 40 -77 50c78 80.667 136.167 173 174.5 277s69 205.333 92 304s34.5 181.5 34.5 248.5
s-3.66699 128.167 -11 183.5c-18.667 140 -49 252.667 -91 338zM405 1680c33.333 -109.333 50 -227.667 50 -355v-33l-280 351zM1011 871c-1.33301 56.667 -1.99902 99.832 -1.99902 129.499s0.333008 56.167 1 79.5c-71.333 50.667 -153 95.334 -245 134.001
c-6.66699 0.666992 -13.334 1 -20.001 1c-48 0 -76.333 -25 -85 -75c-8 -40.667 -12 -87.167 -12 -139.5s0.666992 -95.5 2 -129.5h361z" />
    <glyph glyph-name="Aacute" unicode="&#xc1;" horiz-adv-x="1405" 
d="M697 1226c-68 17.333 -133.999 25.999 -197.999 25.999c-157.333 0 -300.666 -53.333 -429.999 -160c0.666992 6.66699 -1.5 24.167 -6.5 52.5s-6.83301 45.833 -5.5 52.5c175.333 144 366 256.667 572 338c269.333 -80 517 -190 743 -330c-14.667 -24 -33 -45 -55 -63
s-40.333 -38.667 -55 -62c-4.66699 -12.667 -7 -30.667 -7 -54v-54l7 -536c2 -43.333 10 -70.333 24 -81l101 -83l-176 -241l-229 194c14.667 104.667 22 241.667 22 411h-374c-25.333 -236 -97.5 -436 -216.5 -600s-226.167 -292.333 -321.5 -385
c-28 20 -53.333 36.667 -76 50c77.333 80.667 135.166 173 173.499 277s71.166 213.833 98.499 329.5s41 229 41 340s-24.333 215.167 -73 312.5c162 80.667 309 169.334 441 266.001zM1000 870.999c-1.33301 79.333 -1.99902 128.168 -1.99902 146.501
s0.333008 39.166 1 62.499c-66 46.667 -135.333 85 -208 115c-47.333 -35.333 -83.333 -75.833 -108 -121.5s-39.334 -113.167 -44.001 -202.5h361zM1119 1405v65c0 106 16.667 213.667 50 323l230 -37z" />
    <glyph glyph-name="Acircumflex" unicode="&#xc2;" horiz-adv-x="1405" 
d="M697 1226c-68 17.333 -133.999 25.999 -197.999 25.999c-157.333 0 -300.666 -53.333 -429.999 -160c0.666992 6.66699 -1.5 24.167 -6.5 52.5s-6.83301 45.833 -5.5 52.5c175.333 144 366 256.667 572 338c269.333 -80 517 -190 743 -330c-14.667 -24 -33 -45 -55 -63
s-40.333 -38.667 -55 -62c-4.66699 -12.667 -7 -30.667 -7 -54v-54l7 -536c2 -43.333 10 -70.333 24 -81l101 -83l-176 -241l-229 194c14.667 104.667 22 241.667 22 411h-374c-25.333 -236 -97.5 -436 -216.5 -600s-226.167 -292.333 -321.5 -385
c-28 20 -53.333 36.667 -76 50c77.333 80.667 135.166 173 173.499 277s71.166 213.833 98.499 329.5s41 229 41 340s-24.333 215.167 -73 312.5c162 80.667 309 169.334 441 266.001zM1000 870.999c-1.33301 79.333 -1.99902 128.168 -1.99902 146.501
s0.333008 39.166 1 62.499c-66 46.667 -135.333 85 -208 115c-47.333 -35.333 -83.333 -75.833 -108 -121.5s-39.334 -113.167 -44.001 -202.5h361zM452.002 1528c-16.667 0 -24.998 3.66699 -24.998 11c0 2 1.33301 4.33301 4 7l216 214
c3.33301 3.33301 9.66602 5 18.999 5h118c9.33301 0 16.666 -1.66699 21.999 -5l211 -214c2.66699 -2.66699 4 -5 4 -7c0 -7.33301 -7.66699 -11 -23 -11h-53c-8.66699 0 -14 1 -16 3l-206 116c-130.667 -78 -199.5 -117.333 -206.5 -118s-11.5 -1 -13.5 -1h-51z" />
    <glyph glyph-name="Atilde" unicode="&#xc3;" horiz-adv-x="1405" 
d="M1144 1842l236 -214c-34 -81.333 -97.667 -151 -191 -209c-232.667 162 -391 243 -475 243c-18 0 -32.667 -3.66699 -44 -11c-64 -41.333 -99.667 -138.333 -107 -291l-284 280c72 132 170 198 294 198c88 0 186.667 -36 296 -108c76.667 -44 130.667 -66 162 -66
s53 6.66699 65 20c32 38 48 90.667 48 158zM226 1052c122.667 61.333 235.667 138.001 339 230.001l301 280c120.667 -118 214.167 -198.833 280.5 -242.5s145.5 -81.834 237.5 -114.501c-15.333 -24 -34 -45 -56 -63s-40 -38.667 -54 -62
c-5.33301 -12.667 -8 -30.667 -8 -54v-54l8 -536c1.33301 -43.333 9 -70.333 23 -81l102 -83l-177 -241l-228 194c14 108 21 245 21 411h-374c-24.667 -236 -96.667 -436 -216 -600s-226.333 -292.333 -321 -385c-34 23.333 -59.667 40 -77 50
c78 80.667 136.167 173 174.5 277s69 205.333 92 304s34.5 181.5 34.5 248.5s-3.66699 128.167 -11 183.5c-18.667 140 -49 252.667 -91 338zM1011 871.001c-1.33301 56.667 -1.99902 99.832 -1.99902 129.499s0.333008 56.167 1 79.5
c-71.333 50.667 -153 95.334 -245 134.001c-6.66699 0.666992 -13.334 1 -20.001 1c-48 0 -76.333 -25 -85 -75c-8 -40.667 -12 -87.167 -12 -139.5s0.666992 -95.5 2 -129.5h361z" />
    <glyph glyph-name="Adieresis" unicode="&#xc4;" horiz-adv-x="1420" 
d="M226 1052c122.667 61.333 235.667 138.001 339 230.001l301 280c120.667 -118 214.167 -198.833 280.5 -242.5s145.5 -81.834 237.5 -114.501c-15.333 -24 -34 -45 -56 -63s-40 -38.667 -54 -62c-5.33301 -12.667 -8 -30.667 -8 -54v-54l8 -536
c1.33301 -43.333 9 -70.333 23 -81l102 -83l-177 -241l-228 194c14 108 21 245 21 411h-374c-24.667 -236 -96.667 -436 -216 -600s-226.333 -292.333 -321 -385c-34 23.333 -59.667 40 -77 50c78 80.667 136.167 173 174.5 277s69 205.333 92 304s34.5 181.5 34.5 248.5
s-3.66699 128.167 -11 183.5c-18.667 140 -49 252.667 -91 338zM351 1202l89.001 340.001l282 -53c-118.667 -114.667 -242.334 -210.334 -371.001 -287.001zM1370 1265c-128.667 58 -238.667 128 -330 210l264 60zM1011 871.002
c-1.33301 56.667 -1.99902 99.832 -1.99902 129.499s0.333008 56.167 1 79.5c-71.333 50.667 -153 95.334 -245 134.001c-6.66699 0.666992 -13.334 1 -20.001 1c-48 0 -76.333 -25 -85 -75c-8 -40.667 -12 -87.167 -12 -139.5s0.666992 -95.5 2 -129.5h361z" />
    <glyph glyph-name="Aring" unicode="&#xc5;" horiz-adv-x="1405" 
d="M982 225c12.667 88.667 19 158.998 19 210.998s-3.66699 78 -11 78c-2 0 -4 -1 -6 -3h-374c-12 -152.667 -77.5 -311 -196.5 -475s-226.167 -292.333 -321.5 -385c-28 20 -53.333 36.667 -76 50c77.333 80.667 135.166 173 173.499 277s69 202.333 92 295
s34.5 170.334 34.5 233.001c0 112 -26.667 221.667 -80 329c162 80.667 309 169.334 441 266.001c-68 17.333 -134 26 -198 26c-157.333 0 -300.666 -53.333 -429.999 -160c0.666992 6.66699 -1.5 24.167 -6.5 52.5s-6.83301 45.833 -5.5 52.5
c144.667 118.667 297.667 215.334 459 290.001c-35.333 52.667 -53 105 -53 157c0 114 84 226.333 252 337c19.333 12.667 40.5 19 63.5 19s48.5 -8.66699 76.5 -26c171.333 -108.667 257 -214.667 257 -318c0 -80.667 -46 -162.334 -138 -245.001l132.5 -59.5
c70.333 -31.667 158.833 -80.5 265.5 -146.5c-14.667 -24 -33 -45 -55 -63s-40.333 -38.667 -55 -62c-4.66699 -12.667 -7 -30.667 -7 -54v-54l27 -411c2 -43.333 10 -70.333 24 -81l101 -83l-176 -241zM980 745.998c-1.33301 79.333 -1.99902 128.168 -1.99902 146.501
s0.333008 39.166 1 62.499c-66 46.667 -135.333 85 -208 115c-47.333 -35.333 -83.333 -75.833 -108 -121.5s-39.334 -113.167 -44.001 -202.5h361zM607.001 1706c-30 -14 -45 -38.5 -45 -73.5s25.667 -85.833 77 -152.5c68 -89.333 130.667 -134 188 -134
c16 0 31.667 3.66699 47 11c30.667 14.667 46 39.5 46 74.5s-24.667 85.5 -74 151.5c-68.667 90 -132 135 -190 135c-16.667 0 -33 -4 -49 -12z" />
    <glyph glyph-name="AE" unicode="&#xc6;" horiz-adv-x="2159" 
d="M2167 1345l-169.999 -198.002c-104 72 -205.667 115 -305 129c-5.33301 -57.333 -9.33301 -122.666 -12 -195.999h414v-236h-409c2.66699 -76 10.667 -164.333 24 -265l-230 -84c126 -113.333 301 -170 525 -170c25.333 0 51.333 0.666992 78 2l-218 -296
c-283.333 30.667 -501.333 130.667 -654 300c-74 82 -130 182.333 -168 301l-412 4c-25.333 -236 -97.5 -436 -216.5 -600s-226.167 -292.333 -321.5 -385c-28 20 -53.333 36.667 -76 50c77.333 80.667 135.166 173 173.499 277s71.166 213.833 98.499 329.5s41 229 41 340
s-24.333 215.167 -73 312.5c162 80.667 309 169.334 441 266.001c-68 17.333 -134 26 -198 26c-157.333 0 -300.666 -53.333 -429.999 -160c0.666992 6.66699 -1.5 24.167 -6.5 52.5s-6.83301 45.833 -5.5 52.5c175.333 144 366 256.667 572 338
c234 -69.333 452.333 -162.333 655 -279l473 279c94 -64.667 230.667 -128 410 -190zM639.001 870.998h353c-7.33301 65.333 -11 135 -11 209c3.33301 1.33301 6.33301 3 9 5c-63.333 44 -129.666 80.667 -198.999 110c-47.333 -35.333 -83.333 -75.833 -108 -121.5
s-39.334 -113.167 -44.001 -202.5zM1401 576.998l74 25c-20 146 -30 272.333 -30 379s1.66699 192 5 256c-40 -20 -72.5 -43.333 -97.5 -70s-43 -52.5 -54 -77.5s-16.5 -60.5 -16.5 -106.5s0.666992 -80.333 2 -103c4.66699 -105.333 43.667 -206.333 117 -303z" />
    <glyph glyph-name="Ccedilla" unicode="&#xc7;" horiz-adv-x="1080" 
d="M1009 1087c-76 64.667 -153.332 109.669 -231.999 135.002c-4.66699 -62.667 -7 -141.667 -7 -237s10.333 -205.333 31 -330l-316 -141c53.333 -55.333 124.333 -97 213 -125c48.667 -15.333 101.167 -23 157.5 -23s114.166 5 173.499 15l-174 -366
c-78 25.333 -149.667 50.333 -215 75l-66 -103c36 10 73 15 111 15s74.5 -12.833 109.5 -38.5s52.5 -59.834 52.5 -102.501c0 -60.667 -29.667 -104.334 -89 -131.001c-40.667 -18.667 -88 -28 -142 -28c-106.667 0 -188 12 -244 36l20 45c37.333 -12.667 76 -19 116 -19
c90 0 135 30.667 135 92c0 24 -8.16699 42.167 -24.5 54.5s-35.166 18.5 -56.499 18.5s-40.333 -4.33301 -57 -13l-30 29l110 167c-72.667 29.333 -136 58.333 -190 87c-112.667 60 -196.834 130.333 -252.501 211s-89.167 178 -100.5 292
c-7.33301 71.333 -11 144.5 -11 219.5s1.33301 144.5 4 208.5l822 405l240 -174zM497.001 1212c-110 -52.667 -165 -149.333 -165 -290c0 -127.333 31.333 -239 94 -335c42.667 28 69 83.667 79 167c4 32.667 6 83.5 6 152.5s-4.66699 170.833 -14 305.5z" />
    <glyph glyph-name="Egrave" unicode="&#xc8;" horiz-adv-x="1215" 
d="M1211 1345l-170.001 -198.001c-104 72 -205.667 115 -305 129c-6 -57.333 -10 -122.666 -12 -195.999h413v-236h-408c2 -76 9.66699 -164.333 23 -265l-230 -84c126 -113.333 301.333 -170 526 -170c25.333 0 51.333 0.666992 78 2l-219 -296
c-283.333 30.667 -501.166 130.667 -653.499 300s-228.5 419 -228.5 749l776 455c94 -64.667 230.667 -128 410 -190zM444.999 576.999l74 25c-20 146 -30 272.333 -30 379s1.66699 192 5 256c-40 -20 -72.5 -43.333 -97.5 -70s-43 -52.5 -54 -77.5
s-16.5 -60.333 -16.5 -106s0.666992 -80.167 2 -103.5c4.66699 -105.333 43.667 -206.333 117 -303zM364.999 1769c33.333 -109.333 50 -227.667 50 -355v-33l-280 351z" />
    <glyph glyph-name="Eacute" unicode="&#xc9;" horiz-adv-x="1215" 
d="M1211 1345l-170.001 -198.001c-104 72 -205.667 115 -305 129c-6 -57.333 -10 -122.666 -12 -195.999h413v-236h-408c2 -76 9.66699 -164.333 23 -265l-230 -84c126 -113.333 301.333 -170 526 -170c25.333 0 51.333 0.666992 78 2l-219 -296
c-283.333 30.667 -501.166 130.667 -653.499 300s-228.5 419 -228.5 749l776 455c94 -64.667 230.667 -128 410 -190zM444.999 576.999l74 25c-20 146 -30 272.333 -30 379s1.66699 192 5 256c-40 -20 -72.5 -43.333 -97.5 -70s-43 -52.5 -54 -77.5
s-16.5 -60.333 -16.5 -106s0.666992 -80.167 2 -103.5c4.66699 -105.333 43.667 -206.333 117 -303zM994.999 1506v65c0 106 16.667 213.667 50 323l230 -37z" />
    <glyph glyph-name="Ecircumflex" unicode="&#xca;" horiz-adv-x="1215" 
d="M1211 1345l-170.001 -198.001c-104 72 -205.667 115 -305 129c-6 -57.333 -10 -122.666 -12 -195.999h413v-236h-408c2 -76 9.66699 -164.333 23 -265l-230 -84c126 -113.333 301.333 -170 526 -170c25.333 0 51.333 0.666992 78 2l-219 -296
c-283.333 30.667 -501.166 130.667 -653.499 300s-228.5 419 -228.5 749l776 455c94 -64.667 230.667 -128 410 -190zM444.999 576.999l74 25c-20 146 -30 272.333 -30 379s1.66699 192 5 256c-40 -20 -72.5 -43.333 -97.5 -70s-43 -52.5 -54 -77.5
s-16.5 -60.333 -16.5 -106s0.666992 -80.167 2 -103.5c4.66699 -105.333 43.667 -206.333 117 -303zM520.999 1539c-16.667 0 -24.998 3.66699 -24.998 11c0 2 1.33301 4.33301 4 7l216 214c3.33301 3.33301 9.66602 5 18.999 5h118c9.33301 0 16.666 -1.66699 21.999 -5
l211 -214c2.66699 -2.66699 4 -5 4 -7c0 -7.33301 -7.66699 -11 -23 -11h-53c-8.66699 0 -14 1 -16 3l-206 116c-130.667 -78 -199.5 -117.333 -206.5 -118s-11.5 -1 -13.5 -1h-51z" />
    <glyph glyph-name="Edieresis" unicode="&#xcb;" horiz-adv-x="1195" 
d="M1266 1636c-8 -82.667 -12.001 -166.667 -12.001 -252c-54 9.33301 -115.667 27.833 -185 55.5s-123.666 69.167 -162.999 124.5zM260.999 1305c-23.333 123.333 -35 208.5 -35 255.5s2.33301 85.833 7 116.5l428 -122c-64 -38.667 -129.667 -80.5 -197 -125.5
s-135 -86.5 -203 -124.5zM1211 1345l-170.001 -198.001c-104 72 -205.667 115 -305 129c-6 -57.333 -10 -122.666 -12 -195.999h413v-236h-408c2 -76 9.66699 -164.333 23 -265l-230 -84c126 -113.333 301.333 -170 526 -170c25.333 0 51.333 0.666992 78 2l-219 -296
c-283.333 30.667 -501.166 130.667 -653.499 300s-228.5 419 -228.5 749l776 455c94 -64.667 230.667 -128 410 -190zM444.998 576.999l74 25c-20 146 -30 272.333 -30 379s1.66699 192 5 256c-40 -20 -72.5 -43.333 -97.5 -70s-43 -52.5 -54 -77.5
s-16.5 -60.333 -16.5 -106s0.666992 -80.167 2 -103.5c4.66699 -105.333 43.667 -206.333 117 -303z" />
    <glyph glyph-name="Igrave" unicode="&#xcc;" horiz-adv-x="1062" 
d="M1030 1516l-125.004 -224.002c14.667 -167.333 28.334 -305.666 41.001 -414.999s19 -183.333 19 -222c0 -112.667 -21.667 -200.667 -65 -264c-62 -43.333 -124.833 -96.666 -188.5 -159.999l-192.5 -200l-407 193c-56 22.667 -84 63 -84 121
c0 15.333 2.83301 39.166 8.5 71.499l21 119l24.5 141.5c72.667 -95.333 150.334 -171.166 233.001 -227.499s168 -101.5 256 -135.5c12 -4.66699 26.833 -7 44.5 -7s36.334 11.667 56.001 35s29.5 54.5 29.5 93.5s-3.16699 87.833 -9.5 146.5
s-17.166 133.334 -32.499 224.001s-29.666 182 -42.999 274c52.667 42 108 94.333 166 157c-45.333 -4.66699 -100.5 -7 -165.5 -7s-129.667 6.5 -194 19.5s-115.833 19.5 -154.5 19.5c-76.667 0 -144 -17.667 -202 -53c32 123.333 80 238.666 144 345.999
c195.333 -32 416.666 -48 663.999 -48c50.667 0 102.667 0.666992 156 2zM605.996 1954c33.333 -109.333 50 -227.667 50 -355v-33l-280 351z" />
    <glyph glyph-name="Iacute" unicode="&#xcd;" horiz-adv-x="1062" 
d="M1030 1516l-125.004 -224.002c14.667 -167.333 28.334 -305.666 41.001 -414.999s19 -183.333 19 -222c0 -112.667 -21.667 -200.667 -65 -264c-62 -43.333 -124.833 -96.666 -188.5 -159.999l-192.5 -200l-407 193c-56 22.667 -84 63 -84 121
c0 15.333 2.83301 39.166 8.5 71.499l21 119l24.5 141.5c72.667 -95.333 150.334 -171.166 233.001 -227.499s168 -101.5 256 -135.5c12 -4.66699 26.833 -7 44.5 -7s36.334 11.667 56.001 35s29.5 54.5 29.5 93.5s-3.16699 87.833 -9.5 146.5
s-17.166 133.334 -32.499 224.001s-29.666 182 -42.999 274c52.667 42 108 94.333 166 157c-45.333 -4.66699 -100.5 -7 -165.5 -7s-129.667 6.5 -194 19.5s-115.833 19.5 -154.5 19.5c-76.667 0 -144 -17.667 -202 -53c32 123.333 80 238.666 144 345.999
c195.333 -32 416.666 -48 663.999 -48c50.667 0 102.667 0.666992 156 2zM558.996 1566v65c0 106 16.667 213.667 50 323l230 -37z" />
    <glyph glyph-name="Icircumflex" unicode="&#xce;" horiz-adv-x="1062" 
d="M1030 1516l-125.004 -224.002c14.667 -167.333 28.334 -305.666 41.001 -414.999s19 -183.333 19 -222c0 -112.667 -21.667 -200.667 -65 -264c-62 -43.333 -124.833 -96.666 -188.5 -159.999l-192.5 -200l-407 193c-56 22.667 -84 63 -84 121
c0 15.333 2.83301 39.166 8.5 71.499l21 119l24.5 141.5c72.667 -95.333 150.334 -171.166 233.001 -227.499s168 -101.5 256 -135.5c12 -4.66699 26.833 -7 44.5 -7s36.334 11.667 56.001 35s29.5 54.5 29.5 93.5s-3.16699 87.833 -9.5 146.5
s-17.166 133.334 -32.499 224.001s-29.666 182 -42.999 274c52.667 42 108 94.333 166 157c-45.333 -4.66699 -100.5 -7 -165.5 -7s-129.667 6.5 -194 19.5s-115.833 19.5 -154.5 19.5c-76.667 0 -144 -17.667 -202 -53c32 123.333 80 238.666 144 345.999
c195.333 -32 416.666 -48 663.999 -48c50.667 0 102.667 0.666992 156 2zM306.996 1611c-16.667 0 -24.998 3.66699 -24.998 11c0 2 1.33301 4.33301 4 7l216 214c3.33301 3.33301 9.66602 5 18.999 5h118c9.33301 0 16.666 -1.66699 21.999 -5l211 -214
c2.66699 -2.66699 4 -5 4 -7c0 -7.33301 -7.66699 -11 -23 -11h-53c-8.66699 0 -14 1 -16 3l-206 116c-130.667 -78 -199.5 -117.333 -206.5 -118s-11.5 -1 -13.5 -1h-51z" />
    <glyph glyph-name="Idieresis" unicode="&#xcf;" horiz-adv-x="1062" 
d="M1030 1516l-125.004 -224.002c14.667 -167.333 28.334 -305.666 41.001 -414.999s19 -183.333 19 -222c0 -112.667 -21.667 -200.667 -65 -264c-62 -43.333 -124.833 -96.666 -188.5 -159.999l-192.5 -200l-407 193c-56 22.667 -84 63 -84 121
c0 15.333 2.83301 39.166 8.5 71.499l21 119l24.5 141.5c72.667 -95.333 150.334 -171.166 233.001 -227.499s168 -101.5 256 -135.5c12 -4.66699 26.833 -7 44.5 -7s36.334 11.667 56.001 35s29.5 54.5 29.5 93.5s-3.16699 87.833 -9.5 146.5
s-17.166 133.334 -32.499 224.001s-29.666 182 -42.999 274c52.667 42 108 94.333 166 157c-45.333 -4.66699 -100.5 -7 -165.5 -7s-129.667 6.5 -194 19.5s-115.833 19.5 -154.5 19.5c-76.667 0 -144 -17.667 -202 -53c32 123.333 80 238.666 144 345.999
c195.333 -32 416.666 -48 663.999 -48c50.667 0 102.667 0.666992 156 2zM713.316 1352.27l68.2402 223.73c86.4365 -12.585 164.75 -33.3271 234.939 -62.2256c-93.5859 -63.3896 -194.646 -117.225 -303.18 -161.505zM435.483 1331.29l44.8418 257.989
c82.5381 -14.4492 155.978 -34.4922 220.318 -60.1279c-77.9883 -71.3135 -166.375 -137.268 -265.16 -197.861z" />
    <glyph glyph-name="Eth" unicode="&#xd0;" horiz-adv-x="1295" 
d="M117 897c6 -53.333 33 -80 81 -80h4l25 1l-2 20c-9.33301 104 -44.333 186 -105 246c156 7.33301 305.667 39.333 449 96c-145.333 72.667 -319.333 109 -522 109h-32l329 246c307.333 -47.333 535.5 -156.333 684.5 -327s229.167 -395.334 240.5 -674.001l-589 -503
c-190 96 -415.333 175.667 -676 239l220 232c4 52.667 6.33301 104 7 154c-141.333 -10 -223.333 -36.333 -246 -79c30 75.333 52 128.833 66 160.5s36 84.834 66 159.501zM592 531c-14 1.33301 -27.668 2.00195 -41.001 2.00195c-67.333 0 -131.333 -13.667 -192 -41
c160 -116.667 284.333 -175 373 -175c36.667 0 67.334 10.333 92.001 31c75.333 63.333 113 154.666 113 273.999c0 87.333 -19.667 171.666 -59 252.999c-27.333 -44.667 -49.833 -75.334 -67.5 -92.001s-44.5 -55.667 -80.5 -117c-54.667 0.666992 -112 1 -172 1
c4.66699 -39.333 16 -84.666 34 -135.999zM615.999 1154c-20.667 -38 -37 -74.499 -49 -109.499s-18 -68.5 -18 -100.5c0 -54 0.333008 -93 1 -117l176 6c48 1.33301 96.333 19.666 145 54.999c-57.333 109.333 -142.333 198 -255 266z" />
    <glyph glyph-name="Ntilde" unicode="&#xd1;" horiz-adv-x="1374" 
d="M1195 1821l235.998 -213.999c-34 -81.333 -97.667 -151 -191 -209c-218 197.333 -363.333 296 -436 296c-8.66699 0 -16.334 -1.33301 -23.001 -4c-62.667 -26 -102.667 -105.667 -120 -239c-37.333 26.667 -79.666 63.5 -126.999 110.5l-142 140.5
c60.667 111.333 141.334 176 242.001 194c13.333 2 27 3 41 3c88 0 179 -47.333 273 -142c72.667 -72.667 127.334 -109 164.001 -109c14 0 25.333 5.33301 34 16c32.667 37.333 49 89.666 49 156.999zM665.998 331.001l-167.001 -300.002l-462 236
c148 138 230.333 235 247 291c2.66699 10 4 21.667 4 35c0 63.333 -27.667 156 -83 278s-92.166 205.833 -110.499 251.5s-27.5 80.834 -27.5 105.501s4.33301 46 13 64c18 41.333 61.667 79.166 131 113.499s174.666 77.5 315.999 129.5l44 -105
c-93.333 -30.667 -142.666 -69.334 -147.999 -116.001c-0.666992 -6 -1 -12.333 -1 -19c0 -43.333 15 -96.333 45 -159l193.5 208.5l179.5 190.5l243 -129.5c82 -43 167.333 -79.833 256 -110.5c-108.667 -73.333 -165.334 -197.666 -170.001 -372.999l-13 -372v-21
c0 -108 38.667 -174 116 -198l-158 -300c-96.667 35.333 -163.667 90.5 -201 165.5s-56 179.833 -56 314.5v21l3 252c0 60.667 10.833 113.667 32.5 159s49.834 91 84.501 137c-69.333 51.333 -137.333 77 -204 77c-75.333 0 -158.333 -41.667 -249 -125l1 -3
c50 -93.333 75 -170.666 75 -231.999c0 -16.667 -2 -32.334 -6 -47.001c-18 -67.333 -81.333 -171.666 -190 -312.999c62.667 -45.333 150 -80.666 262 -105.999z" />
    <glyph glyph-name="Ograve" unicode="&#xd2;" horiz-adv-x="1626" 
d="M936 1535c-6 -86 -9.33105 -159.335 -9.99805 -220.002l96 96.5c32 33 63.667 63.167 95 90.5c96 -195.333 255 -359.666 477 -492.999c-1.33301 -160 -29.833 -301.167 -85.5 -423.5s-122.834 -224.666 -201.501 -306.999s-161 -144.333 -247 -186
s-159.333 -62.5 -220 -62.5c-282.667 0 -479.834 90.167 -591.501 270.5s-183.167 390.833 -214.5 631.5c107.333 155.333 233 287 377 395s319 177.333 525 208zM925.002 1187c2.66699 -304.667 39.333 -535.333 110 -692c-167.333 -40 -276.666 -108.333 -327.999 -205
c65.333 -39.333 134.666 -59 207.999 -59c7.33301 0 14.333 0.333008 21 1c105.333 3.33301 192 33.666 260 90.999c80 66.667 120 153 120 259c0 79.333 -27.667 171.333 -83 276s-158 214.334 -308 329.001zM617.001 358.999c25.333 70.667 38 162.335 38 275.002
c0 10.667 -0.833008 45.167 -2.5 103.5s-3.16699 141.166 -4.5 248.499s-9.33301 213.666 -24 318.999c-146.667 -85.333 -220 -220.333 -220 -405c0 -15.333 0.666992 -31 2 -47c12.667 -209.333 83 -374 211 -494zM998.001 1896c33.333 -109.333 50 -227.667 50 -355v-33
l-280 351z" />
    <glyph glyph-name="Oacute" unicode="&#xd3;" horiz-adv-x="1626" 
d="M936 1535c-6 -86 -9.33105 -159.335 -9.99805 -220.002l96 96.5c32 33 63.667 63.167 95 90.5c96 -195.333 255 -359.666 477 -492.999c-1.33301 -160 -29.833 -301.167 -85.5 -423.5s-122.834 -224.666 -201.501 -306.999s-161 -144.333 -247 -186
s-159.333 -62.5 -220 -62.5c-282.667 0 -479.834 90.167 -591.501 270.5s-183.167 390.833 -214.5 631.5c107.333 155.333 233 287 377 395s319 177.333 525 208zM925.002 1187c2.66699 -304.667 39.333 -535.333 110 -692c-167.333 -40 -276.666 -108.333 -327.999 -205
c65.333 -39.333 134.666 -59 207.999 -59c7.33301 0 14.333 0.333008 21 1c105.333 3.33301 192 33.666 260 90.999c80 66.667 120 153 120 259c0 79.333 -27.667 171.333 -83 276s-158 214.334 -308 329.001zM617.001 358.999c25.333 70.667 38 162.335 38 275.002
c0 10.667 -0.833008 45.167 -2.5 103.5s-3.16699 141.166 -4.5 248.499s-9.33301 213.666 -24 318.999c-146.667 -85.333 -220 -220.333 -220 -405c0 -15.333 0.666992 -31 2 -47c12.667 -209.333 83 -374 211 -494zM1008 1491v65c0 106 16.667 213.667 50 323l230 -37z" />
    <glyph glyph-name="Ocircumflex" unicode="&#xd4;" horiz-adv-x="1626" 
d="M936 1535c-6 -86 -9.33105 -159.335 -9.99805 -220.002l96 96.5c32 33 63.667 63.167 95 90.5c96 -195.333 255 -359.666 477 -492.999c-1.33301 -160 -29.833 -301.167 -85.5 -423.5s-122.834 -224.666 -201.501 -306.999s-161 -144.333 -247 -186
s-159.333 -62.5 -220 -62.5c-282.667 0 -479.834 90.167 -591.501 270.5s-183.167 390.833 -214.5 631.5c107.333 155.333 233 287 377 395s319 177.333 525 208zM925.002 1187c2.66699 -304.667 39.333 -535.333 110 -692c-167.333 -40 -276.666 -108.333 -327.999 -205
c65.333 -39.333 134.666 -59 207.999 -59c7.33301 0 14.333 0.333008 21 1c105.333 3.33301 192 33.666 260 90.999c80 66.667 120 153 120 259c0 79.333 -27.667 171.333 -83 276s-158 214.334 -308 329.001zM617.001 358.999c25.333 70.667 38 162.335 38 275.002
c0 10.667 -0.833008 45.167 -2.5 103.5s-3.16699 141.166 -4.5 248.499s-9.33301 213.666 -24 318.999c-146.667 -85.333 -220 -220.333 -220 -405c0 -15.333 0.666992 -31 2 -47c12.667 -209.333 83 -374 211 -494zM606.001 1578c-16.667 0 -24.998 3.66699 -24.998 11
c0 2 1.33301 4.33301 4 7l216 214c3.33301 3.33301 9.66602 5 18.999 5h118c9.33301 0 16.666 -1.66699 21.999 -5l211 -214c2.66699 -2.66699 4 -5 4 -7c0 -7.33301 -7.66699 -11 -23 -11h-53c-8.66699 0 -14 1 -16 3l-206 116c-130.667 -78 -199.5 -117.333 -206.5 -118
s-11.5 -1 -13.5 -1h-51z" />
    <glyph glyph-name="Otilde" unicode="&#xd5;" horiz-adv-x="1626" 
d="M936 1535c-6 -86 -9.33105 -159.335 -9.99805 -220.002l96 96.5c32 33 63.667 63.167 95 90.5c96 -195.333 255 -359.666 477 -492.999c-1.33301 -160 -29.833 -301.167 -85.5 -423.5s-122.834 -224.666 -201.501 -306.999s-161 -144.333 -247 -186
s-159.333 -62.5 -220 -62.5c-282.667 0 -479.834 90.167 -591.501 270.5s-183.167 390.833 -214.5 631.5c107.333 155.333 233 287 377 395s319 177.333 525 208zM925.002 1187c2.66699 -304.667 39.333 -535.333 110 -692c-167.333 -40 -276.666 -108.333 -327.999 -205
c65.333 -39.333 134.666 -59 207.999 -59c7.33301 0 14.333 0.333008 21 1c105.333 3.33301 192 33.666 260 90.999c80 66.667 120 153 120 259c0 79.333 -27.667 171.333 -83 276s-158 214.334 -308 329.001zM617.001 358.999c25.333 70.667 38 162.335 38 275.002
c0 10.667 -0.833008 45.167 -2.5 103.5s-3.16699 141.166 -4.5 248.499s-9.33301 213.666 -24 318.999c-146.667 -85.333 -220 -220.333 -220 -405c0 -15.333 0.666992 -31 2 -47c12.667 -209.333 83 -374 211 -494zM1127 1914l236 -213.999
c-34 -81.333 -97.667 -151 -191 -209c-232.667 162 -391 243 -475 243c-18 0 -32.667 -3.66699 -44 -11c-64 -41.333 -99.667 -138.333 -107 -291l-284 280c72 132 170 198 294 198c88 0 186.667 -36 296 -108c76.667 -44 130.667 -66 162 -66s53 7 65 21
c32 37.333 48 89.666 48 156.999z" />
    <glyph glyph-name="Odieresis" unicode="&#xd6;" horiz-adv-x="1642" 
d="M944 1535c-6 -86 -9.33105 -159.335 -9.99805 -220.002l95 96.5c32 33 64 63.167 96 90.5c96 -195.333 254.667 -359.666 476 -492.999c-0.666992 -160 -29 -301.167 -85 -423.5s-123.333 -224.666 -202 -306.999s-160.834 -144.333 -246.501 -186
s-159.167 -62.5 -220.5 -62.5c-282 0 -478.833 90.167 -590.5 270.5s-183.5 390.833 -215.5 631.5c107.333 155.333 233.166 287 377.499 395s319.5 177.333 525.5 208zM1211 1455l359.999 72.002c-6 -62 -9 -127.167 -9 -195.5s-10.667 -129.833 -32 -184.5
c-58.667 35.333 -116.667 81.666 -174 138.999s-105.666 113.666 -144.999 168.999zM162.001 1190c-23.333 123.333 -34.999 208.5 -34.999 255.5s2.33301 85.833 7 116.5l402 -91c-116.667 -61.333 -241.334 -155 -374.001 -281zM932.002 1187
c2.66699 -304.667 39.332 -535.333 109.999 -692c-167.333 -40 -276.333 -108.333 -327 -205c64.667 -39.333 134 -59 208 -59c6.66699 0 13.667 0.333008 21 1c104.667 3.33301 191.334 33.666 260.001 90.999c79.333 66.667 119 153 119 259
c0 79.333 -27.667 171.333 -83 276s-158 214.334 -308 329.001zM625 359.001c24.667 70.667 36.999 162.001 36.999 274.001c0 11.333 -0.833008 46.166 -2.5 104.499s-3 141.166 -4 248.499s-9.16699 213.666 -24.5 318.999c-146 -85.333 -219 -220.666 -219 -405.999
c0 -15.333 0.333008 -30.666 1 -45.999c12.667 -209.333 83.334 -374 212.001 -494z" />
    <glyph glyph-name="multiply" unicode="&#xd7;" horiz-adv-x="906" 
d="M130 501l217 203l-206 217l110 105l206 -219l219 208l105 -110l-221 -208l205 -217l-110 -105l-205 217l-215 -201z" />
    <glyph glyph-name="Oslash" unicode="&#xd8;" horiz-adv-x="1626" 
d="M1294 1520l247.001 -0.000976562l-211 -310c74.667 -73.333 162.667 -140.333 264 -201c-1.33301 -160 -29.833 -301.167 -85.5 -423.5s-122.834 -224.666 -201.501 -306.999s-161 -144.333 -247 -186s-159.333 -62.5 -220 -62.5c-108.667 0 -204.667 13.333 -288 40
l-52 -78h-248l117 172c-48 37.333 -88 82.666 -120 135.999c-112 180.667 -183.667 391.334 -215 632.001c107.333 155.333 233 287 377 395s319 177.333 525 208c-6 -86 -9.33301 -159.333 -10 -220l96 96.5c32 33 63.667 63.167 95 90.5c22 -44.667 47 -88 75 -130z
M1035 494.999c-167.333 -40 -276.666 -108.332 -327.999 -204.999c65.333 -39.333 134.666 -59 207.999 -59c7.33301 0 14.333 0.333008 21 1c105.333 3.33301 192 33.666 260 90.999c80 66.667 120 153 120 259c0 79.333 -25.667 167.333 -77 264
c-20 38.667 -46 77.334 -78 116.001l-189 -276c16.667 -72.667 37.667 -136.334 63 -191.001zM654.001 582c0.666992 26.667 0.166992 73.834 -1.5 141.501s-3.16699 155.167 -4.5 262.5s-9.33301 213.666 -24 318.999c-146.667 -85.333 -220 -221 -220 -407
s49 -342 147 -468zM925.001 1187c0 -70 2 -136 6 -198l85 123c-28 25.333 -58.333 50.333 -91 75z" />
    <glyph glyph-name="Ugrave" unicode="&#xd9;" horiz-adv-x="1406" 
d="M1152 31l-280.002 178.001c18.667 63.333 33.667 129.333 45 198l-340 -376c-57.333 50.667 -130 95.667 -218 135s-182 76.333 -282 111c132.667 88.667 215.667 190.334 249 305.001c9.33301 31.333 14 63.333 14 96c0 87.333 -34.833 182.666 -104.5 285.999
s-104.5 200.666 -104.5 291.999c0 144 90 267.333 270 370l108 -60c-105.333 -72 -158 -137.667 -158 -197c0 -14.667 3.66699 -29 11 -43c33.333 -70 131.333 -131.333 294 -184v-20c0 -208.667 -62 -417.667 -186 -627c106.667 -68 185.334 -102 236.001 -102
c48 0 125 64.333 231 193c4 60 6 134.333 6 223s-5.66699 198 -17 328c0.666992 6 1 11.667 1 17c0 30 -13.667 54.5 -41 73.5s-55.666 39.833 -84.999 62.5l239 264l289 -175c-43.333 -58 -67.833 -115 -73.5 -171s-8.5 -113.667 -8.5 -173l-6 -390v-34
c0 -82 9.16699 -145.333 27.5 -190s50.833 -76 97.5 -94zM713.998 1823c33.333 -109.333 50 -227.667 50 -355v-33l-280 351z" />
    <glyph glyph-name="Uacute" unicode="&#xda;" horiz-adv-x="1406" 
d="M1152 31l-280.002 178.001c18.667 63.333 33.667 129.333 45 198l-340 -376c-57.333 50.667 -130 95.667 -218 135s-182 76.333 -282 111c132.667 88.667 215.667 190.334 249 305.001c9.33301 31.333 14 63.333 14 96c0 87.333 -34.833 182.666 -104.5 285.999
s-104.5 200.666 -104.5 291.999c0 144 90 267.333 270 370l108 -60c-105.333 -72 -158 -137.667 -158 -197c0 -14.667 3.66699 -29 11 -43c33.333 -70 131.333 -131.333 294 -184v-20c0 -208.667 -62 -417.667 -186 -627c106.667 -68 185.334 -102 236.001 -102
c48 0 125 64.333 231 193c4 60 6 134.333 6 223s-5.66699 198 -17 328c0.666992 6 1 11.667 1 17c0 30 -13.667 54.5 -41 73.5s-55.666 39.833 -84.999 62.5l239 264l289 -175c-43.333 -58 -67.833 -115 -73.5 -171s-8.5 -113.667 -8.5 -173l-6 -390v-34
c0 -82 9.16699 -145.333 27.5 -190s50.833 -76 97.5 -94zM692.998 1445v65c0 106 16.667 213.667 50 323l230 -37z" />
    <glyph glyph-name="Ucircumflex" unicode="&#xdb;" horiz-adv-x="1406" 
d="M1152 31l-280.002 178.001c18.667 63.333 33.667 129.333 45 198l-340 -376c-57.333 50.667 -130 95.667 -218 135s-182 76.333 -282 111c132.667 88.667 215.667 190.334 249 305.001c9.33301 31.333 14 63.333 14 96c0 87.333 -34.833 182.666 -104.5 285.999
s-104.5 200.666 -104.5 291.999c0 144 90 267.333 270 370l108 -60c-105.333 -72 -158 -137.667 -158 -197c0 -14.667 3.66699 -29 11 -43c33.333 -70 131.333 -131.333 294 -184v-20c0 -208.667 -62 -417.667 -186 -627c106.667 -68 185.334 -102 236.001 -102
c48 0 125 64.333 231 193c4 60 6 134.333 6 223s-5.66699 198 -17 328c0.666992 6 1 11.667 1 17c0 30 -13.667 54.5 -41 73.5s-55.666 39.833 -84.999 62.5l239 264l289 -175c-43.333 -58 -67.833 -115 -73.5 -171s-8.5 -113.667 -8.5 -173l-6 -390v-34
c0 -82 9.16699 -145.333 27.5 -190s50.833 -76 97.5 -94zM502.998 1634c-16.667 0 -24.998 3.66699 -24.998 11c0 2 1.33301 4.33301 4 7l216 214c3.33301 3.33301 9.66602 5 18.999 5h118c9.33301 0 16.666 -1.66699 21.999 -5l211 -214c2.66699 -2.66699 4 -5 4 -7
c0 -7.33301 -7.66699 -11 -23 -11h-53c-8.66699 0 -14 1 -16 3l-206 116c-130.667 -78 -199.5 -117.333 -206.5 -118s-11.5 -1 -13.5 -1h-51z" />
    <glyph glyph-name="Udieresis" unicode="&#xdc;" horiz-adv-x="1364" 
d="M1111 31l-280.002 178c18.667 63.333 33.667 129.333 45 198l-340 -376c-57.333 50.667 -130 95.667 -218 135s-182 76.333 -282 111c132.667 88.667 216 190.334 250 305.001c8.66699 31.333 13 63.333 13 96c0 87.333 -33.333 180.333 -100 279
c-86.667 126.667 -130 241.334 -130 344.001c0 123.333 82.333 231.666 247 324.999l114 -64c-98 -67.333 -147 -128.333 -147 -183c0 -19.333 6.33301 -37.666 19 -54.999c46 -68.667 150.333 -129.334 313 -182.001v-14c0 -212.667 -62 -423.667 -186 -633
c106.667 -68 185.334 -102 236.001 -102c48 0 125 64.333 231 193c4 59.333 6 133.166 6 221.499s-5.66699 198.166 -17 329.499c1.33301 9.33301 2 21.833 2 37.5s-6.66699 28.834 -20 39.501l-63 50l238 263l245 -148c-43.333 -58 -67.666 -115 -72.999 -171
s-8 -113.667 -8 -173l-6 -390v-34c0 -82 9.16699 -145.333 27.5 -190s50.833 -76 97.5 -94zM744.998 1562l164 -127c-92 -99.333 -213 -152 -363 -158zM484.998 1629l196 -67c-56 -108.667 -151.667 -198 -287 -268z" />
    <glyph glyph-name="Yacute" unicode="&#xdd;" horiz-adv-x="1346" 
d="M689 -565c-108.667 0 -224.003 32.3359 -346.003 97.0029c-48 26 -101.167 39 -159.5 39s-127.5 -24.667 -207.5 -74l-35 47c45.333 113.333 94.833 195.166 148.5 245.499s111.5 75.5 173.5 75.5c35.333 0 82.333 -11.333 141 -34c160 -62 276.333 -93 349 -93
c136 0 214.667 43.333 236 130c6 23.333 9 49.333 9 78s-6.83301 55.167 -20.5 79.5s-36.667 81.833 -69 172.5s-48.5 154.667 -48.5 192c0 6 0.333008 11.667 1 17l-340 -376c-57.333 50.667 -130.166 95.667 -218.499 135s-182.166 76.333 -281.499 111
c132.667 88.667 215.667 190.334 249 305.001c9.33301 31.333 14 63.333 14 96c0 87.333 -35 182.666 -105 285.999s-105 200.666 -105 291.999c0 143.333 90.333 266.666 271 369.999l53 -30l53 -30c-104 -72 -156 -137.333 -156 -196c0 -15.333 3.33301 -30 10 -44
c34 -70 132.333 -131.333 295 -184v-7c0 -217.333 -62 -430.666 -186 -639.999c106.667 -68 185.334 -102 236.001 -102c48 0 125 64.333 231 193c4 61.333 6 137 6 227s-6 198 -18 324c0.666992 6 1 11.667 1 17c0 30 -13.5 54.5 -40.5 73.5l-85.5 62.5l240 264l288 -175
c-43.333 -58 -67.666 -115 -72.999 -171s-8.33301 -113.667 -9 -173l-5 -390v-34c0 -82 9.16699 -145.333 27.5 -190s50.833 -76 97.5 -94c-56.667 -77.333 -115.834 -216.333 -177.501 -417s-150.167 -340.334 -265.5 -419.001c-56.667 -37.333 -116 -56 -178 -56z
M608.997 1329v65c0 106 16.667 213.667 50 323l230 -37z" />
    <glyph glyph-name="Thorn" unicode="&#xde;" horiz-adv-x="1297" 
d="M152 -350c52 150.667 85.999 352.332 101.999 604.999l-205 74l215 205v200c0 102.667 -4.33301 263.667 -13 483l-105.5 48.5l-105.5 50.5l172 219c182.667 -53.333 314.334 -92.666 395.001 -117.999c-2 -21.333 -6.33301 -90.333 -13 -207s-11 -185 -13 -205l304 244
c231.333 -174.667 347 -342.334 347 -503.001c0 -171.333 -117 -409.666 -351 -714.999l-321 115c6 -107.333 19 -179 39 -215zM890.999 330.998c82.667 0 124 56.834 124 170.501s-58 213.167 -174 298.5c-55.333 40 -106.333 60 -153 60s-87.334 -26.667 -122.001 -80
c-3.33301 -28.667 -6.66602 -127.334 -9.99902 -296.001l329 -153h6z" />
    <glyph glyph-name="germandbls" unicode="&#xdf;" horiz-adv-x="1014" 
d="M894 1239c-45.333 -55.333 -149.665 -101.003 -312.998 -137.003c-24.667 15.333 -53.167 37.5 -85.5 66.5s-65.166 45.833 -98.499 50.5c-17.333 -24.667 -30.666 -44.334 -39.999 -59.001c18 -39.333 30.333 -94.666 37 -165.999
c65.333 -5.33301 134.166 -8 206.499 -8s146.166 5 221.499 15l70 -79l-163 -205c121.333 -118 182 -248.333 182 -391c0 -65.333 -12.667 -133.333 -38 -204c-81.333 -224.667 -255.333 -425 -522 -601l-5 180c127.333 50.667 215.833 119.167 265.5 205.5
s79.5 159.833 89.5 220.5c2 12 3 23.667 3 35c0 118.667 -92.667 222.667 -278 312l185 313h-210c-0.666992 -58.667 -2.33398 -118.5 -5.00098 -179.5s-4.33398 -118.833 -5.00098 -173.5c-1.33301 -124.667 -92.666 -409 -273.999 -853
c-20.667 20.667 -46.667 34.334 -78 41.001c45.333 165.333 72.666 343 81.999 533s14 347.5 14 472.5s-1.33301 235.833 -4 332.5c-1.33301 54.667 -28.333 103.334 -81 146.001l184 187l185 189c60.667 -20 138 -62.167 232 -126.5s175 -103.166 243 -116.499z" />
    <glyph glyph-name="agrave" unicode="&#xe0;" horiz-adv-x="922" 
d="M37 759l390 317.001l442 -207c-52 -45.333 -78.333 -96.333 -79 -153l-4 -331c0 -22.667 11.833 -48.334 35.5 -77.001s46.167 -51.667 67.5 -69l-202 -208l-155 159c-37.333 -30 -75 -57.5 -113 -82.5s-72 -51.167 -102 -78.5c-100 37.333 -193.333 95 -280 173
c24.667 31.333 39 77 43 137l-3 302v8c0 39.333 -13.333 76 -40 110zM380 836.001c-38.667 -58 -58 -109.667 -58 -155v-245c0 -50 9 -85.667 27 -107l42.5 -59c13 -17.333 33.833 -30 62.5 -38l82 59v460zM528 1470c33.333 -109.333 50 -227.667 50 -355v-33l-280 351z" />
    <glyph glyph-name="aacute" unicode="&#xe1;" horiz-adv-x="922" 
d="M37 759l390 317.001l442 -207c-52 -45.333 -78.333 -96.333 -79 -153l-4 -331c0 -22.667 11.833 -48.334 35.5 -77.001s46.167 -51.667 67.5 -69l-202 -208l-155 159c-37.333 -30 -75 -57.5 -113 -82.5s-72 -51.167 -102 -78.5c-100 37.333 -193.333 95 -280 173
c24.667 31.333 39 77 43 137l-3 302v8c0 39.333 -13.333 76 -40 110zM380 836.001c-38.667 -58 -58 -109.667 -58 -155v-245c0 -50 9 -85.667 27 -107l42.5 -59c13 -17.333 33.833 -30 62.5 -38l82 59v460zM253 1049v65c0 106 16.667 213.667 50 323l230 -37z" />
    <glyph glyph-name="acircumflex" unicode="&#xe2;" horiz-adv-x="922" 
d="M37 759l390 317.001l442 -207c-52 -45.333 -78.333 -96.333 -79 -153l-4 -331c0 -22.667 11.833 -48.334 35.5 -77.001s46.167 -51.667 67.5 -69l-202 -208l-155 159c-37.333 -30 -75 -57.5 -113 -82.5s-72 -51.167 -102 -78.5c-100 37.333 -193.333 95 -280 173
c24.667 31.333 39 77 43 137l-3 302v8c0 39.333 -13.333 76 -40 110zM380 836.001c-38.667 -58 -58 -109.667 -58 -155v-245c0 -50 9 -85.667 27 -107l42.5 -59c13 -17.333 33.833 -30 62.5 -38l82 59v460zM180 1104c-16.667 0 -24.998 3.66699 -24.998 11
c0 2 1.33301 4.33301 4 7l216 214c3.33301 3.33301 9.66602 5 18.999 5h118c9.33301 0 16.666 -1.66699 21.999 -5l211 -214c2.66699 -2.66699 4 -5 4 -7c0 -7.33301 -7.66699 -11 -23 -11h-53c-8.66699 0 -14 1 -16 3l-206 116c-130.667 -78 -199.5 -117.333 -206.5 -118
s-11.5 -1 -13.5 -1h-51z" />
    <glyph glyph-name="atilde" unicode="&#xe3;" horiz-adv-x="922" 
d="M37 759l390 317.001l442 -207c-52 -45.333 -78.333 -96.333 -79 -153l-4 -331c0 -22.667 11.833 -48.334 35.5 -77.001s46.167 -51.667 67.5 -69l-202 -208l-155 159c-37.333 -30 -75 -57.5 -113 -82.5s-72 -51.167 -102 -78.5c-100 37.333 -193.333 95 -280 173
c24.667 31.333 39 77 43 137l-3 302v8c0 39.333 -13.333 76 -40 110zM380 836.001c-38.667 -58 -58 -109.667 -58 -155v-245c0 -50 9 -85.667 27 -107l42.5 -59c13 -17.333 33.833 -30 62.5 -38l82 59v460zM584.889 1395.18l164.626 -180.603
c-23.7178 -68.6396 -68.1299 -127.434 -133.236 -176.382c-162.302 136.718 -272.75 205.076 -331.346 205.076c-12.5557 0 -22.7871 -3.09473 -30.6934 -9.2832c-44.6445 -34.8828 -69.5244 -116.744 -74.6396 -245.585l-198.11 236.302
c50.2256 111.398 118.588 167.098 205.087 167.098c61.3857 0 130.213 -30.3818 206.48 -91.1445c53.4805 -37.1328 91.1494 -55.6992 113.007 -55.6992s36.9717 5.90723 45.3418 17.7227c22.3223 31.5068 33.4834 75.6729 33.4834 132.498z" />
    <glyph glyph-name="adieresis" unicode="&#xe4;" horiz-adv-x="909" 
d="M287 29c-154 149.333 -231 326.334 -231 531.001c0 78 11.333 161.667 34 251l375 265c104 -66.667 219 -117 345 -151l-29 -411c-0.666992 -9.33301 -1 -18.333 -1 -27c0 -88.667 29.667 -165.334 89 -230.001l-179 -228l-175 197zM324 846.001
c-20 -99.333 -30 -186.333 -30 -261c0 -139.333 35 -235.666 105 -288.999c12 -10 25.333 -15 40 -15s31 6.33301 49 19c34 23.333 52 64.666 54 123.999l10 335c-84 16.667 -160 45.667 -228 87zM249 1076l20 394.999c92 -17.333 170.333 -47.666 235 -90.999zM530 1110
l99.001 364.001c87.333 -22.667 164.666 -55.334 231.999 -98.001z" />
    <glyph glyph-name="aring" unicode="&#xe5;" horiz-adv-x="922" 
d="M259 1449c101.333 53.333 179.333 97.3301 234 131.997c31.333 -10 63 -28.333 95 -55c67.333 -56 107.333 -115 120 -177c1.33301 -7.33301 2 -17.666 2 -30.999s-7.33301 -26.666 -22 -39.999l-200 -198l-260 99c27.333 40.667 41 79 41 115l-1 108
c-0.666992 22.667 -3.66699 38.334 -9 47.001zM422 1465l-1.99902 -199.002c3.33301 -15.333 18.666 -27.666 45.999 -36.999s47.333 -13 60 -11c36 6.66699 54 24.334 54 53.001c0 6.66699 -1 13.667 -3 21c-26 93.333 -77.667 151 -155 173zM37.001 758.995l390 317.001
l442 -207c-52 -45.333 -78.333 -96.333 -79 -153l-4 -331c0 -22.667 11.833 -48.334 35.5 -77.001s46.167 -51.667 67.5 -69l-202 -208l-155 159c-37.333 -30 -75 -57.5 -113 -82.5s-72 -51.167 -102 -78.5c-100 37.333 -193.333 95 -280 173c24.667 31.333 39 77 43 137
l-3 302v8c0 39.333 -13.333 76 -40 110zM380.001 835.996c-38.667 -58 -58 -109.667 -58 -155v-245c0 -50 9 -85.667 27 -107l42.5 -59c13 -17.333 33.833 -30 62.5 -38l82 59v460z" />
    <glyph glyph-name="ae" unicode="&#xe6;" horiz-adv-x="1281" 
d="M328 1079l324 -130l217 128v3l2 -1h1l389 -279l-405 -426c27.333 -32.667 57.666 -50.667 90.999 -54s60.833 -5 82.5 -5s47.334 1.16699 77.001 3.5s66.167 4.16602 109.5 5.49902l-105 -147l-104 -146l-325 129l-216 -127v-3l-2 1h-1l-389 279l405 426
c-27.333 32.667 -57.666 50.667 -90.999 54s-60.833 5 -82.5 5s-47.334 -1.16699 -77.001 -3.5s-66.167 -4.16602 -109.5 -5.49902l105 147zM841 810c-38.667 0 -58 -52.667 -58 -158c0 -60 10 -120 30 -180c0 -6 1 -11 3 -15l161 170c11.333 12 17 24 17 36
s-5.83301 27.333 -17.5 46s-23.5 34 -35.5 46c-42 36.667 -75.333 55 -100 55zM494 300c38.667 0 58 52.667 58 158c0 60 -10 120 -30 180c0 6 -1 11 -3 15l-161 -170c-11.333 -12 -17 -24 -17 -36s5.83301 -27.333 17.5 -46s23.5 -34 35.5 -46
c42 -36.667 75.333 -55 100 -55z" />
    <glyph glyph-name="ccedilla" unicode="&#xe7;" horiz-adv-x="785" 
d="M484 329c44.667 0 85.334 30.668 122.001 92.001l42.5 -29.5l43.5 -29.5l-154.5 -152.5l-124.5 -123.5l-92 -143c36 10 73 15 111 15s74.5 -12.833 109.5 -38.5s52.5 -59.834 52.5 -102.501c0 -60.667 -29.667 -104.334 -89 -131.001
c-40.667 -18.667 -88.334 -28 -143.001 -28c-106 0 -187 12 -243 36l20 45c37.333 -12.667 76 -19 116 -19c90 0 135 30.667 135 92c0 24 -8.16699 42.167 -24.5 54.5s-35.166 18.5 -56.499 18.5s-40.333 -4.33301 -57 -13l-30 29l99 150
c-191.333 136 -287 293.333 -287 472c0 92.667 30 184 90 274s156.667 188.333 290 295c57.333 -37.333 116.333 -73.833 177 -109.5l179 -106.5l-200 -176c-40 24.667 -71.833 45.834 -95.5 63.501s-48.667 32.5 -75 44.5s-45.333 18 -57 18s-24.167 -6.66699 -37.5 -20
c-41.333 -42 -62 -89.333 -62 -142c0 -92.667 54 -191.667 162 -297c27.333 -25.333 53.666 -38 78.999 -38z" />
    <glyph glyph-name="egrave" unicode="&#xe8;" horiz-adv-x="794" 
d="M520 31l-479 191.001c18 100 27 204.167 27 312.5s-10.333 221.5 -31 339.5l345 203v3l2 -1h1l389 -279l-405 -426c27.333 -32.667 57.666 -50.667 90.999 -54s60.833 -5 82.5 -5s47.334 1.16699 77.001 3.5s66.167 4.16602 109.5 5.49902l-105 -147zM354 810.001
c-38.667 0 -58 -52.667 -58 -158c0 -60 10 -120 30 -180c0 -6 1 -11 3 -15l161 170c11.333 12 17 24 17 36s-5.83301 27.333 -17.5 46s-23.5 34 -35.5 46c-42 36.667 -75.333 55 -100 55zM554 1391c33.333 -109.333 50 -227.667 50 -355v-33l-280 351z" />
    <glyph glyph-name="eacute" unicode="&#xe9;" horiz-adv-x="794" 
d="M520 31l-479 191.001c18 100 27 204.167 27 312.5s-10.333 221.5 -31 339.5l345 203v3l2 -1h1l389 -279l-405 -426c27.333 -32.667 57.666 -50.667 90.999 -54s60.833 -5 82.5 -5s47.334 1.16699 77.001 3.5s66.167 4.16602 109.5 5.49902l-105 -147zM354 810.001
c-38.667 0 -58 -52.667 -58 -158c0 -60 10 -120 30 -180c0 -6 1 -11 3 -15l161 170c11.333 12 17 24 17 36s-5.83301 27.333 -17.5 46s-23.5 34 -35.5 46c-42 36.667 -75.333 55 -100 55zM167 1026v65c0 106 16.667 213.667 50 323l230 -37z" />
    <glyph glyph-name="ecircumflex" unicode="&#xea;" horiz-adv-x="794" 
d="M520 31l-479 191.001c18 100 27 204.167 27 312.5s-10.333 221.5 -31 339.5l345 203v3l2 -1h1l389 -279l-405 -426c27.333 -32.667 57.666 -50.667 90.999 -54s60.833 -5 82.5 -5s47.334 1.16699 77.001 3.5s66.167 4.16602 109.5 5.49902l-105 -147zM354 810.001
c-38.667 0 -58 -52.667 -58 -158c0 -60 10 -120 30 -180c0 -6 1 -11 3 -15l161 170c11.333 12 17 24 17 36s-5.83301 27.333 -17.5 46s-23.5 34 -35.5 46c-42 36.667 -75.333 55 -100 55zM122 1133c-16.667 0 -24.998 3.66699 -24.998 11c0 2 1.33301 4.33301 4 7l216 214
c3.33301 3.33301 9.66602 5 18.999 5h118c9.33301 0 16.666 -1.66699 21.999 -5l211 -214c2.66699 -2.66699 4 -5 4 -7c0 -7.33301 -7.66699 -11 -23 -11h-53c-8.66699 0 -14 1 -16 3l-206 116c-130.667 -78 -199.5 -117.333 -206.5 -118s-11.5 -1 -13.5 -1h-51z" />
    <glyph glyph-name="edieresis" unicode="&#xeb;" horiz-adv-x="794" 
d="M520 31l-479 191.001c18 100 27 204.167 27 312.5s-10.333 221.5 -31 339.5l345 203v3l2 -1h1l389 -279l-405 -426c27.333 -32.667 57.666 -50.667 90.999 -54s60.833 -5 82.5 -5s47.334 1.16699 77.001 3.5s66.167 4.16602 109.5 5.49902l-105 -147zM354 810.001
c-38.667 0 -58 -52.667 -58 -158c0 -60 10 -120 30 -180c0 -6 1 -11 3 -15l161 170c11.333 12 17 24 17 36s-5.83301 27.333 -17.5 46s-23.5 34 -35.5 46c-42 36.667 -75.333 55 -100 55zM385 1106l70 320c88.667 -18 169 -47.667 241 -89
c-96 -90.667 -199.667 -167.667 -311 -231zM100 1076l46 369.001c84.667 -20.667 160 -49.334 226 -86.001c-80 -102 -170.667 -196.333 -272 -283z" />
    <glyph glyph-name="igrave" unicode="&#xec;" horiz-adv-x="470" 
d="M29 890l151 190.001l224 -105c-8 -27.333 -16.667 -54 -26 -80s-14 -52.667 -14 -80l-14 -406v-9c0 -31.333 10 -57.333 30 -78s43 -36.334 69 -47.001l-200 -244l-212 171c38.667 46 58 92 58 138l7 454c0 32 -24.333 64 -73 96zM147 1559
c33.333 -109.333 50 -227.667 50 -355v-33l-280 351z" />
    <glyph glyph-name="iacute" unicode="&#xed;" horiz-adv-x="470" 
d="M29 890l151 190.001l224 -105c-8 -27.333 -16.667 -54 -26 -80s-14 -52.667 -14 -80l-14 -406v-9c0 -31.333 10 -57.333 30 -78s43 -36.334 69 -47.001l-200 -244l-212 171c38.667 46 58 92 58 138l7 454c0 32 -24.333 64 -73 96zM203 1165v64.5c0 32.333 3 77 9 134
s38.333 116.5 97 178.5l230 -37z" />
    <glyph glyph-name="icircumflex" unicode="&#xee;" horiz-adv-x="470" 
d="M29 890l151 190.001l224 -105c-8 -27.333 -16.667 -54 -26 -80s-14 -52.667 -14 -80l-14 -406v-9c0 -31.333 10 -57.333 30 -78s43 -36.334 69 -47.001l-200 -244l-212 171c38.667 46 58 92 58 138l7 454c0 32 -24.333 64 -73 96zM-52 1171
c-16.667 0 -24.998 3.66699 -24.998 11c0 2 1.33301 4.33301 4 7l216 214c3.33301 3.33301 9.66602 5 18.999 5h118c9.33301 0 16.666 -1.66699 21.999 -5l211 -214c2.66699 -2.66699 4 -5 4 -7c0 -7.33301 -7.66699 -11 -23 -11h-53c-8.66699 0 -14 1 -16 3l-206 116
c-130.667 -78 -199.5 -117.333 -206.5 -118s-11.5 -1 -13.5 -1h-51z" />
    <glyph glyph-name="idieresis" unicode="&#xef;" horiz-adv-x="470" 
d="M29 890l151 190.001l224 -105c-8 -27.333 -16.667 -54 -26 -80s-14 -52.667 -14 -80l-14 -406v-9c0 -31.333 10 -57.333 30 -78s43 -36.334 69 -47.001l-200 -244l-212 171c38.667 46 58 92 58 138l7 454c0 32 -24.333 64 -73 96zM222 1106l70 320
c88.667 -18 169 -47.667 241 -89c-96 -90.667 -199.667 -167.667 -311 -231zM-63 1076l46 369.001c84.667 -20.667 160 -49.334 226 -86.001c-80 -102 -170.667 -196.333 -272 -283z" />
    <glyph glyph-name="eth" unicode="&#xf0;" horiz-adv-x="842" 
d="M176 1221l34.001 13l-56 67l265 139c24.667 -30.667 48.667 -62.334 72 -95.001l206 82l-66 -225l-39 -16c132 -233.333 207.667 -494 227 -782c-83.333 -62.667 -153.833 -120.667 -211.5 -174s-105.167 -119.666 -142.5 -198.999l-219.5 99.5
c-73 33.667 -140.167 78.5 -201.5 134.5c-2.66699 100.667 -4.66699 201.667 -6 303l-4 304c160 73.333 267.667 124.333 323 153c-10.667 18 -22.334 36.333 -35.001 55l-212 -84zM562.001 286v21.002c0 224 -52.667 437 -158 639
c-72.667 -34.667 -116 -97.334 -130 -188.001c-4.66699 -35.333 -7 -80.333 -7 -135s6.66699 -125.334 20 -212.001c93.333 -74 185 -115.667 275 -125z" />
    <glyph glyph-name="ntilde" unicode="&#xf1;" horiz-adv-x="929" 
d="M404 934l116.999 146l319 -231l-30 -118l-13 -322v-6c0 -32.667 10 -59.5 30 -80.5s42.667 -36.833 68 -47.5l-200 -244c-49.333 38.667 -87.166 73 -113.499 103s-39.5 91.667 -39.5 185v21l7 370c0 28 -42.667 74.667 -128 140l-40 -63l-19 -378v-6
c0 -32.667 10 -59.5 30 -80.5s43 -36.833 69 -47.5l-200 -244l-211 171c38 46 57 92 57 138l8 454c0 32 -24.667 64 -74 96l151 190zM614.4 1286.67l156.476 -150.221c-22.542 -57.0928 -64.7549 -105.996 -126.638 -146.71
c-154.264 113.719 -259.242 170.578 -314.937 170.578c-11.9346 0 -21.6592 -2.57422 -29.1738 -7.72266c-42.4336 -29.0146 -66.082 -97.1055 -70.9443 -204.272l-188.299 196.551c47.7373 92.6592 112.714 138.988 194.93 138.988
c58.3467 0 123.765 -25.2705 196.255 -75.8115c50.832 -30.8867 86.6357 -46.3301 107.41 -46.3301s35.1396 4.91406 43.0957 14.7412c21.2168 26.207 31.8252 62.9434 31.8252 110.209z" />
    <glyph glyph-name="ograve" unicode="&#xf2;" horiz-adv-x="864" 
d="M80 801c155.333 104 284.332 198.333 386.999 283c51.333 -22 103 -61.333 155 -118c112.667 -120.667 179.334 -246.667 200.001 -378c2.66699 -15.333 4 -30 4 -44c0 -44 -12.333 -79.667 -37 -107l-332 -423l-428 211c45.333 94 68 175.333 68 244l-2 233
c-2 48 -7 81 -15 99zM348.999 836l-3 -424.999c6 -32.667 29 -58.167 69 -76.5s66.5 -27.5 79.5 -27.5s21.833 0.666992 26.5 2c58.667 13.333 88 50.333 88 111c0 14 -1.66699 29.667 -5 47c-22.667 110 -55.5 193.167 -98.5 249.5s-95.167 96.166 -156.5 119.499z
M238.999 1396c33.333 -109.333 50 -227.667 50 -355v-33l-280 351z" />
    <glyph glyph-name="oacute" unicode="&#xf3;" horiz-adv-x="864" 
d="M80 801c155.333 104 284.332 198.333 386.999 283c51.333 -22 103 -61.333 155 -118c112.667 -120.667 179.334 -246.667 200.001 -378c2.66699 -15.333 4 -30 4 -44c0 -44 -12.333 -79.667 -37 -107l-332 -423l-428 211c45.333 94 68 175.333 68 244l-2 233
c-2 48 -7 81 -15 99zM348.999 836l-3 -424.999c6 -32.667 29 -58.167 69 -76.5s66.5 -27.5 79.5 -27.5s21.833 0.666992 26.5 2c58.667 13.333 88 50.333 88 111c0 14 -1.66699 29.667 -5 47c-22.667 110 -55.5 193.167 -98.5 249.5s-95.167 96.166 -156.5 119.499z
M560.999 1075v65c0 106 16.667 213.667 50 323l230 -37z" />
    <glyph glyph-name="ocircumflex" unicode="&#xf4;" horiz-adv-x="864" 
d="M80 801c155.333 104 284.332 198.333 386.999 283c51.333 -22 103 -61.333 155 -118c112.667 -120.667 179.334 -246.667 200.001 -378c2.66699 -15.333 4 -30 4 -44c0 -44 -12.333 -79.667 -37 -107l-332 -423l-428 211c45.333 94 68 175.333 68 244l-2 233
c-2 48 -7 81 -15 99zM348.999 836l-3 -424.999c6 -32.667 29 -58.167 69 -76.5s66.5 -27.5 79.5 -27.5s21.833 0.666992 26.5 2c58.667 13.333 88 50.333 88 111c0 14 -1.66699 29.667 -5 47c-22.667 110 -55.5 193.167 -98.5 249.5s-95.167 96.166 -156.5 119.499z
M192.999 1140c-16.667 0 -24.998 3.66699 -24.998 11c0 2 1.33301 4.33301 4 7l216 214c3.33301 3.33301 9.66602 5 18.999 5h118c9.33301 0 16.666 -1.66699 21.999 -5l211 -214c2.66699 -2.66699 4 -5 4 -7c0 -7.33301 -7.66699 -11 -23 -11h-53c-8.66699 0 -14 1 -16 3
l-206 116c-130.667 -78 -199.5 -117.333 -206.5 -118s-11.5 -1 -13.5 -1h-51z" />
    <glyph glyph-name="otilde" unicode="&#xf5;" horiz-adv-x="864" 
d="M80 801c155.333 104 284.332 198.333 386.999 283c51.333 -22 103 -61.333 155 -118c112.667 -120.667 179.334 -246.667 200.001 -378c2.66699 -15.333 4 -30 4 -44c0 -44 -12.333 -79.667 -37 -107l-332 -423l-428 211c45.333 94 68 175.333 68 244l-2 233
c-2 48 -7 81 -15 99zM348.999 836l-3 -424.999c6 -32.667 29 -58.167 69 -76.5s66.5 -27.5 79.5 -27.5s21.833 0.666992 26.5 2c58.667 13.333 88 50.333 88 111c0 14 -1.66699 29.667 -5 47c-22.667 110 -55.5 193.167 -98.5 249.5s-95.167 96.166 -156.5 119.499z
M490.077 1254.51l132.446 -145.95c-19.0811 -55.4697 -54.8115 -102.982 -107.191 -142.539c-130.577 110.485 -219.437 165.728 -266.579 165.728c-10.1025 0 -18.334 -2.50098 -24.6943 -7.50195c-35.918 -28.1895 -55.9346 -94.3438 -60.0508 -198.464l-159.386 190.962
c40.4072 90.0244 95.4062 135.037 164.997 135.037c49.3877 0 104.762 -24.5518 166.122 -73.6562c43.0264 -30.0088 73.332 -45.0127 90.917 -45.0127s29.7451 4.77441 36.4805 14.3223c17.959 25.4619 26.9385 61.1533 26.9385 107.075z" />
    <glyph glyph-name="odieresis" unicode="&#xf6;" horiz-adv-x="882" 
d="M77 801c152.667 101.333 281.997 195.666 387.997 282.999c50.667 -22 102.334 -61.333 155.001 -118c112.667 -120.667 179.334 -246.667 200.001 -378c2.66699 -15.333 4 -29.666 4 -42.999c0 -44.667 -12.667 -80.667 -38 -108l-331 -423l-429 211
c16.667 34.667 32.334 72 47.001 112s22 84 22 132l-3 233c-1.33301 48 -6.33301 81 -15 99zM543.997 1106l70 320c88.667 -18 169 -47.667 241 -89c-96 -90.667 -199.667 -167.667 -311 -231zM258.997 1076l46 369.001c84.667 -20.667 160 -49.334 226 -86.001
c-80 -102 -170.667 -196.333 -272 -283zM345.997 836.001l-1.99902 -424.999c5.33301 -32.667 28 -58.167 68 -76.5s66.667 -27.5 80 -27.5s22.333 0.666992 27 2c58 13.333 87 50 87 110c0 14.667 -1.66699 30.667 -5 48c-22.667 110 -55.334 193.167 -98.001 249.5
s-95 96.166 -157 119.499z" />
    <glyph glyph-name="oslash" unicode="&#xf8;" horiz-adv-x="864" 
d="M80 801c155.333 104 284.333 198.333 387 283c36 -16 72.667 -40.333 110 -73l40 80l147 1l-93 -182c32 -40 62.667 -87.667 92 -143c42 -78.667 63 -146.5 63 -203.5s-12.333 -99.167 -37 -126.5l-332 -423l-193 95l-55 -108h-139l81 163l-122 61
c45.333 94 68 175.333 68 244l-2 233c-2 48 -7 81 -15 99zM386 351c10 -6.66699 27.333 -15.668 52 -27.001s43.5 -17 56.5 -17s21.833 0.666992 26.5 2c58.667 13.333 88 50.333 88 111c0 14 -4.83301 44.333 -14.5 91s-27.167 95.334 -52.5 146.001zM349 835.999l-3 -284
l110 218c-31.333 29.333 -67 51.333 -107 66z" />
    <glyph glyph-name="ugrave" unicode="&#xf9;" horiz-adv-x="979" 
d="M520 890l151 190l224 -105c-7.33301 -27.333 -15.833 -54 -25.5 -80s-14.5 -52.667 -14.5 -80l-14 -406v-6c0 -32.667 10 -59.5 30 -80.5s43 -36.833 69 -47.5l-200 -244l-218 190l-260 -190l-211 171c38.667 46 58 92 58 138l7 454c0 32 -24.667 64 -74 96l152 190
l223 -105c-7.33301 -27.333 -15.833 -54 -25.5 -80s-14.5 -52.667 -14.5 -80l-13 -406c-1.33301 -32 10.667 -65.667 36 -101c8 -10 18.667 -15 32 -15c33.333 0 85 30.333 155 91l7 410c0 32 -24.667 64 -74 96zM447 1386c33.333 -109.333 50 -227.667 50 -355v-33
l-280 351z" />
    <glyph glyph-name="uacute" unicode="&#xfa;" horiz-adv-x="979" 
d="M520 890l151 190l224 -105c-7.33301 -27.333 -15.833 -54 -25.5 -80s-14.5 -52.667 -14.5 -80l-14 -406v-6c0 -32.667 10 -59.5 30 -80.5s43 -36.833 69 -47.5l-200 -244l-218 190l-260 -190l-211 171c38.667 46 58 92 58 138l7 454c0 32 -24.667 64 -74 96l152 190
l223 -105c-7.33301 -27.333 -15.833 -54 -25.5 -80s-14.5 -52.667 -14.5 -80l-13 -406c-1.33301 -32 10.667 -65.667 36 -101c8 -10 18.667 -15 32 -15c33.333 0 85 30.333 155 91l7 410c0 32 -24.667 64 -74 96zM479 1030v65c0 106 16.667 213.667 50 323l230 -37z" />
    <glyph glyph-name="ucircumflex" unicode="&#xfb;" horiz-adv-x="979" 
d="M520 890l151 190l224 -105c-7.33301 -27.333 -15.833 -54 -25.5 -80s-14.5 -52.667 -14.5 -80l-14 -406v-6c0 -32.667 10 -59.5 30 -80.5s43 -36.833 69 -47.5l-200 -244l-218 190l-260 -190l-211 171c38.667 46 58 92 58 138l7 454c0 32 -24.667 64 -74 96l152 190
l223 -105c-7.33301 -27.333 -15.833 -54 -25.5 -80s-14.5 -52.667 -14.5 -80l-13 -406c-1.33301 -32 10.667 -65.667 36 -101c8 -10 18.667 -15 32 -15c33.333 0 85 30.333 155 91l7 410c0 32 -24.667 64 -74 96zM192 1131c-16.667 0 -24.998 3.66699 -24.998 11
c0 2 1.33301 4.33301 4 7l216 214c3.33301 3.33301 9.66602 5 18.999 5h118c9.33301 0 16.666 -1.66699 21.999 -5l211 -214c2.66699 -2.66699 4 -5 4 -7c0 -7.33301 -7.66699 -11 -23 -11h-53c-8.66699 0 -14 1 -16 3l-206 116c-130.667 -78 -199.5 -117.333 -206.5 -118
s-11.5 -1 -13.5 -1h-51z" />
    <glyph glyph-name="udieresis" unicode="&#xfc;" horiz-adv-x="966" 
d="M511 890l151.002 190l224 -105c-7.33301 -27.333 -15.833 -54 -25.5 -80s-14.5 -52.667 -14.5 -80l-14 -406v-6c0 -32.667 10 -59.5 30 -80.5s43 -36.833 69 -47.5l-200 -244l-217 190l-260 -190l-212 171c38.667 46 58 92 58 138l7 454c0 32 -24.333 64 -73 96l151 190
l224 -105c-8 -27.333 -16.667 -54 -26 -80s-14 -52.667 -14 -80l-14 -406c-0.666992 -32 11.666 -65.667 36.999 -101c7.33301 -10 17.666 -15 30.999 -15c33.333 0 85.333 30.333 156 91l6 410c0 32 -24.667 64 -74 96zM551.002 1106l70.001 320
c89.333 -18 169.666 -47.667 240.999 -89c-95.333 -90.667 -199 -167.667 -311 -231zM266.003 1076l46 369.001c85.333 -20.667 161 -49.334 227 -86.001c-80 -102 -171 -196.333 -273 -283z" />
    <glyph glyph-name="yacute" unicode="&#xfd;" horiz-adv-x="976" 
d="M464 34l-112 50.999l-241 74c40 50 60 110.333 60 181l8 454c0 33.333 -24.667 65.333 -74 96l151 190l240 -159c-7.33301 -27.333 -17.5 -46.833 -30.5 -58.5s-20.833 -31.167 -23.5 -58.5l-45 -469c-2 -20.667 11.5 -52.667 40.5 -96s65.5 -66 109.5 -68
c69.333 159.333 106 367 110 623c1.33301 31.333 -22.667 63.333 -72 96l151 190l226 -159c-7.33301 -27.333 -15 -45.166 -23 -53.499s-20.333 -49.666 -37 -123.999s-52.5 -176.833 -107.5 -307.5s-115.333 -252.834 -181 -366.501s-132.667 -212.667 -201 -297
s-129.5 -140.5 -183.5 -168.5l-194 158c194.667 71.333 337.667 162 429 272zM538 996.999v65c0 106 16.667 213.667 50 323l230 -37z" />
    <glyph glyph-name="thorn" unicode="&#xfe;" horiz-adv-x="877" 
d="M407 -264c-114 -18 -231 -66.999 -351 -146.999l-50 54c20 12 47.5 52.5 82.5 121.5s52.5 131.167 52.5 186.5l-10 1219c0 49.333 -33.333 90.666 -100 123.999l11 47c132.667 46.667 275.667 111.334 429 194.001l63 -39
c-94.667 -56.667 -142.334 -163.667 -143.001 -321l-1 -206l166 132c50.667 -21.333 97.334 -62.666 140.001 -123.999c87.333 -125.333 138.333 -258.333 153 -399c2 -16.667 3 -38.334 3 -65.001s-7.33301 -49.334 -22 -68.001l-331 -431l-105 52
c0.666992 -52 5 -162 13 -330zM390 850.001l-3.00098 -433.001c6 -33.333 28.833 -59.166 68.5 -77.499s66.334 -27.5 80.001 -27.5s23.167 0.666992 28.5 2c57.333 14.667 86 52 86 112c0 14.667 -1.66699 30.667 -5 48c-22.667 112 -55.5 196.667 -98.5 254
s-95.167 98 -156.5 122z" />
    <glyph glyph-name="ydieresis" unicode="&#xff;" horiz-adv-x="976" 
d="M464 34l-112 50.999l-241 74c40 50 60 110.333 60 181l8 454c0 33.333 -24.667 65.333 -74 96l151 190l240 -159c-7.33301 -27.333 -17.5 -46.833 -30.5 -58.5s-20.833 -31.167 -23.5 -58.5l-45 -469c-2 -20.667 11.5 -52.667 40.5 -96s65.5 -66 109.5 -68
c69.333 159.333 106 367 110 623c1.33301 31.333 -22.667 63.333 -72 96l151 190l226 -159c-7.33301 -27.333 -15 -45.166 -23 -53.499s-20.333 -49.666 -37 -123.999s-52.5 -176.833 -107.5 -307.5s-115.333 -252.834 -181 -366.501s-132.667 -212.667 -201 -297
s-129.5 -140.5 -183.5 -168.5l-194 158c194.667 71.333 337.667 162 429 272zM633 1081l70 320c88.667 -18 169 -47.667 241 -89c-96 -90.667 -199.667 -167.667 -311 -231zM348 1051l46 369.001c84.667 -20.667 160 -49.334 226 -86.001
c-80 -102 -170.667 -196.333 -272 -283z" />
    <glyph glyph-name="OE" unicode="&#x152;" horiz-adv-x="1857" 
d="M1831 1345l-169.999 -198.001c-104 72 -205.667 115 -305 129c-6 -57.333 -10 -122.666 -12 -195.999h413v-236h-408c2 -76 9.66699 -164.333 23 -265l-230 -84c126 -113.333 301.333 -170 526 -170c25.333 0 51.333 0.666992 78 2l-219 -296
c-147.333 16 -277.333 50.667 -390 104c-110.667 -70 -209.667 -105 -297 -105c-282.667 0 -479.834 90.167 -591.501 270.5s-183.167 390.833 -214.5 631.5c107.333 155.333 233 287 377 395s319 177.333 525 208l-2 -286l487 286c94 -64.667 230.667 -128 410 -190z
M655.001 633.999l-10 445.999c-4 76 -11 151 -21 225c-146.667 -85.333 -220 -220.333 -220 -405c0 -15.333 0.666992 -31 2 -47c12.667 -209.333 83 -374 211 -494c25.333 70.667 38 162.334 38 275.001zM1065 576.998l74 25c-20 146 -30 272.333 -30 379
s1.66699 192 5 256c-40 -20 -72.5 -43.333 -97.5 -70s-43 -52.5 -54 -77.5s-16.5 -60.333 -16.5 -106s0.666992 -80.167 2 -103.5c4.66699 -105.333 43.667 -206.333 117 -303zM976.001 234.998c-64.667 52 -118.331 108.667 -160.998 170
c-48.667 -32.667 -84.667 -71 -108 -115c65.333 -39.333 134.666 -59 207.999 -59c25.333 0 45.666 1.33301 60.999 4z" />
    <glyph glyph-name="oe" unicode="&#x153;" horiz-adv-x="1361" 
d="M80 801c155.333 104 284.333 198.334 387 283.001c51.333 -22 103 -61.333 155 -118c14.667 -14.667 28 -30 40 -46l267 157v3l1 -1h1l389 -279l-405 -426c27.333 -32.667 57.666 -50.667 90.999 -54s60.833 -5 82.5 -5s47.334 1.16699 77.001 3.5
s66.167 4.16602 109.5 5.49902l-209 -293l-454 181l-155 -198l-428 211c45.333 94 68 175.333 68 244l-2 233c-2 48 -7 81 -15 99zM349 836.001l-3 -424.999c6 -32.667 29 -58.167 69 -76.5s66.5 -27.5 79.5 -27.5s21.833 0.666992 26.5 2c58.667 13.333 88 50.333 88 111
c0 14 -1.66699 29.667 -5 47c-22.667 110 -55.5 193.167 -98.5 249.5s-95.167 96.166 -156.5 119.499zM900 810.002c-38.667 0 -58 -52.667 -58 -158c0 -60 10 -120 30 -180c0 -2 1 -7 3 -15l161 170c11.333 12.667 17 25 17 37s-5.66699 27.167 -17 45.5
s-23.333 33.5 -36 45.5c-42 36.667 -75.333 55 -100 55z" />
    <glyph glyph-name="Scaron" unicode="&#x160;" horiz-adv-x="1475" 
d="M885 1425c-3.33301 -3.33301 -9.66797 -5 -19.001 -5h-118c-9.33301 0 -16.666 1.66699 -21.999 5l-211 214c-4.66699 4.66699 -5 8.83398 -1 12.501s10.667 5.5 20 5.5h53c8.66699 0 14 -1 16 -3l206 -116c130.667 78 199.5 117.333 206.5 118s11.5 1 13.5 1h51
c9.33301 0 16.5 -1.83301 21.5 -5.5s4.83301 -7.83398 -0.5 -12.501zM994.998 1288c61.333 -27.333 124 -41.001 188 -41.001s142 21.333 234 64l39 -41c-99.333 -186 -219.666 -279 -360.999 -279c-38.667 0 -90.334 10 -155.001 30c-180.667 54 -311 81 -391 81
c-148.667 0 -235.667 -37.667 -261 -113c-6 -20 -9 -42.5 -9 -67.5s9.33301 -50.833 28 -77.5c33.333 -50 86 -75 158 -75s136.667 55.667 194 167c62.667 8.66699 122 13 178 13c108.667 0 204.334 -16.667 287.001 -50c124.667 -50.667 207 -121.667 247 -213
c16.667 -37.333 25 -81.166 25 -131.499s-16.667 -108.5 -50 -174.5c-56.667 -114 -173 -221.333 -349 -322c-32 -18.667 -68.667 -28 -110 -28c-42.667 0 -89.334 5 -140.001 15c-294 52.667 -511.667 185.667 -653 399c-35.333 52 -53 109.333 -53 172
c0 8 0.333008 15.667 1 23c23.333 282 151.333 508 384 678c44 32.667 105 48.667 183 48c128 -1.33301 256.667 -27 386 -77zM321.998 672.999c25.333 -101.333 121.667 -191.668 289 -271.001c126 -60 243.667 -90 353 -90c35.333 0 70 3.33301 104 10
c68 12 120 35.333 156 70c38 36.667 57 75.5 57 116.5s-19.167 80.833 -57.5 119.5s-98.833 64.334 -181.5 77.001c-8 1.33301 -23 2 -45 2s-61.5 -9.5 -118.5 -28.5s-104.167 -63.833 -141.5 -134.5h-18c-120 0 -252.333 43 -397 129z" />
    <glyph glyph-name="scaron" unicode="&#x161;" horiz-adv-x="897" 
d="M535 1138c-3.33301 -3.33301 -9.66699 -5 -19 -5h-118c-10 0 -17.333 1.66699 -22 5l-211 214c-4.66699 4.66699 -5 8.83398 -1 12.501s10.667 5.5 20 5.5h53c8.66699 0 14 -1 16 -3l206 -116c130.667 78 199.5 117.333 206.5 118s11.5 1 13.5 1h51
c9.33301 0 16.5 -1.83301 21.5 -5.5s4.83301 -7.83398 -0.5 -12.501zM25.999 217l174.001 182c-62.667 84 -107 179 -133 285c80 132 198.333 264 355 396c123.333 -34 264.666 -66 423.999 -96l24 6l-188 -193l164 -411c-124 -92.667 -238 -211 -342 -355
c-130 76.667 -289.333 138.667 -478 186zM555 286c67.333 0 101.001 24 101.001 72c0 42 -48 130 -144 264l-240 -247c103.333 -59.333 197.666 -89 282.999 -89zM397.001 604l193.999 200.001c-116 31.333 -193.667 47 -233 47s-61.166 -3.83301 -65.499 -11.5
s-6.5 -14.834 -6.5 -21.501c0 -38 37 -109.333 111 -214z" />
    <glyph glyph-name="Ydieresis" unicode="&#x178;" horiz-adv-x="1346" 
d="M689 -565c-108.667 0 -224.003 32.3359 -346.003 97.0029c-48 26 -101.167 39 -159.5 39s-127.5 -24.667 -207.5 -74l-35 47c45.333 113.333 94.833 195.166 148.5 245.499s111.5 75.5 173.5 75.5c35.333 0 82.333 -11.333 141 -34c160 -62 276.333 -93 349 -93
c136 0 214.667 43.333 236 130c6 23.333 9 49.333 9 78s-6.83301 55.167 -20.5 79.5s-36.667 81.833 -69 172.5s-48.5 154.667 -48.5 192c0 6 0.333008 11.667 1 17l-340 -376c-57.333 50.667 -130.166 95.667 -218.499 135s-182.166 76.333 -281.499 111
c132.667 88.667 215.667 190.334 249 305.001c9.33301 31.333 14 63.333 14 96c0 87.333 -35 182.666 -105 285.999s-105 200.666 -105 291.999c0 143.333 90.333 266.666 271 369.999l53 -30l53 -30c-104 -72 -156 -137.333 -156 -196c0 -15.333 3.33301 -30 10 -44
c34 -70 132.333 -131.333 295 -184v-7c0 -217.333 -62 -430.666 -186 -639.999c106.667 -68 185.334 -102 236.001 -102c48 0 125 64.333 231 193c4 61.333 6 137 6 227s-6 198 -18 324c0.666992 6 1 11.667 1 17c0 30 -13.5 54.5 -40.5 73.5l-85.5 62.5l240 264l288 -175
c-43.333 -58 -67.666 -115 -72.999 -171s-8.33301 -113.667 -9 -173l-5 -390v-34c0 -82 9.16699 -145.333 27.5 -190s50.833 -76 97.5 -94c-56.667 -77.333 -115.834 -216.333 -177.501 -417s-150.167 -340.334 -265.5 -419.001c-56.667 -37.333 -116 -56 -178 -56z
M766.997 1456l70 320c88.667 -18 169 -47.667 241 -89c-96 -90.667 -199.667 -167.667 -311 -231zM481.997 1426l46 369.001c84.667 -20.667 160 -49.334 226 -86.001c-80 -102 -170.667 -196.333 -272 -283z" />
    <glyph glyph-name="Zcaron" unicode="&#x17d;" horiz-adv-x="1214" 
d="M683 1325c-3.33301 -3.33301 -9.66699 -5 -19 -5h-118c-10 0 -17.333 1.66699 -22 5l-211 214c-4.66699 4.66699 -5 8.83398 -1 12.501s10.667 5.5 20 5.5h53c8.66699 0 14 -1 16 -3l206 -116c130.667 78 199.5 117.333 206.5 118s11.5 1 13.5 1h51
c9.33301 0 16.5 -1.83301 21.5 -5.5s4.83301 -7.83398 -0.5 -12.501zM612.999 1206l253 3c94.667 0 189 -1.33301 283 -4l-396 -362c165.333 -98.667 276.833 -194.167 334.5 -286.5s85.834 -185.5 84.501 -279.5s-32 -190.333 -92 -289s-137.167 -185 -231.5 -259
s-200.833 -128.333 -319.5 -163c-62 -18 -122.833 -27 -182.5 -27s-118.5 7.66699 -176.5 23c-77.333 20.667 -116 85 -116 193c0 128.667 25 240 75 334c76.667 144.667 235.667 274.667 477 390c-63.333 42 -158.333 84.333 -285 127l388 312
c-78.667 22 -168.667 33 -270 33c-146.667 0 -276.334 -27.667 -389.001 -83l152 376c130.667 -25.333 267.667 -38 411 -38zM374.999 -238c47.333 -22.667 95.332 -34 143.999 -34s97.667 11 147 33c100 44.667 160 86.334 180 125.001c28 42 42 95.667 42 161
c0 97.333 -32.333 182.666 -97 255.999c-29.333 5.33301 -66.166 8 -110.499 8s-103 -12.833 -176 -38.5s-130.167 -59.167 -171.5 -100.5s-73 -106 -95 -194c-4 -14.667 -6 -29 -6 -43c0 -69.333 47.667 -127 143 -173z" />
    <glyph glyph-name="zcaron" unicode="&#x17e;" horiz-adv-x="776" 
d="M474 1171c-3.33301 -3.33301 -9.66699 -5 -19 -5h-118c-10 0 -17.333 1.66699 -22 5l-211 214c-4.66699 4.66699 -5 8.83398 -1 12.501s10.667 5.5 20 5.5h53c8.66699 0 14 -1 16 -3l206 -116c130.667 78 199.5 117.333 206.5 118s11.5 1 13.5 1h51
c9.33301 0 16.5 -1.83301 21.5 -5.5s4.83301 -7.83398 -0.5 -12.501zM390.999 461c-38.667 34 -98.998 69.333 -180.998 106l246 262c-27.333 4.66699 -57 7 -89 7c-82.667 0 -179.667 -17 -291 -51l59 319c79.333 -30.667 164.333 -46 255 -46
c11.333 0 45.666 1.16699 102.999 3.5s138 5.16602 242 8.49902l-251 -303c104.667 -83.333 175.167 -163.833 211.5 -241.5s54.5 -154.167 54.5 -229.5c-2.66699 -164.667 -71.334 -320 -206.001 -466c-98.667 -107.333 -201.334 -161 -308.001 -161
c-40 0 -82.5 8.33301 -127.5 25s-67.5 69.334 -67.5 158.001c0 107.333 16 200.666 48 279.999c48.667 122.667 149.334 232.334 302.001 329.001zM245.001 -141c28.667 -20.667 56.832 -30.999 84.499 -30.999s54.834 9.33301 81.501 28
c99.333 71.333 149 158.666 149 261.999c0 60.667 -17.667 125.334 -53 194.001c-16.667 4 -39 6 -67 6s-65.167 -13.167 -111.5 -39.5s-82.5 -57 -108.5 -92s-46 -85.833 -60 -152.5c-2 -10.667 -3 -21.334 -3 -32.001c0 -53.333 29.333 -101 88 -143z" />
    <glyph glyph-name="longs" unicode="&#x17f;" horiz-adv-x="492" 
d="M762 1400l-180 -220.004c-48.667 28 -107.667 46.333 -177 55c-23.333 -33.333 -40.333 -58.333 -51 -75c28.667 -61.333 43 -153.666 43 -276.999c0 -14 -1 -61 -3 -141s-4.33301 -182.667 -7 -308c-1.33301 -123.333 -92.333 -407.666 -273 -852.999
c-21.333 20.667 -47.666 34.334 -78.999 41.001c46 165.333 73.5 342.5 82.5 531.5s13.5 346 13.5 471s-1.33301 236.833 -4 335.5c-1.33301 54.667 -28.333 103.334 -81 146.001c57.333 60.667 107.5 118.5 150.5 173.5s93.167 113.5 150.5 175.5
c91.333 0 229.666 -18.333 414.999 -55z" />
    <glyph glyph-name="florin" unicode="&#x192;" horiz-adv-x="1024" 
d="M1090 1235c0 -62.667 -37.6689 -93.9971 -113.002 -93.9971c-39.333 0 -67 20.333 -83 61c-5.33301 12 -10.5 26.167 -15.5 42.5s-14.167 31.833 -27.5 46.5s-30.333 22 -51 22s-40.667 -7.5 -60 -22.5s-36.666 -38.833 -51.999 -71.5
c-33.333 -68.667 -55.666 -172.667 -66.999 -312l-9 -98h226c14.667 0 20.667 -4 18 -12l-14 -62c-2 -8 -10.333 -12 -25 -12h-213l-37 -320c-24 -215.333 -83 -383 -177 -503c-86 -110.667 -189.333 -166 -310 -166c-64 0 -117 17 -159 51c-36 29.333 -54 60.833 -54 94.5
s7 60.5 21 80.5s31.333 30 52 30s37.167 -2.83301 49.5 -8.5s23.166 -12.834 32.499 -21.501c15.333 -14.667 26.833 -35.334 34.5 -62.001s18.834 -46.334 33.501 -59.001s33.334 -19 56.001 -19s40.334 8 53.001 24s24 41.667 34 77c18.667 65.333 36 181.666 52 348.999
l43 453h-152c-11.333 0 -15.333 6 -12 18l14 56c2 8 8.33301 12 19 12h141c24.667 194 82 338 172 432c55.333 58 103 96 143 114c64 29.333 123.167 44 177.5 44s96.666 -5.16699 126.999 -15.5s55.166 -23.5 74.499 -39.5c38.667 -31.333 58 -67.666 58 -108.999z" />
    <glyph glyph-name="circumflex" unicode="&#x2c6;" horiz-adv-x="598" 
d="M64 1290c-16.667 0 -24.998 3.66699 -24.998 11c0 2 1.33301 4.33301 4 7l216 214c3.33301 3.33301 9.66602 5 18.999 5h118c9.33301 0 16.666 -1.66699 21.999 -5l211 -214c2.66699 -2.66699 4 -5 4 -7c0 -7.33301 -7.66699 -11 -23 -11h-53c-8.66699 0 -14 1 -16 3
l-206 116c-130.667 -78 -199.5 -117.333 -206.5 -118s-11.5 -1 -13.5 -1h-51z" />
    <glyph glyph-name="caron" unicode="&#x2c7;" horiz-adv-x="598" 
d="M608 1527c16.667 0 24.998 -3.66699 24.998 -11c0 -2 -1.33301 -4.33301 -4 -7l-216 -214c-3.33301 -3.33301 -9.66602 -5 -18.999 -5h-118c-9.33301 0 -16.666 1.66699 -21.999 5l-211 214c-2.66699 2.66699 -4 5 -4 7c0 7.33301 7.66699 11 23 11h53
c8.66699 0 14 -1 16 -3l206 -116c130.667 78 199.5 117.333 206.5 118s11.5 1 13.5 1h51z" />
    <glyph glyph-name="ring" unicode="&#x2da;" horiz-adv-x="570" 
d="M53 1338c102.667 68.667 187.665 130.668 254.998 186.001c34 -14 68.333 -39.667 103 -77c74.667 -80.667 118.334 -164.334 131.001 -251.001c2 -9.33301 3 -23.5 3 -42.5s-8 -37.833 -24 -56.5l-219 -279l-283 139c30 62 45 116 45 162l-1 153
c-1.33301 32 -4.66602 54 -9.99902 66zM229.998 1361l-2.00293 -280.999c4 -21.333 19.333 -38 46 -50s44.334 -18 53.001 -18s14.334 0.333008 17.001 1c38.667 8.66699 58 33 58 73c0 9.33301 -1 19.666 -3 30.999c-27.333 130.667 -83.666 212 -168.999 244z" />
    <glyph glyph-name="tilde" unicode="&#x2dc;" horiz-adv-x="546" 
d="M622 1511l236 -213.999c-34 -81.333 -97.667 -151 -191 -209c-232.667 162 -391 243 -475 243c-18 0 -32.667 -3.66699 -44 -11c-64 -41.333 -99.667 -138.333 -107 -291l-284 280c72 132 170 198 294 198c88 0 186.667 -36 296 -108c76.667 -44 130.667 -66 162 -66
s53 7 65 21c32 37.333 48 89.666 48 156.999z" />
    <glyph glyph-name="gravecomb" unicode="&#x300;" 
d="M-115 1680c33.333 -109.333 50 -227.667 50 -355v-33l-280 351z" />
    <glyph glyph-name="acutecomb" unicode="&#x301;" 
d="M-267 1351v65c0 106 16.667 213.667 50 323l230 -37z" />
    <glyph glyph-name="uni0302" unicode="&#x302;" 
d="M-516 1290c-16.667 0 -24.998 3.66699 -24.998 11c0 2 1.33301 4.33301 4 7l216 214c3.33301 3.33301 9.66602 5 18.999 5h118c9.33301 0 16.666 -1.66699 21.999 -5l211 -214c2.66699 -2.66699 4 -5 4 -7c0 -7.33301 -7.66699 -11 -23 -11h-53c-8.66699 0 -14 1 -16 3
l-206 116c-130.667 -78 -199.5 -117.333 -206.5 -118s-11.5 -1 -13.5 -1h-51z" />
    <glyph glyph-name="tildecomb" unicode="&#x303;" 
d="M80 1511l236 -213.999c-34 -81.333 -97.667 -151 -191 -209c-232.667 162 -391 243 -475 243c-18 0 -32.667 -3.66699 -44 -11c-64 -41.333 -99.667 -138.333 -107 -291l-284 280c72 132 170 198 294 198c88 0 186.667 -36 296 -108c76.667 -44 130.667 -66 162 -66
s53 7 65 21c32 37.333 48 89.666 48 156.999z" />
    <glyph glyph-name="uni0304" unicode="&#x304;" 
d="M-588 1413h495v-100h-495v100z" />
    <glyph glyph-name="uni0308" unicode="&#x308;" 
d="M-317 1106l70 320c88.667 -18 169 -47.667 241 -89c-96 -90.667 -199.667 -167.667 -311 -231zM-602 1076l46 369.001c84.667 -20.667 160 -49.334 226 -86.001c-80 -102 -170.667 -196.333 -272 -283z" />
    <glyph glyph-name="uni030A" unicode="&#x30a;" 
d="M-511 1338c102.667 68.667 187.665 130.668 254.998 186.001c34 -14 68.333 -39.667 103 -77c74.667 -80.667 118.334 -164.334 131.001 -251.001c2 -9.33301 3 -23.5 3 -42.5s-8 -37.833 -24 -56.5l-219 -279l-283 139c30 62 45 116 45 162l-1 153
c-1.33301 32 -4.66602 54 -9.99902 66zM-334.002 1361l-2.00293 -280.999c4 -21.333 19.333 -38 46 -50s44.334 -18 53.001 -18s14.334 0.333008 17.001 1c38.667 8.66699 58 33 58 73c0 9.33301 -1 19.666 -3 30.999c-27.333 130.667 -83.666 212 -168.999 244z" />
    <glyph glyph-name="uni030C" unicode="&#x30c;" 
d="M26 1527c16.667 0 24.998 -3.66699 24.998 -11c0 -2 -1.33301 -4.33301 -4 -7l-216 -214c-3.33301 -3.33301 -9.66602 -5 -18.999 -5h-118c-9.33301 0 -16.666 1.66699 -21.999 5l-211 214c-2.66699 2.66699 -4 5 -4 7c0 7.33301 7.66699 11 23 11h53
c8.66699 0 14 -1 16 -3l206 -116c130.667 78 199.5 117.333 206.5 118s11.5 1 13.5 1h51z" />
    <glyph glyph-name="uni0327" unicode="&#x327;" 
d="M-467 0l67.999 0.00195312l-99 -154c36 10 73 15 111 15s74.5 -12.833 109.5 -38.5s52.5 -59.834 52.5 -102.501c0 -60.667 -29.667 -104.334 -89 -131.001c-40.667 -18.667 -88 -28 -142 -28c-106.667 0 -188 12 -244 36l20 45c37.333 -12.667 76 -19 116 -19
c90 0 135 30.667 135 92c0 24 -8.16699 42.167 -24.5 54.5s-35.166 18.5 -56.499 18.5s-40.333 -4.33301 -57 -13l-30 29z" />
    <glyph glyph-name="uni1E9E" unicode="&#x1e9e;" horiz-adv-x="1370" 
d="M323 31l-280.004 177.999c18.667 63.333 33.667 129.333 45 198l20 179c4 60 6 134.333 6 223s-5.66699 198 -17 328c0.666992 6 1 11.667 1 17c0 30 -13.667 54.5 -41 73.5s-55.666 39.833 -84.999 62.5l239 264c216 -24.667 400 -37 552 -37l260 3
c98 0 195.667 -1.66699 293 -5l-400 -428c167.333 -116.667 280 -229.667 338 -339s86.333 -219.666 85 -330.999s-32.166 -225.5 -92.499 -342.5s-138.166 -219.333 -233.499 -307s-216 -150.167 -362 -187.5c-72.667 -18 -142.5 -27 -209.5 -27
s-130.833 9.33301 -191.5 28c-85.333 27.333 -137 93 -155 197l228 182c18.667 -54.667 63.334 -102 134.001 -142c78.667 -32.667 148.5 -49 209.5 -49s114.833 12.333 161.5 37c101.333 52.667 162 102 182 148c28.667 50 43 113.667 43 191
c0 113.333 -38.5 230.333 -115.5 351s-229.5 224 -457.5 310l392 369c-79.333 26.667 -170 40 -272 40c-62.667 0 -121 -5.33301 -175 -16c-4.66699 -53.333 -7 -108 -7 -164l-6 -390v-34c0 -82 9.16699 -145.333 27.5 -190s50.833 -76 97.5 -94z" />
    <glyph glyph-name="afii61664" unicode="&#x200c;" 
 />
    <glyph glyph-name="afii301" unicode="&#x200d;" 
 />
    <glyph glyph-name="endash" unicode="&#x2013;" horiz-adv-x="583" 
d="M0 473v156h583v-156h-583z" />
    <glyph glyph-name="emdash" unicode="&#x2014;" horiz-adv-x="1024" 
d="M0 473v156h1024v-156h-1024z" />
    <glyph glyph-name="quoteleft" unicode="&#x2018;" horiz-adv-x="342" 
d="M330 1541c-60.667 -104.667 -91 -203 -91 -295c0 -46.667 7.66699 -95.667 23 -147l-245 -158c19.333 212 106 415 260 609z" />
    <glyph glyph-name="quoteright" unicode="&#x2019;" horiz-adv-x="344" 
d="M16 970c62 106.667 93 204.667 93 294c0 47.333 -8.33301 96.666 -25 147.999l246 158c-12 -123.333 -42.167 -234.666 -90.5 -333.999s-105.833 -191 -172.5 -275z" />
    <glyph glyph-name="quotesinglbase" unicode="&#x201a;" horiz-adv-x="344" 
d="M16 -264c62 106.667 93 205.001 93 295.001c0 47.333 -8.33301 96.666 -25 147.999l246 157c-12 -123.333 -42.167 -234.5 -90.5 -333.5s-105.833 -190.833 -172.5 -275.5z" />
    <glyph glyph-name="quotedblleft" unicode="&#x201c;" horiz-adv-x="582" 
d="M331 1529c-61.333 -104 -92 -202.667 -92 -296c0 -46.667 7.66699 -95.667 23 -147l-245 -159c12 124.667 41.667 236.5 89 335.5s104.333 190.5 171 274.5zM564 1484c-61.333 -107.333 -91.999 -205.668 -91.999 -295.001c0 -47.333 8.33301 -96.666 25 -147.999
l-246 -157c12 123.333 42.167 234.5 90.5 333.5s105.166 191.167 170.499 276.5z" />
    <glyph glyph-name="quotedblright" unicode="&#x201d;" horiz-adv-x="582" 
d="M250 900c61.333 104 92.001 202.333 92.001 295c0 46.667 -7.66699 95.667 -23 147l245 159c-20.667 -214.667 -107.334 -418 -260.001 -610zM17.001 945c61.333 107.333 91.999 205.333 91.999 294c0 47.333 -8.33301 96.666 -25 147.999l246 158
c-12 -123.333 -42.167 -234.666 -90.5 -333.999s-105.166 -191.333 -170.499 -276z" />
    <glyph glyph-name="quotedblbase" unicode="&#x201e;" horiz-adv-x="615" 
d="M250 -338c61.333 104 92 202.667 92 296c0 46.667 -7.66699 95.667 -23 147l245 159c-12 -124.667 -41.667 -236.5 -89 -335.5s-104.333 -190.5 -171 -274.5zM17 -293c61.333 107.333 91.999 205.668 91.999 295.001c0 47.333 -8.33301 96.666 -25 147.999l246 157
c-12 -123.333 -42.167 -234.5 -90.5 -333.5s-105.166 -191.167 -170.499 -276.5z" />
    <glyph glyph-name="dagger" unicode="&#x2020;" horiz-adv-x="1024" 
d="M549 -258c0 -12 -4.66309 -18.001 -13.9961 -18.001h-43c-10 0 -15 12 -15 36s-2.33301 61.5 -7 112.5s-10.667 106.167 -18 165.5s-15.5 120 -24.5 182s-18.167 120 -27.5 174c-19.333 116 -35.333 190.667 -48 224l28 31c12.667 14 25.667 31.667 39 53
c33.333 54.667 50 115 50 181c-26.667 0 -64.5 -11.833 -113.5 -35.5s-86.833 -40.834 -113.5 -51.501s-50.334 -16 -71.001 -16s-39 3.33301 -55 10s-29.333 15.334 -40 26.001c-23.333 23.333 -35 48.833 -35 76.5s3.66699 49.167 11 64.5s17 28.333 29 39
c24 21.333 50.167 32 78.5 32s55.666 -4.66699 81.999 -14s52.833 -19.333 79.5 -30c70 -29.333 119.333 -44 148 -44c0 54.667 -10.833 113.834 -32.5 177.501s-37.334 110.834 -47.001 141.501s-14.5 55.5 -14.5 74.5s3.16699 36.833 9.5 53.5s15.5 32 27.5 46
c27.333 32 58.166 48 92.499 48s60.5 -4.5 78.5 -13.5s32.333 -20.5 43 -34.5c20.667 -26 31 -53.833 31 -83.5s-5.33301 -59.834 -16 -90.501l-35 -99c-34 -94.667 -51 -168 -51 -220c28 0 66 10 114 30s85.167 34.667 111.5 44s55 14 86 14s58.167 -11.5 81.5 -34.5
s35 -47.833 35 -74.5s-2.83301 -47.334 -8.5 -62.001s-14.167 -27.667 -25.5 -39c-25.333 -25.333 -59.666 -38 -102.999 -38c-25.333 0 -62 11.833 -110 35.5s-85 40.834 -111 51.501s-49.333 16 -70 16c0 -64.667 16.333 -124.334 49 -179.001
c13.333 -22 26.5 -39.833 39.5 -53.5s22.5 -24.5 28.5 -32.5c-28.667 -65.333 -61.334 -256.666 -98.001 -573.999c-16.667 -139.333 -25 -240 -25 -302z" />
    <glyph glyph-name="daggerdbl" unicode="&#x2021;" horiz-adv-x="1024" 
d="M471 322c0 91.333 -32.6729 189.333 -98.0059 294c8.66699 18.667 18.667 37 30 55s22 37.667 32 59c24 50 36 101 36 153c-40 0 -85.5 -11.833 -136.5 -35.5l-112.5 -51.5c-24 -10.667 -43.667 -16 -59 -16s-30.166 2.5 -44.499 7.5s-27.166 12.5 -38.499 22.5
c-26 23.333 -39 49.166 -39 77.499s3.83301 50.166 11.5 65.499s17.5 28.333 29.5 39c26.667 24 51.5 36 74.5 36s45.833 -4.66699 68.5 -14l75 -30c70.667 -29.333 127.667 -44 171 -44c0 46 -11 101.667 -33 167l-48 145c-10 31.333 -15 56.5 -15 75.5
s3.33301 37.5 10 55.5s16.334 34.333 29.001 49c27.333 32.667 57.5 49 90.5 49s58.5 -4.5 76.5 -13.5s32.667 -20.833 44 -35.5c21.333 -27.333 32 -56.333 32 -87s-5.33301 -61.667 -16 -93l-35 -100c-34 -96 -51 -166.667 -51 -212c40 0 84.167 10 132.5 30l108.5 44
c24 9.33301 50.667 14 80 14s54.5 -12 75.5 -36s31.5 -48.667 31.5 -74s-2.5 -45.333 -7.5 -60s-12.5 -28 -22.5 -40c-22 -25.333 -53 -38 -93 -38c-16 0 -35.5 5.33301 -58.5 16l-75.5 36c-70.667 34 -127.667 51 -171 51c0 -53.333 8 -97.166 24 -131.499
s29.833 -60.666 41.5 -78.999s22.5 -37.166 32.5 -56.499c-40.667 -56 -69.667 -122.667 -87 -200c-7.33301 -30.667 -11 -62 -11 -94c39.333 0 83 11.667 131 35l107.5 51c23.667 10.667 45.334 16 65.001 16s37 -3.33301 52 -10s27.833 -16 38.5 -28
c22.667 -24.667 34 -49.834 34 -75.501s-3.66699 -46.167 -11 -61.5s-17 -28.333 -29 -39c-25.333 -22.667 -51.5 -34 -78.5 -34s-52 4.66699 -75 14l-73.5 31c-67.333 30 -121 45 -161 45c0 -79.333 16 -160.666 48 -243.999l33 -85c10 -25.333 15 -47.5 15 -66.5
s-3.33301 -36.833 -10 -53.5s-16.334 -31.667 -29.001 -45c-29.333 -32 -60.166 -48 -92.499 -48s-57 4.5 -74 13.5s-31.167 20.5 -42.5 34.5c-22.667 26.667 -34 54.5 -34 83.5s5.16699 56.167 15.5 81.5l34.5 85c33.333 83.333 50.666 164.666 51.999 243.999
c-42 0 -88 -10.333 -138 -31l-109.5 -45c-23 -9.33301 -42.667 -14 -59 -14s-32.166 3.16699 -47.499 9.5s-28.666 15.166 -39.999 26.499c-24 24 -36 48.833 -36 74.5s4 45.834 12 60.501s18 27.667 30 39c26 25.333 49.667 38 71 38s43.833 -5.33301 67.5 -16l76.5 -35
c74.667 -34 132.334 -51 173.001 -51z" />
    <glyph glyph-name="bullet" unicode="&#x2022;" horiz-adv-x="696" 
d="M346 467c-35.333 0 -69.8311 6.16797 -103.498 18.501s-63.834 29.833 -90.501 52.5c-59.333 51.333 -89 117.666 -89 198.999c0 86 29.667 155.667 89 209c54.667 49.333 120.667 74 198 74s142.666 -24 195.999 -72c58 -52 87 -122.333 87 -211
c0 -82 -29.667 -148.333 -89 -199c-54.667 -47.333 -120.667 -71 -198 -71z" />
    <glyph glyph-name="ellipsis" unicode="&#x2026;" horiz-adv-x="1362" 
d="M17 241l210 209l209 -209l-209 -210zM471 241l210 209l209 -209l-209 -210zM925 241l210 209l209 -209l-209 -210z" />
    <glyph glyph-name="perthousand" unicode="&#x2030;" horiz-adv-x="2292" 
d="M309 1333c18.667 17.333 39.333 25.998 62 25.998s47.667 -11.667 75 -35c167.333 -147.333 251 -291.666 251 -432.999c0 -152 -85.333 -305.667 -256 -461c-28.667 -25.333 -56 -38 -82 -38s-51.333 12.667 -76 38c-146.667 150.667 -220 301.334 -220 452.001
s82 301 246 451zM222.999 1129c-29.333 -19.333 -44 -52.832 -44 -100.499s25 -116.834 75 -207.501c66.667 -121.333 127.667 -182 183 -182c16 0 31.667 5 47 15c30.667 20 46 54 46 102s-24.333 116.667 -73 206c-67.333 122 -129.333 183 -186 183
c-16 0 -32 -5.33301 -48 -16zM361.999 -70.001c-13.333 0 -20.001 7.00098 -20.001 21.001c0 3.33301 0.666992 6.66602 2 9.99902l749 1454c2.66699 6.66699 8.33398 10 17.001 10h71c8.66699 0 15 -3.16699 19 -9.5s4 -12.5 0 -18.5l-746 -1456
c-2.66699 -7.33301 -8 -11 -16 -11h-76zM1827 942c18.667 17.333 39.333 25.998 62 25.998s47.667 -11.667 75 -35c167.333 -147.333 251 -291.666 251 -432.999c0 -152 -85.333 -305.667 -256 -461c-28.667 -24.667 -56 -37 -82 -37s-51.333 12.333 -76 37
c-146.667 150.667 -220 301.334 -220 452.001s82 301 246 451zM1741 737.998c-29.333 -19.333 -44 -52.832 -44 -100.499s25 -116.834 75 -207.501c66.667 -121.333 127.667 -182 183 -182c16 0 31.667 5 47 15c30.667 20 46 54 46 102s-24.333 116.667 -73 206
c-67.333 122 -129.333 183 -186 183c-16 0 -32 -5.33301 -48 -16zM1118 941.999c18.667 17.333 39.333 25.998 62 25.998s47.667 -11.667 75 -35c167.333 -147.333 251 -291.666 251 -432.999c0 -152 -85.333 -305.667 -256 -461c-28 -24.667 -55.333 -37 -82 -37
s-52 12.333 -76 37c-146.667 150.667 -220 301.334 -220 452.001s82 301 246 451zM1032 737.997c-29.333 -19.333 -44 -52.832 -44 -100.499s25 -116.834 75 -207.501c66.667 -121.333 127.667 -182 183 -182c16 0 31.667 5 47 15c30.667 20 46 54 46 102
s-24.333 116.667 -73 206c-67.333 122 -129.333 183 -186 183c-16 0 -32 -5.33301 -48 -16z" />
    <glyph glyph-name="guilsinglleft" unicode="&#x2039;" horiz-adv-x="743" 
d="M8 575l504 488l166 -105l-301 -378l301 -387l-166 -105z" />
    <glyph glyph-name="guilsinglright" unicode="&#x203a;" horiz-adv-x="743" 
d="M242 88l-166 105l301 387l-301 378l166 105l503 -488z" />
    <glyph glyph-name="Euro" unicode="&#x20ac;" horiz-adv-x="1032" 
d="M817 587l-20.002 -55.002c-6 -16.667 -21 -25 -45 -25h-357c15.333 -195.333 68 -323.666 158 -384.999c31.333 -21.333 66.5 -32 105.5 -32s71.833 7 98.5 21s49 32.667 67 56c32 40.667 57.667 97 77 169c11.333 28.667 23.333 43 36 43c6 0 10.333 -0.666992 13 -2
l-3 2c26.667 -5.33301 42 -12.833 46 -22.5s6 -18.5 6 -26.5c-12 -138 -18 -224.833 -18 -260.5s-3.16699 -56.167 -9.5 -61.5s-19.5 -8 -39.5 -8s-32.5 8.16699 -37.5 24.5s-12.5 34.833 -22.5 55.5c-2.66699 -4 -12.167 -13.167 -28.5 -27.5
s-34.166 -27.166 -53.499 -38.499c-48 -30 -102.5 -45 -163.5 -45s-118.167 15 -171.5 45s-99 70.333 -137 121c-67.333 91.333 -112.666 215.333 -135.999 372h-116c-23.333 0 -35 7.66699 -35 23v12c0 4.66699 1.33301 9.66699 4 15l14 39c6 16.667 18.333 25 37 25h86
c-1.33301 14 -2 30.333 -2 49v71h-96c-24.667 0 -37 7 -37 21c0 6.66699 1.33301 12.667 4 18h-4c10 30 18.667 49.5 26 58.5s17 13.5 29 13.5h92c22.667 148 71.334 272 146.001 372c86.667 118 191.667 177 315 177c80.667 0 153.667 -36.333 219 -109
c10 30 17.667 48.833 23 56.5s17.5 11.5 36.5 11.5s30.667 -3 35 -9s6.5 -17 6.5 -33s0.666992 -36.667 2 -62c2.66699 -47.333 5.66699 -94.166 9 -140.499s5.66602 -73.833 6.99902 -82.5s2 -16.334 2 -23.001c0 -12 -8.5 -21.5 -25.5 -28.5s-29.667 -10.5 -38 -10.5
s-13.833 2.33301 -16.5 7s-8 18.167 -16 40.5l-30.5 85c-12.333 34.333 -27.833 65.166 -46.5 92.499c-41.333 60.667 -98 91 -170 91c-111.333 0 -188.333 -90 -231 -270c-12.667 -53.333 -20.667 -108.333 -24 -165h467c23.333 0 35 -10 35 -30
c0 -3.33301 -0.666992 -6.66602 -2 -9.99902l-20 -46c-3.33301 -10.667 -8.33301 -17.5 -15 -20.5s-16.667 -4.5 -30 -4.5h-440v-51l5 -69h393c24.667 0 37 -11.333 37 -34z" />
    <glyph glyph-name="uni20B0" unicode="&#x20b0;" horiz-adv-x="837" 
d="M530 1116c-30 -4.66699 -45 -23.667 -45 -57v-8c2.66699 -57.333 15 -115 37 -173s47 -118.333 75 -181l19 -38l13 68c5.33301 58.667 8 103.667 8 135v43c0 94.667 -18.333 159 -55 193c-14 12 -31.333 18 -52 18zM350 -258l-49.0029 -5.00391
c-48.667 0 -91.334 11 -128.001 33c-66 39.333 -99 79 -99 119c0 24.667 10.667 48.667 32 72c70.667 78.667 106 82.334 106 11.001v-10c0 -34.667 11.5 -64.667 34.5 -90s54.167 -38 93.5 -38c32 0 64 4.33301 96 13c143.333 38 215 108.667 215 212v13
c-6 103.333 -25.667 198 -59 284c-58 -82.667 -129 -148.667 -213 -198c-74 -44 -142.333 -66 -205 -66c-31.333 0 -59.666 7.83301 -84.999 23.5s-38 39.834 -38 72.501c0 49.333 15 116.333 45 201c46 100 76 178.667 90 236c0 1.33301 -1 2 -3 2
s-12.667 -7.83301 -32 -23.5s-41 -37.167 -65 -64.5l-27 36c-6.66699 8 -13.667 17.833 -21 29.5s-12.666 19.167 -15.999 22.5c126.667 98 219 147 277 147c45.333 0 68 -23.833 68 -71.5s-20.667 -119.5 -62 -215.5c-45.333 -132 -68 -207.5 -68 -226.5
s2.83301 -29 8.5 -30s11.834 -1.5 18.501 -1.5c36.667 0 80.334 21.167 131.001 63.5s99.334 102.166 146.001 179.499c-140.667 220 -211 387.667 -211 503c0 17.333 2 34.333 6 51c13.333 56 35 100.667 65 134s67 50 111 50h20c87.333 0 152 -29.333 194 -88
c33.333 -47.333 50 -112.666 50 -195.999v-15c0 -75.333 -9 -141.5 -27 -198.5s-30.333 -97.5 -37 -121.5s-14 -45.667 -22 -65c78 -151.333 117 -281.666 117 -390.999c0 -115.333 -43.667 -207.666 -131 -276.999c-84.667 -66 -193.334 -104.667 -326.001 -116z" />
    <glyph glyph-name="uni2114" unicode="&#x2114;" horiz-adv-x="1108" 
d="M905 137c-83.333 -98 -167.668 -147 -253.001 -147s-152.333 33.333 -201 100c-88 -60 -155.5 -90 -202.5 -90s-85.5 14.667 -115.5 44s-45 67.333 -45 114c0 47.333 5.83301 88.833 17.5 124.5s17.5 55.167 17.5 58.5s0.666992 6.33301 2 9v-2
c10 34.667 17.333 58 22 70v-2c3.33301 10.667 6.33301 19.167 9 25.5s4.33398 13.166 5.00098 20.499s2.33398 15.666 5.00098 24.999c-142 40 -213 106.333 -213 199c0 68 32.667 127.333 98 178c80.667 53.333 186.667 80 318 80c84.667 0 166.334 -9.66699 245.001 -29
c4.66699 -1.33301 13 -3.33301 25 -6s24.833 -6.33398 38.5 -11.001s24.334 -8.66699 32.001 -12s28.5 -11.166 62.5 -23.499s56.167 -18.5 66.5 -18.5s19.666 3.33301 27.999 10s13.833 13.334 16.5 20.001c6.66699 42.667 24.334 64 53.001 64c31.333 0 60 -15.667 86 -47
c6.66699 -8 10 -15.667 10 -23c0 -51.333 -56.667 -90 -170 -116c-24.667 -6 -50.334 -9 -77.001 -9c-51.333 0 -121 7.66699 -209 23c-138.667 23.333 -239.334 35 -302.001 35c-150 0 -225 -36.333 -225 -109c0 -31.333 15 -56 45 -74
c2.66699 -1.33301 7.16699 -2.66602 13.5 -3.99902s13.166 -3.33301 20.499 -6l26.5 -10c10.333 -4 25.166 -9.33301 44.499 -16c8.66699 26.667 30.334 83.334 65.001 170.001l166 -9l-26 -79l-39 -117c15.333 -2 77.333 -8.33301 186 -19l63 195l179 -18l-62 -191
c156 -20.667 234 -90.334 234 -209.001c0 -55.333 -20 -111.333 -60 -168zM699.998 430c-70.667 -177.333 -106 -276.333 -106 -297s11.667 -31 35 -31c52 0 97.667 32.333 137 97c39.333 50 59 94.333 59 133c0 53.333 -41.667 86 -125 98zM333.998 457
c-62.667 -197.333 -94 -306.499 -94 -327.499s8.66699 -31.5 26 -31.5c12.667 0 29.667 5.66699 51 17c74 35.333 142.333 143.666 205 324.999c-53.333 0 -116 5.66699 -188 17zM538.998 487.001c-6 -14.667 -10 -25.167 -12 -31.5s-4.33301 -11.5 -7 -15.5h47z" />
    <glyph glyph-name="afii61352" unicode="&#x2116;" horiz-adv-x="1679" 
d="M1056 1006.5c62.667 84.333 138.334 126.5 227.001 126.5s164.5 -42.167 227.5 -126.5s94.5 -186.333 94.5 -306s-31.5 -221.667 -94.5 -306s-138.833 -126.5 -227.5 -126.5s-164.334 42.167 -227.001 126.5s-94 186.333 -94 306s31.333 221.667 94 306zM880 7
l-46.998 -0.00195312l-406 1080v-869c0 -58.667 -18.833 -108.5 -56.5 -149.5s-84.834 -61.5 -141.501 -61.5s-101.334 23.5 -134.001 70.5s-49 102.667 -49 167s31.5 96.5 94.5 96.5s94.5 -34.333 94.5 -103c0 -26 -8.33301 -49.333 -25 -70
c-27.333 -34.667 -41 -61.5 -41 -80.5s21 -28.5 63 -28.5s77 15.5 105 46.5s42 68.5 42 112.5v994c-40 106.667 -68.333 168.834 -85 186.501s-77 26.5 -181 26.5v52h379c52 0 85.667 -21.667 101 -65l240 -694v548c0 58 18.5 107.667 55.5 149s84 62 141 62
s102 -23.667 135 -71s49.5 -103 49.5 -167s-31.5 -96 -94.5 -96s-94.5 34.667 -94.5 104c0 24.667 7.66699 47.334 23 68.001c27.333 36 41 63.333 41 82s-20.833 28 -62.5 28s-76.5 -15.5 -104.5 -46.5s-42 -68.5 -42 -112.5v-1259zM962.002 146.998v68h643v-68h-643z
M962.002 6.99805v68h643v-68h-643zM1355 974.998c-11.333 76 -33.833 114 -67.5 114s-55 -38 -64 -114s-13.5 -167.667 -13.5 -275s4.5 -198.833 13.5 -274.5s30.333 -113.5 64 -113.5s56.167 37.833 67.5 113.5s17 167.167 17 274.5s-5.66699 199 -17 275z" />
    <glyph glyph-name="trademark" unicode="&#x2122;" horiz-adv-x="1587" 
d="M666 904c78 76.667 117.002 130.832 117.002 162.499s-13.667 78.834 -41 141.501c-45.333 104 -68 163.667 -68 179s2 27.666 6 36.999c9.33301 20.667 31.166 39.834 65.499 57.501s86.5 39.834 156.5 66.501l22 -54c-44.667 -14.667 -69.334 -33.334 -74.001 -56.001
c-0.666992 -4.66699 -1 -13.334 -1 -26.001s6.33301 -32.334 19 -59.001l191 195c29.333 -20 54.333 -39.167 75 -57.5s45.667 -34.833 75 -49.5l99 107l120 -66c40 -22 81.667 -41 125 -57c-53.333 -37.333 -81.666 -101 -84.999 -191l-5 -191v-11
c0 -55.333 19 -89 57 -101l-79 -154c-48 18 -81.167 46.167 -99.5 84.5s-27.5 91.166 -27.5 158.499v14l1 129c0 48.667 19.667 99.334 59 152.001c-67.333 50 -117 77 -149 81c-12.667 -19.333 -19 -42.333 -19 -69s-0.666992 -57.667 -2 -93l-6 -191v-11
c0 -62 15.667 -98.333 47 -109l-116 -146c-25.333 33.333 -66.666 74.666 -123.999 123.999c10 12 19.833 30.833 29.5 56.5s14.5 51.167 14.5 76.5l18 317c-28.667 22.667 -48 34 -58 34s-19.667 -2.16699 -29 -6.5s-38 -30.166 -86 -77.499c29.333 -50 44 -93.5 44 -130.5
s-32.333 -98.833 -97 -185.5c30.667 -22.667 74 -40.667 130 -54l-83 -154l-223 117v-33c-108 -51.333 -195.167 -77 -261.5 -77s-119.5 12 -159.5 36c-99.333 58.667 -172 164.334 -218 317.001c62 87.333 141.667 177.333 239 270c-16 13.333 -33 20 -51 20
c-24.667 0 -79.334 -17.667 -164.001 -53l120 188c96 -10.667 185.333 -16 268 -16s161.667 5.33301 237 16l-76 -184c-36.667 16 -75 28.333 -115 37l4 -420c-58 -7.33301 -113.333 -29.666 -166 -66.999c42.667 -36 93.667 -54 153 -54s123.666 19 192.999 57z
M316.002 1353c-64 -61.333 -95.999 -130.333 -95.999 -207c0 -67.333 22.667 -128 68 -182c23.333 24 35.666 61.333 36.999 112c2.66699 107.333 4 174.5 4 201.5s-4.33301 52.167 -13 75.5z" />
    <glyph glyph-name="uni2133" unicode="&#x2133;" horiz-adv-x="1597" 
d="M696 187c0 88 19.9951 212.672 59.9951 374.005c12 60 27.333 118.667 46 176l-55.5 -132.5c-18.333 -45 -39.166 -93.5 -62.499 -145.5c-141.333 -321.333 -282 -482 -422 -482c-55.333 0 -108.666 23.667 -159.999 71c-57.333 54 -86 120.333 -86 199
c0 42.667 11.667 75.334 35 98.001s50.333 34 81 34c70 0 105 -33.333 105 -100c0 -23.333 -7 -47.333 -21 -72c-17.333 -30.667 -26 -53.334 -26 -68.001s8.66699 -27.167 26 -37.5s32.666 -15.5 45.999 -15.5c88.667 0 200.334 144.667 335.001 434
c4.66699 8 14.834 30.833 30.501 68.5l56.5 134.5l72 168.5l74 172.5c48 111.333 84.667 188.666 110 231.999c11.333 28.667 28.666 56 51.999 82c45.333 52 81.333 78 108 78c10.667 0 20.334 -5.83301 29.001 -17.5s13 -23.667 13 -36s-7.33301 -27.833 -22 -46.5
c-48.667 -100 -109.667 -326.667 -183 -680c-7.33301 -46 -15 -91.5 -23 -136.5s-14.833 -87.167 -20.5 -126.5s-11.5 -75.333 -17.5 -108s-9.33301 -58 -10 -76c15.333 31.333 30.666 71.666 45.999 120.999l121.5 330c32.333 90 59.833 160.333 82.5 211
c88.667 207.333 179.667 377.333 273 510c2 10.667 10.5 22.667 25.5 36s29.167 20 42.5 20c29.333 0 44 -15.333 44 -46c0 -12.667 -2.66699 -25.334 -8 -38.001c-16.667 -39.333 -47.167 -154.333 -91.5 -345s-72.833 -316.667 -85.5 -378c-24 -115.333 -36 -222 -36 -320
c0 -90.667 4.83301 -153 14.5 -187s18.334 -51 26.001 -51s17.167 6 28.5 18c14.667 14.667 42.334 58 83.001 130v-4c1.33301 13.333 17 46.666 47 99.999v-2c6.66699 22 19.334 33 38.001 33c34.667 0 52 -17.333 52 -52c0 -18 -6.33301 -36.333 -19 -55
c-37.333 -92 -63.333 -148.667 -78 -170c-47.333 -66.667 -100.666 -100 -159.999 -100c-133.333 0 -200 98.333 -200 295c0 150 35.667 342.333 107 577c-70 -160 -146 -356.667 -228 -590c-58 -164.667 -112.667 -253.334 -164 -266.001
c-10.667 -2.66699 -17.334 -4 -20.001 -4c-74 0 -111 61.667 -111 185z" />
    <glyph glyph-name="uni338F" unicode="&#x338f;" horiz-adv-x="2101" 
d="M1735 850c9.33301 9.33301 16.667 15.0059 22 17.0059h-2c60 56.667 117.333 85 172 85c80 0 120 -43.667 120 -131c0 -60 -30.333 -90 -91 -90c-44 0 -74.667 21.333 -92 64h2c-9.33301 8 -16.333 17 -21 27c-2 -0.666992 -5.5 -3.33398 -10.5 -8.00098
s-15.167 -12.334 -30.5 -23.001c23.333 -30.667 39.166 -59.5 47.499 -86.5s12.5 -62.833 12.5 -107.5s-10.333 -86.667 -31 -126s-49.334 -72.333 -86.001 -99c-76 -55.333 -176 -83 -300 -83c-77.333 0 -129.166 -5.83301 -155.499 -17.5s-39.5 -29.834 -39.5 -54.501
c0 -40.667 40.667 -61 122 -61h18c118 0 200.667 2 248 6c108 0 185.667 -18.833 233 -56.5s71 -99.5 71 -185.5c0 -205.333 -162.333 -308 -487 -308c-260 0 -390 68 -390 204c0 39.333 11.667 73.333 35 102s65 54 125 76c-50.667 16 -83.667 38 -99 66
c-12 20.667 -18 54 -18 100s12 85.833 36 119.5s66.667 59.167 128 76.5c-52 30.667 -87.833 66.667 -107.5 108s-29.5 87.166 -29.5 137.499s9.5 95.166 28.5 134.499s44.833 72.666 77.5 99.999c66.667 56 148.334 84 245.001 84s179 -23.333 247 -70zM1631.5 429.506
c27 35 40.499 91.667 40.499 170s-13.5 134.833 -40.5 169.5s-71.167 52 -132.5 52s-106.166 -18.167 -134.499 -54.5s-42.5 -92 -42.5 -167s13.333 -130.833 40 -167.5s71.5 -55 134.5 -55s108 17.5 135 52.5zM1377 -17.9941c-92 -26 -138 -74.667 -138 -146
c0 -82.667 77 -124 231 -124c214.667 0 322 52.333 322 157c0 38.667 -14.333 67.167 -43 85.5s-75 27.5 -139 27.5h-233zM102 1347.01l-14.998 -0.998047h-40v96l342 22v-944c42 39.333 76 72.333 102 99s48 48 66 64s35 32.333 51 49c38.667 39.333 58 66 58 80
c0 3.33301 -5.66699 7.33301 -17 12s-31 7 -59 7h-74v96h488l-3 -96c-96 0 -193.333 -50.333 -292 -151l-87 -83c134.667 -186.667 227 -318.667 277 -396c38.667 -56.667 99.334 -87.334 182.001 -92.001v-103h-487v103l63 2c35.333 2 53.333 4.83301 54 8.5s2 7.5 4 11.5
c-2.66699 5.33301 -6.83398 11 -12.501 17s-8.5 12.333 -8.5 19l-103.5 151.5l-105.5 152.5l-24 -27c-12.667 -12 -24.334 -23.833 -35.001 -35.5s-23 -22.834 -37 -33.501v-201c0 -23.333 3.5 -39.5 10.5 -48.5s20.5 -13.833 40.5 -14.5h37l53 -2v-103h-473v103l95 2
c18.667 0.666992 31.667 5.5 39 14.5s11 25.167 11 48.5v1103c0 28 -6.33301 46.667 -19 56s-36.334 14 -71.001 14h-10z" />
    <glyph glyph-name="uniA75B" unicode="&#xa75b;" horiz-adv-x="727" 
d="M70 759l337.998 333.001c157.333 -83.333 237.333 -205.333 240 -366c-1.33301 -90 -37.333 -176.667 -108 -260c-11.333 -16.667 -21.666 -30.334 -30.999 -41.001c-11.333 -17.333 -17 -32 -17 -44s5.33301 -21.333 16 -28c8.66699 -12 63.334 -43.333 164.001 -94
l-222 -244l-294 225c44.667 39.333 96 89.333 154 150c86.667 83.333 130 153.333 130 210c0 10.667 -1.33301 20.667 -4 30c-18.667 62 -44.667 104.667 -78 128c-26.667 23.333 -53 35 -79 35c-45.333 0 -86.333 -31 -123 -93l-42.5 29.5z" />
    <glyph glyph-name="uniF520" unicode="&#xf520;" horiz-adv-x="1071" 
d="M729 874c56 53.333 113.332 80 171.999 80c80.667 0 121 -42.333 121 -127c0 -60 -31.333 -90 -94 -90c-41.333 0 -72 21.333 -92 64h2c-3.33301 3.33301 -9.66602 12 -18.999 26c-8 -2.66699 -14.333 -6.33398 -19 -11.001s-8.5 -7.33398 -11.5 -8.00098
s-5.83301 -1.66699 -8.5 -3v-2c0 -2.66699 -1.33301 -4 -4 -4c23.333 -30 38.833 -59 46.5 -87s11.5 -64.5 11.5 -109.5s-12 -89.167 -36 -132.5c-66 -118 -191.333 -177 -376 -177c-64 0 -107 -2.66699 -129 -8c-44 -11.333 -66 -32.666 -66 -63.999
c0 -39.333 40.333 -59 121 -59h19l247 4c108 0 185.667 -18.5 233 -55.5s71 -98.5 71 -184.5c0 -204.667 -162 -307 -486 -307c-259.333 0 -389 67.667 -389 203c0 39.333 11 73.333 33 102s63 54 123 76c-70 24 -108 60.667 -114 110c-2 16.667 -3 41.834 -3 75.501
s11.667 67.5 35 101.5s66.333 59 129 75c-91.333 56 -137 139.333 -137 250c0 98 36.167 174.833 108.5 230.5s157.5 83.5 255.5 83.5c48 0 90 -4.83301 126 -14.5s72 -28.167 108 -55.5c9.33301 9.33301 17.333 15.333 24 18h-2zM472.999 827
c-61.333 0 -106.334 -18 -135.001 -54s-43 -91.833 -43 -167.5s13.667 -132 41 -169s72.333 -55.5 135 -55.5s107.667 17.667 135 53s41 92 41 170s-13.667 134.667 -41 170s-71.666 53 -132.999 53zM351.998 -12c-92.667 -26 -139 -74.667 -139 -146
c0 -82 77 -123 231 -123c214.667 0 322 51.333 322 154c0 39.333 -14.333 68.333 -43 87s-75.667 28 -141 28h-230z" />
    <glyph glyph-name="uniF522" unicode="&#xf522;" horiz-adv-x="2011" 
d="M582 1395l94.001 4.00098l51 2c45.333 4 93.666 6 144.999 6c26.667 0 40 -11.667 40 -35c0 -10.667 -2.83301 -21.667 -8.5 -33s-18.167 -35 -37.5 -71l-72.5 -137.5l-99 -189l-113 -215.5l-112.5 -217l-99 -192l-74 -141.5c-20 -37.667 -31.333 -59.834 -34 -66.501
h438c27.333 26 64 75.833 110 149.5s71.167 115.5 75.5 125.5s9.66602 15 15.999 15s14.5 -2.66699 24.5 -8l18 -14c8 -8 12 -19.667 12 -35c-4 -10.667 -10.667 -31.667 -20 -63l-29.5 -98.5l-29 -100.5l-18.5 -67.5c-3.33301 -12.333 -8.83301 -22.666 -16.5 -30.999
s-13.834 -12.5 -18.501 -12.5c-17.333 0 -31.333 2.66699 -42 8c-53.333 13.333 -192.333 20 -417 20h-288c-10 0 -20.167 1.5 -30.5 4.5s-15.5 11.167 -15.5 24.5c0 27.333 4 46.833 12 58.5s23.167 38.334 45.5 80.001l80 150l102 193.5l110.5 213.5l106.5 209l92.5 180.5
c56.667 110 87.334 170.333 92.001 181h-338c-14.667 0 -26.167 -5.83301 -34.5 -17.5s-20.333 -29.667 -36 -54l-50.5 -80.5c-38 -60.667 -65.333 -110.334 -82 -149.001c-6 -12.667 -13.167 -19 -21.5 -19s-15.333 2.5 -21 7.5s-11.167 8.83301 -16.5 11.5
c-8.66699 8.66699 -13 16 -13 22s0.666992 10.667 2 14l86 345c8.66699 26 20.334 39 35.001 39c8.66699 0 20.5 -1.5 35.5 -4.5s37 -5.33301 66 -7s61 -2.83398 96 -3.50098s70.5 -1 106.5 -1h96zM1062 668.001v142.999c0 40.667 2.33301 66.667 7 78v227h-77
c-28 0 -42 13 -42 39c0 14 3.5 23.667 10.5 29s15.5 11 25.5 17s23.5 17.333 40.5 34s34.5 35 52.5 55c40 46 64.667 78.667 74 98c14 29.333 29.5 44 46.5 44s27.5 -4.5 31.5 -13.5s6 -19.833 6 -32.5l-8 -144h201c21.333 0 32 -8.33301 32 -25
c0 -6.66699 -0.666992 -11 -2 -13l-16 -55c-4 -22 -15.667 -33 -35 -33h-184c-2.66699 -36 -4 -71.333 -4 -106v-273c0 -69.333 14.333 -109.666 43 -120.999c8 -2.66699 18 -4 30 -4c41.333 0 68.666 5.66699 81.999 17c8.66699 4 16 6 22 6s15 -4.66699 27 -14l9 -19
c1.33301 -3.33301 2 -7.83301 2 -13.5s-3 -14.5 -9 -26.5c-58.667 -48.667 -122 -73 -190 -73c-41.333 0 -81.666 17.667 -120.999 53c-36 34 -54 76 -54 126zM1482 497c-18.667 0 -27.999 12.6631 -27.999 37.9961v27c0 14.667 2.16699 24.667 6.5 30s14.5 8 30.5 8h61
c8.66699 0 13 4 13 12c1.33301 26.667 2 56.334 2 89.001v274c0 49.333 -8 80.333 -24 93c-6 4.66699 -13 9.33398 -21 14.001l-30 20c-14.667 5.33301 -22 15.333 -22 30v9c0 14 6.83301 25 20.5 33s29 17.5 46 28.5s34.167 21.5 51.5 31.5c41.333 24 69.333 36 84 36
s24 -4.16699 28 -12.5s7.33301 -17.166 10 -26.499v-70c63.333 79.333 122.333 119 177 119c34.667 0 60.334 -9.83301 77.001 -29.5s25 -43.167 25 -70.5s-10 -50.666 -30 -69.999s-38.833 -29 -56.5 -29s-33.834 4.83301 -48.501 14.5s-29 14.5 -43 14.5
c-32 0 -58.333 -20.333 -79 -61c-10 -22 -15 -37 -15 -45v-357c0 -31.333 8.33301 -47 25 -47h73c13.333 0 21.666 -3.33301 24.999 -10s5 -16 5 -28v-27c0 -25.333 -8.66699 -38 -26 -38h-23c-31.333 4.66699 -79.333 7 -144 7l-155 -7h-15zM992.002 411.996h980v-162h-980
v162z" />
    <glyph glyph-name="uniFB00" unicode="&#xfb00;" horiz-adv-x="1030" 
d="M1054 1202c-50 29.333 -109.331 48.3311 -177.998 56.998c-11.333 -18 -28.666 -43.667 -51.999 -77c10.667 -22 20.667 -55.667 30 -101h162v-252h-147c0 -62.667 -1.33301 -126.167 -4 -190.5s-5 -124.5 -7 -180.5c-3.33301 -128 -94.333 -412.333 -273 -853
c-26.667 26 -54.334 42.333 -83.001 49c41.333 147.333 67.833 315.5 79.5 504.5s17.5 340.167 17.5 453.5v217h-189c0 -62.667 -1.33301 -126.167 -4 -190.5s-4.66699 -124.5 -6 -180.5c-2 -125.333 -93.333 -409.666 -274 -852.999c-24.667 24.667 -52 41 -82 49
c45.333 164 72.666 341 81.999 531s14 347.667 14 473s-1.33301 236.333 -4 333c-1.33301 54 -28.333 102.333 -81 145c57.333 60.667 109.833 120.667 157.5 180s100.167 119.666 157.5 180.999c82.667 -10 196.667 -29.333 342 -58l-180 -220
c-24.667 14.667 -41.334 23.834 -50.001 27.501s-29.667 7.83398 -63 12.501l-53 -77c12.667 -27.333 22.334 -61 29.001 -101l205 3c0 46 -12.667 82.667 -38 110c119.333 140.667 207.666 241.667 264.999 303c62.667 -7.33301 129.167 -18 199.5 -32l207.5 -41l-90 -112z
" />
    <glyph glyph-name="uniFB01" unicode="&#xfb01;" horiz-adv-x="933" 
d="M918 1387l-180 -220.001c-41.333 14.667 -89.333 28.667 -144 42l132 218c78 -17.333 142 -30.666 192 -39.999zM550 1223c-57.333 19.333 -102.666 31.334 -135.999 36.001l-53 -77c12.667 -27.333 22.334 -61 29.001 -101h249v-1l223 -105
c-7.33301 -27.333 -15.833 -54 -25.5 -80s-14.5 -52.667 -14.5 -80l-13 -406v-9c0 -31.333 10 -57.333 30 -78s42.667 -36.334 68 -47.001l-200 -244l-211 171c38.667 46 58 92 58 138l7 454c0 10 -3 21.667 -9 35h-147c0 -62.667 -1.33301 -126.167 -4 -190.5
s-4.33398 -124.5 -5.00098 -180.5c-2.66699 -125.333 -94.334 -409.666 -275.001 -852.999c-24.667 24.667 -52 41 -82 49c45.333 164 72.666 341 81.999 531s14 347.667 14 473s-1.33301 236.333 -4 333c-1.33301 54 -28.333 102.333 -81 145
c57.333 60.667 109.833 120.667 157.5 180s100.167 119.666 157.5 180.999c68.667 -8 174.334 -28.333 317.001 -61z" />
    <glyph glyph-name="uniFB02" unicode="&#xfb02;" horiz-adv-x="1005" 
d="M365 1497c40 -4 149.669 -23 329.002 -57l177 95c-18 -80 -28.5 -163 -31.5 -249s-4.5 -173.333 -4.5 -262l-4 -587c0 -50 4.66699 -78.333 14 -85s58 -37.667 146 -93l-222 -244l-294 225c72.667 64 109.667 132 111 204l5 605c0 70 -1.66699 122.333 -5 157
c-50 27.333 -107.333 45 -172 53l-53 -77c12.667 -27.333 22.334 -61 29.001 -101h129v-252h-114c0 -62.667 -1.33301 -126.167 -4 -190.5s-4.33398 -124.5 -5.00098 -180.5c-2.66699 -125.333 -94.334 -409.666 -275.001 -852.999c-24.667 24.667 -52 41 -82 49
c45.333 164 72.666 341 81.999 531s14 347.667 14 473s-1.33301 236.333 -4 333c-1.33301 54 -28.333 102.333 -81 145c57.333 60.667 109.833 120.667 157.5 180s100.167 119.666 157.5 180.999z" />
    <glyph glyph-name="uniFB03" unicode="&#xfb03;" horiz-adv-x="1443" 
d="M1447 1389l-180 -220c-25.333 14 -59.5 26.5 -102.5 37.5s-66.833 16.833 -71.5 17.5l154 205zM1037 1238c-44.667 10.667 -78.333 17.667 -101 21l-53 -77c12.667 -27.333 22.334 -61 29.001 -101h249v-1l223 -105c-7.33301 -27.333 -15.833 -54 -25.5 -80
s-14.5 -52.667 -14.5 -80l-13 -406v-9c0 -31.333 10 -57.333 30 -78s42.667 -36.334 68 -47.001l-200 -244l-211 171c38.667 46 58 92 58 138l7 454c0 10 -3 21.667 -9 35h-147c0 -62.667 -1.33301 -126.167 -4 -190.5s-4.33398 -124.5 -5.00098 -180.5
c-2.66699 -125.333 -94.334 -409.666 -275.001 -852.999c-24.667 24.667 -52 41 -82 49c45.333 164 72.666 341.667 81.999 533s14 336.666 14 435.999s-0.333008 168 -1 206h-260c0 -62.667 -1.16699 -126.167 -3.5 -190.5s-4.16602 -124.5 -5.49902 -180.5
c-3.33301 -126.667 -95 -411 -275 -853c-24.667 24.667 -52 41 -82 49c46 164 73.5 340.5 82.5 529.5s13.5 346.167 13.5 471.5s-1.33301 237.333 -4 336c-1.33301 54 -28.333 102.333 -81 145c57.333 60.667 109.833 120.667 157.5 180s100.167 119.666 157.5 180.999
c129.333 -15.333 258 -36.666 386 -63.999l-196 -217c-48 28.667 -93 43 -135 43h-6l-53 -77c12.667 -27.333 22.334 -61 29.001 -101l255 -3v7c0 32.667 -13 65.334 -39 98.001l290 314c61.333 -7.33301 124.5 -18 189.5 -32s101.167 -21.667 108.5 -23z" />
    <glyph glyph-name="uniFB04" unicode="&#xfb04;" horiz-adv-x="1466" 
d="M712 1439l-180.001 -220.003c-24.667 14.667 -41.334 23.834 -50.001 27.501s-29.667 7.83398 -63 12.501l-53 -77c12.667 -27.333 22.334 -61 29.001 -101h171c-13.333 18.667 -30.666 37 -51.999 55c56.667 60.667 99.334 109 128.001 145l58 72l-1 2
c39.333 46.667 81.333 94 126 142h2c14 -2 27.5 -3.83301 40.5 -5.5s24.5 -3.5 34.5 -5.5l27 -4h3l222 -42l177 95c-18 -80 -28.5 -163 -31.5 -249s-4.5 -173.333 -4.5 -262l-4 -587c0 -50 4.66699 -78.333 14 -85s58 -37.667 146 -93l-222 -244l-294 225
c72.667 64 109.667 132 111 204l5 605c0 70 -1.66699 122.333 -5 157c-50 26.667 -106.667 44.334 -170 53.001c-11.333 -18 -28.666 -43.667 -51.999 -77c10.667 -22 20.667 -55.667 30 -101h148v-252h-133c0 -62.667 -1.33301 -126.167 -4 -190.5s-5 -124.5 -7 -180.5
c-3.33301 -128 -94.333 -412.333 -273 -853c-26.667 26 -54.334 42.333 -83.001 49c41.333 147.333 67.833 315.5 79.5 504.5s17.5 340.167 17.5 453.5v217h-189c0 -62.667 -1.33301 -126.167 -4 -190.5s-4.66699 -124.5 -6 -180.5
c-2 -125.333 -93.333 -409.666 -274 -852.999c-24.667 24.667 -52 41 -82 49c45.333 164 72.666 341 81.999 531s14 347.667 14 473s-1.33301 236.333 -4 333c-1.33301 54 -28.333 102.333 -81 145c57.333 60.667 109.833 120.667 157.5 180s100.167 119.666 157.5 180.999
c82.667 -10 196.667 -29.333 342 -58z" />
    </font>
</defs>
</svg>
